<?xml version="1.0" encoding="utf-8"?>
<!-- Generator: Adobe Illustrator 23.0.0, SVG Export Plug-In . SVG Version: 6.00 Build 0)  -->
<svg version="1.1" id="Layer_1" xmlns="http://www.w3.org/2000/svg" xmlns:xlink="http://www.w3.org/1999/xlink" x="0px" y="0px"
	 viewBox="0 0 1920 1080" style="enable-background:new 0 0 1920 1080;" xml:space="preserve">
<style type="text/css">
	.st0{fill:#FFFFFF;}
	.st1{fill-rule:evenodd;clip-rule:evenodd;}
	.st2{fill:#E8C5BF;}
	.st3{fill:#B9916F;}
	.st4{fill:#212121;}
	.st5{fill:#EBEDF0;}
	.st6{fill:#3B455A;}
	.st7{fill:#CCD2D9;}
	.st8{fill:#707070;}
	.st9{fill:#1B1464;}
	.st10{fill:#8EC3CB;}
	.st11{fill:#52B4BB;}
	.st12{fill:#4D5F66;}
	.st13{fill:none;}
	.st14{fill:#C0C0C0;}
	.st15{fill:#DFDFDF;}
	.st16{fill:#ADB0B2;}
	.st17{fill:#D2D3D4;}
	.st18{fill:#556974;}
	.st19{fill:#3D4B50;}
	.st20{font-family:'Raleway-Thin';}
	.st21{font-size:231px;}
	.st22{fill:url(#SVGID_1_);}
	.st23{fill-rule:evenodd;clip-rule:evenodd;fill:#FFFFFF;}
	.st24{fill-rule:evenodd;clip-rule:evenodd;fill:#00E576;}
	.st25{fill-rule:evenodd;clip-rule:evenodd;fill:url(#SVGID_2_);}
	.st26{fill-rule:evenodd;clip-rule:evenodd;fill:#64A1F4;}
	.st27{fill-rule:evenodd;clip-rule:evenodd;fill:#448DE8;}
	.st28{fill-rule:evenodd;clip-rule:evenodd;fill:url(#SVGID_3_);}
	.st29{fill-rule:evenodd;clip-rule:evenodd;fill:#53C3FF;}
	.st30{fill-rule:evenodd;clip-rule:evenodd;fill:#4B3E8B;}
	.st31{fill-rule:evenodd;clip-rule:evenodd;fill:#70C9EB;}
	.st32{font-size:170px;}
	.st33{font-family:'Raleway-Light';}
	.st34{font-size:65px;}
</style>
<g>
	<rect class="st0" width="1920" height="1080"/>
</g>
<rect x="673" y="689" class="st1" width="535" height="94"/>
<text transform="matrix(1 0 0 1 1097.04 371.6001)" class="st20 st21">*</text>
<g>
	<linearGradient id="SVGID_1_" gradientUnits="userSpaceOnUse" x1="817.1342" y1="718.3707" x2="1048.4089" y2="388.0762">
		<stop  offset="0" style="stop-color:#00E576"/>
		<stop  offset="1" style="stop-color:#1B1464"/>
	</linearGradient>
	<path class="st22" d="M745.8,463.3c-21.5,6.9-46.4,17.7-50.4,40c-2.6,14.5,5.8,29.7,18.5,37.1c6.2,3.7,13.8,6.2,17,12.6
		c5,10-4,21.4-13.5,27.2c-9.5,5.8-21.2,10.4-25.5,20.7c-2.9,6.8-1.7,14.7,1.1,21.5c10.4,24.9,40.7,35.8,67.7,34.5
		c27-1.3,52.5-11.8,79-17.2c90.8-18.6,186,23.6,276.6,4.3c14.1-3,28.3-7.7,39.2-17.2c12.3-10.7,19.3-26.7,20.3-42.9
		c1-15.5-4.5-32.9-18.3-39.9c-8.1-4.1-17.8-3.9-26.6-1.7c-5.6,1.4-11.1,3.6-16.9,3.7c-5.8,0-12.2-2.9-13.8-8.4
		c-1.8-5.8,2.3-11.8,6.9-15.8c9.4-8.1,21.9-12.1,30.4-21.1c8.2-8.6,11.6-21.5,8.9-33.1c-2.8-11.6-11.7-21.5-22.9-25.5
		c-28.6-10.2-59.8,17.5-89,9.4c-2.2-0.6-4.5-1.5-5.6-3.5c-1.1-1.9-0.9-4.3-0.2-6.4c3.6-11.8,17.5-19.3,18.1-31.6
		c0.3-6.7-3.6-12.9-8.6-17.4c-34.2-30.7-83.8,5.8-118.7,17.4C861.8,428.9,803.4,444.7,745.8,463.3z"/>
	<g>
		<g>
			<g>
				<path class="st0" d="M871.8,553.6C871.8,553.6,871.8,553.6,871.8,553.6l10.4-6.2c0,0,0,0,0,0l-4.7-7.9c0,0,0,0,0,0l-10.4,6.2
					c0,0,0,0,0,0l-27.4-46.3c0,0,0,0,0,0l-10.9,6.4c0,0,0,0,0,0l-5.1,67.2c0,0,0,0,0,0l3.9,6.6c0,0,0,0,0,0l34.6-20.5c0,0,0,0,0,0
					l12,20.3c0,0,0,0,0,0l9.5-5.6c0,0,0,0,0,0L871.8,553.6z M833.1,565.7C833.1,565.7,833.1,565.7,833.1,565.7l-0.1-0.2c0,0,0,0,0,0
					l3.3-36.1c0,0,0,0,0,0l-0.3-14.7c0,0,0,0,0,0l0.3-0.2c0,0,0,0,0,0l6.6,11.9c0,0,0,0,0,0l14.7,24.9c0,0,0,0,0,0L833.1,565.7z"/>
			</g>
		</g>
		<g>
			<g>
				<path class="st0" d="M1059.1,520.1C1059.1,520.1,1059.1,520.1,1059.1,520.1l-10.8-6.6c0,0,0,0,0,0l-61.8,26.9c0,0,0,0,0,0
					l-4,6.6c0,0,0,0,0,0l34.3,21.1c0,0,0,0,0,0l-12.3,20.1c0,0,0,0,0,0l9.4,5.8c0,0,0,0,0,0l12.3-20.1c0,0,0,0,0,0l10.3,6.3
					c0,0,0,0,0,0l4.8-7.8c0,0,0,0,0,0l-10.3-6.3c0,0,0,0,0,0L1059.1,520.1z M1021.5,560.1C1021.5,560.1,1021.5,560.1,1021.5,560.1
					l-24.2-14.8c0,0,0,0,0,0l0.1-0.2c0,0,0,0,0,0l33.4-14c0,0,0,0,0,0l12.8-7.1c0,0,0,0,0,0l0.3,0.2c0,0,0,0,0,0l-7.4,11.4
					c0,0,0,0,0,0L1021.5,560.1z"/>
			</g>
		</g>
	</g>
	<g>
		<ellipse transform="matrix(0.7071 -0.7071 0.7071 0.7071 -105.0214 816.4238)" class="st1" cx="933" cy="535" rx="42" ry="42"/>
		<path class="st23" d="M891.3,529.8c12.5,1.8,33.4-7.1,40.2-8.4c13.7-2.7,27.7,0.5,41.6,1c-1-3-2.3-5.9-3.9-8.6
			c-5.1,0.2-10.5-0.7-15.7-0.8c-9.8-0.3-19.6,2.3-29.4,1.7c-4.5-0.3-14.7-4.2-24-5.8C895.4,514.6,892.3,521.8,891.3,529.8z"/>
		<path class="st23" d="M933,492.9c-4.3,0-8.4,0.6-12.3,1.8c5.3,3,15.8,4.1,18.3,4.4c4.4,0.6,9.2,0.8,13-1.5c0.1,0,0.1-0.1,0.2-0.1
			C946.4,494.6,939.9,492.9,933,492.9z"/>
		<path class="st23" d="M975,535.6c-12.1-3.1-24.9-3.3-37.1-0.6c-6.6,1.4-13.1,3.7-19.6,5.4c-8.3,2-16.8,3-25.4,3
			c-0.4,0-0.7,0-1.1,0c1.7,8.4,5.8,15.9,11.7,21.7c10.1-3.6,19.7-8.2,28.8-13.9c7.9-5,15.8-10.9,25.1-11.8c5.8-0.5,11.5,1,17.2,2.2
			C974.8,539.5,975,537.5,975,535.6z"/>
		<path class="st23" d="M972.8,548.5c-5.7-0.8-15.9,4.2-18.4,6.3c-2.2,1.9-4.1,4.2-6.5,5.8c-3.1,2.1-6.7,3-10.3,3.9
			c-7.2,1.9-14.4,3.9-21.6,6.2c-0.9,0.3-1.9,0.7-2.3,1.5c5.8,3,12.4,4.7,19.3,4.7c4.9,0,9.6-0.8,13.9-2.4c4.4-6.2,7-14.3,13.9-17.2
			c1.2-0.5,5.3-1.1,9-2C971,553.2,972,550.9,972.8,548.5z"/>
	</g>
	<path class="st23" d="M1058.5,660c-10.4-55.9-59.5-98.2-118.4-98.2c-58.9,0-107.9,42.3-118.4,98.2H1058.5z"/>
	<path class="st24" d="M962.2,630.8c-0.6,4.2-7.1,6.8-14.6,5.8c-7.5-1-13.1-5.2-12.6-9.4c0.6-4.2,7.1-6.8,14.6-5.8
		C957.1,622.4,962.8,626.6,962.2,630.8z"/>
	<g>
		<linearGradient id="SVGID_2_" gradientUnits="userSpaceOnUse" x1="836.7592" y1="463.3284" x2="867.8608" y2="463.3284">
			<stop  offset="0" style="stop-color:#00E576"/>
			<stop  offset="1" style="stop-color:#1B1464"/>
		</linearGradient>
		<circle class="st25" cx="852.3" cy="463.3" r="15.6"/>
		<path class="st26" d="M852.3,447.8c-2.8,0-5.4,0.7-7.6,2c0.1,0.2,0.2,0.4,0.4,0.5c1.6,1.6,5.3,1.7,7.4,1.8
			c3.1,0.1,6.1-0.3,9.1-1.2C859,448.9,855.8,447.8,852.3,447.8z"/>
		<path class="st26" d="M864.2,456.1c0.5-0.2,1-0.4,1.5-0.6c-0.4-0.7-0.8-1.3-1.3-2c-1.6,0.7-3.1,1.4-4.7,2.1
			c-1.2,0.5-2.4,1.1-3.7,1.4c-1.9,0.5-3.8,0.5-5.8,0.5c-4,0-8-0.4-12-0.9c-1,2-1.5,4.3-1.5,6.7c0,1.1,0.1,2.2,0.4,3.3
			c0.8-0.3,1.5-0.9,2.3-1.3c2-1.3,4.2-2,6.4-2.8C852,460.4,858.1,458.2,864.2,456.1z"/>
		<path class="st26" d="M866.6,457.2c-1.2,1.1-2.1,2.5-3.4,3.5c-1.4,1.1-2.9,2-4.6,2.6c-1.2,0.5-2.4,0.8-3.5,1.3
			c-0.4,0.2-0.8,0.5-0.9,0.9c-0.2,0.8,0.8,1.4,1.5,1.6c1.6,0.4,3.2,0.3,4.8,0.2c1.9-0.1,3.8-0.2,5.7-0.2c0.3,0,0.7,0,1-0.1
			c0.3-1.2,0.5-2.5,0.5-3.7C867.9,461.2,867.4,459.1,866.6,457.2z"/>
		<path class="st26" d="M852.7,462.9c-2.8,0.6-5.5,1.4-8,2.6c-1.7,0.8-3.4,1.7-5.2,2.3c-0.5,0.2-1.2,0.2-2,0.3
			c0.9,2.9,2.7,5.4,4.9,7.3c0.2-0.2,0.3-0.4,0.5-0.6c2.3-3.1,3.9-7,7.3-8.9c0.6-0.3,1.3-0.6,1.8-1.1
			C852.5,464.3,852.9,463.6,852.7,462.9z"/>
		<path class="st26" d="M866.4,470c-0.2,0-0.4,0-0.5,0c-3.3,0.2-6.6,0.4-10,0.6c-2.1,0.1-4.2,0.3-5.9,1.4c-1.3,0.9-2.2,2.3-3,3.6
			c-0.3,0.5-0.8,1.1-1.3,1.8c1.9,0.9,4,1.5,6.3,1.5c0.4-0.5,0.8-1.1,1.2-1.6c2.2-2.9,5.7-4.9,9.4-5.3c1-0.1,2-0.1,2.9-0.2
			C865.7,471.2,866.1,470.6,866.4,470z"/>
		<path class="st27" d="M866.6,469.5c0.4-0.9,0.7-1.9,0.9-2.9c-4,1.4-8.7,2.7-13.8,3.7c-5.1,1-10,1.6-14.3,1.7
			c0.6,0.8,1.2,1.6,1.9,2.3c3.9-0.2,8.3-0.8,12.8-1.7C858.6,471.8,862.9,470.7,866.6,469.5z"/>
		<g>
			<path class="st0" d="M837.1,473.3c-5.6,0-10.1-0.9-10.6-3.6c-0.5-2.5,2.8-5.1,9.8-7.8c0.6-0.2,1.3,0.1,1.6,0.7
				c0.2,0.6-0.1,1.3-0.7,1.6c-7.1,2.7-8.3,4.7-8.3,5c0.3,1.3,9,2.9,24.9-0.2c6.7-1.3,12.8-3.1,17.3-5c5.1-2.2,6-3.8,5.9-4.1
				c-0.1-0.4-2.1-1.8-10.1-1.6c-0.7,0-1.2-0.5-1.3-1.2c0-0.7,0.5-1.2,1.2-1.3c7.8-0.2,12,1,12.5,3.6c0.4,2.2-2,4.4-7.3,6.8
				c-4.6,2-11,3.9-17.8,5.2C849.6,472.3,842.8,473.3,837.1,473.3z"/>
		</g>
	</g>
	<g>
		<linearGradient id="SVGID_3_" gradientUnits="userSpaceOnUse" x1="1080.4279" y1="492.2971" x2="1105.4856" y2="492.2971">
			<stop  offset="0" style="stop-color:#00E576"/>
			<stop  offset="1" style="stop-color:#1B1464"/>
		</linearGradient>
		<circle class="st28" cx="1093" cy="492.3" r="12.5"/>
		<path class="st29" d="M1098.9,481.3c-2-1.1-4.1-1.5-6.2-1.5c0,0.2,0,0.3,0.1,0.5c0.5,1.7,3.1,3.2,4.6,4.1c2.1,1.3,4.4,2.2,6.9,2.6
			C1103.2,484.6,1101.4,482.6,1098.9,481.3z"/>
		<path class="st29" d="M1104.2,491.7c0.4,0.1,0.9,0.1,1.3,0.1c0-0.6-0.1-1.3-0.2-1.9c-1.4-0.1-2.7-0.2-4.1-0.3
			c-1.1-0.1-2.1-0.2-3.2-0.4c-1.5-0.4-2.9-1.1-4.3-1.9c-2.8-1.6-5.5-3.3-8.1-5.2c-1.5,1.1-2.7,2.4-3.6,4.1c-0.4,0.8-0.8,1.6-1,2.5
			c0.7,0.1,1.4,0,2.1-0.1c1.9-0.1,3.8,0.2,5.6,0.5C1093.9,490.1,1099,490.9,1104.2,491.7z"/>
		<path class="st29" d="M1105.4,493.4c-1.3,0.3-2.4,1-3.8,1.2c-1.4,0.2-2.8,0.3-4.2,0.1c-1-0.1-2-0.3-3-0.4c-0.4,0-0.8,0-1,0.3
			c-0.4,0.5,0,1.3,0.5,1.7c1,0.9,2.2,1.4,3.3,2c1.4,0.7,2.8,1.4,4.2,2c0.2,0.1,0.5,0.2,0.8,0.3c0.7-0.7,1.3-1.6,1.8-2.5
			C1104.8,496.7,1105.3,495.1,1105.4,493.4z"/>
		<path class="st29" d="M1093.4,492.2c-2.2-0.7-4.4-1.1-6.7-1.2c-1.5-0.1-3-0.1-4.5-0.4c-0.4-0.1-1-0.3-1.5-0.6
			c-0.5,2.4-0.2,4.9,0.7,7.1c0.2-0.1,0.4-0.2,0.6-0.2c2.8-1.3,5.4-3.5,8.6-3.5c0.6,0,1.1,0,1.7-0.1
			C1092.7,493.1,1093.3,492.7,1093.4,492.2z"/>
		<path class="st29" d="M1100.4,502.4c-0.1-0.1-0.2-0.2-0.4-0.2c-2.4-1.1-4.8-2.3-7.3-3.4c-1.5-0.7-3.1-1.4-4.8-1.3
			c-1.3,0.1-2.4,0.8-3.5,1.4c-0.4,0.2-1,0.5-1.6,0.8c1,1.4,2.3,2.6,3.9,3.5c0.5-0.2,1-0.5,1.4-0.7c2.7-1.2,5.9-1.3,8.7-0.2
			c0.7,0.3,1.4,0.7,2.2,1C1099.4,503,1099.9,502.7,1100.4,502.4z"/>
	</g>
	<path class="st23" d="M847.8,609.4l-15.9,30.2l-4.4-2.3c-2.3-1.2-3.2-4.1-2-6.5l11.4-21.7c1.2-2.3,4.1-3.2,6.5-2L847.8,609.4z"/>
	<path class="st23" d="M1047.4,638.9l-9.5-23.8l4.6-1.8c2.5-1,5.3,0.2,6.2,2.7l5.9,14.9c1,2.5-0.2,5.3-2.7,6.2L1047.4,638.9z"/>
	<path class="st23" d="M899.8,572.3l-27.7,19.9l-2.9-4c-1.5-2.2-1.1-5.2,1.1-6.7l19.9-14.3c2.2-1.5,5.2-1.1,6.7,1.1L899.8,572.3z"/>
	<path class="st23" d="M1025.5,605.3l-27.2-20.6l3-4c1.6-2.1,4.6-2.5,6.7-0.9l19.6,14.8c2.1,1.6,2.5,4.6,0.9,6.7L1025.5,605.3z"/>
	<g>
		
			<ellipse transform="matrix(0.8917 -0.4527 0.4527 0.8917 -176.5012 465.3486)" class="st24" cx="884" cy="601.5" rx="19.2" ry="8.5"/>
		<path class="st30" d="M881.4,597.5c8.5-4.3,17-5.1,20.2-2.2c0.1-0.9,0-1.8-0.4-2.6c-2.1-4.2-11.5-3.7-21,1.1
			c-9.5,4.8-15.4,12.1-13.3,16.3c0.2,0.4,0.5,0.8,0.8,1.1C868.3,607,873.7,601.4,881.4,597.5z"/>
	</g>
	<g>
		<path class="st24" d="M1016.9,607.2c-1.7,2.7-7.9,1.8-14-2c-6-3.8-9.6-9-7.9-11.7c1.7-2.7,7.9-1.8,14,2
			C1015,599.3,1018.6,604.6,1016.9,607.2z"/>
		<path class="st30" d="M1007.3,597.5c5.5,3.4,8.9,8,8.2,10.8c0.6-0.3,1-0.6,1.4-1.1c1.7-2.7-1.9-7.9-7.9-11.7c-6-3.8-12.3-4.7-14-2
			c-0.2,0.3-0.3,0.5-0.3,0.9C997.3,593.3,1002.4,594.4,1007.3,597.5z"/>
	</g>
	<path class="st30" d="M949.6,621.4c-7.5-1-14,1.6-14.6,5.8c0,0.3,0,0.6,0,0.9c1.6-3.4,7.5-5.4,14.2-4.5c7,0.9,12.3,4.6,12.6,8.5
		c0.2-0.4,0.4-0.9,0.4-1.4C962.8,626.6,957.1,622.4,949.6,621.4z"/>
	<circle class="st31" cx="763" cy="517.2" r="4"/>
	<path class="st31" d="M993.4,408.6c-1,0-1.8-0.8-1.8-1.8s0.8-1.8,1.8-1.8c1,0,1.8,0.8,1.8,1.8S994.3,408.6,993.4,408.6z"/>
	<circle class="st31" cx="1018.6" cy="439.9" r="1.8"/>
	<circle class="st31" cx="721.5" cy="497.7" r="1.8"/>
	<path class="st23" d="M975.8,471.1c0,1.3-1,2.3-2.3,2.3c-1.3,0-2.3-1-2.3-2.3s1-2.3,2.3-2.3C974.8,468.8,975.8,469.8,975.8,471.1z"
		/>
	<path class="st23" d="M1072,576.3c0,1.3-1,2.3-2.3,2.3s-2.3-1-2.3-2.3c0-1.3,1-2.3,2.3-2.3S1072,575,1072,576.3z"/>
	<path class="st23" d="M1139.6,580.1c0,1.3-1,2.3-2.3,2.3c-1.3,0-2.3-1-2.3-2.3c0-1.3,1-2.3,2.3-2.3
		C1138.5,577.8,1139.6,578.8,1139.6,580.1z"/>
	<path class="st23" d="M779.3,613.5c0,1.3-1,2.3-2.3,2.3c-1.3,0-2.3-1-2.3-2.3c0-1.3,1-2.3,2.3-2.3
		C778.3,611.2,779.3,612.2,779.3,613.5z"/>
	<path class="st23" d="M911.5,447.8c0,1.3-1,2.3-2.3,2.3c-1.3,0-2.3-1-2.3-2.3c0-1.3,1-2.3,2.3-2.3
		C910.5,445.5,911.5,446.5,911.5,447.8z"/>
	<polygon class="st23" points="883.7,503.4 886.8,505.2 883.7,506.8 881.9,509.8 880.3,506.7 877.2,505 880.4,503.3 882.1,500.3 	
		"/>
	<polygon class="st23" points="1027.5,471.3 1029.5,472.4 1027.5,473.5 1026.3,475.5 1025.3,473.5 1023.3,472.3 1025.3,471.3 
		1026.4,469.3 	"/>
	<polygon class="st23" points="792.3,566.9 794.3,568.1 792.3,569.1 791.1,571.1 790.1,569.1 788.1,568 790.1,566.9 791.2,564.9 	
		"/>
	<polygon class="st23" points="793.4,485.7 795.4,486.8 793.4,487.9 792.3,489.9 791.2,487.8 789.2,486.7 791.2,485.6 792.4,483.6 	
		"/>
	<polygon class="st23" points="732.5,606.9 734.5,608.1 732.5,609.1 731.3,611.1 730.3,609.1 728.3,608 730.3,606.9 731.4,604.9 	
		"/>
	<polygon class="st23" points="1094.6,550.7 1096.5,551.9 1094.5,552.9 1093.4,554.9 1092.3,552.9 1090.3,551.7 1092.3,550.7 
		1093.5,548.7 	"/>
	<polygon class="st23" points="1119.1,630.9 1121.1,632.1 1119.1,633.1 1118,635.1 1116.9,633.1 1114.9,632 1116.9,630.9 
		1118.1,628.9 	"/>
</g>
<text transform="matrix(1 0 0 1 731 330.9199)" class="st20 st32">error</text>
<text transform="matrix(1 0 0 1 700 759.9199)" class="st0 st33 st34">Page Not Found</text>
</svg>
