<?xml version="1.0" encoding="utf-8"?>
<!-- Generator: Adobe Illustrator 23.0.0, SVG Export Plug-In . SVG Version: 6.00 Build 0)  -->
<svg version="1.1" xmlns="http://www.w3.org/2000/svg" xmlns:xlink="http://www.w3.org/1999/xlink" x="0px" y="0px"
	 viewBox="0 0 405.3 405.3" style="enable-background:new 0 0 405.3 405.3;" xml:space="preserve">
<g id="BACKGROUND">
</g>
<g id="OBJECTS">
	<polygon id="XMLID_112_" style="fill:#080735;" points="141.2,391.6 -1,361.1 98.5,330.7 240.7,361.2 	"/>
	<path id="XMLID_129_" style="fill:#080735;" d="M289,392.6l-138.6-29.7l34.6-12.2l128,31.9l-15.4,9.8
		C295.4,393.2,291.3,393.1,289,392.6z"/>
	<g id="XMLID_81_">
		<g id="XMLID_32_">
			<g id="XMLID_30_">
				<g id="XMLID_35_" style="enable-background:new    ;">
					<g id="XMLID_66_" style="enable-background:new    ;">
						<defs>
							<path id="XMLID_74_" style="enable-background:new    ;" d="M243.4,69.7l15.8,5.4c-0.7-0.2-1.4-0.2-2.2,0l-15.8-5.4
								C242,69.4,242.7,69.4,243.4,69.7z"/>
						</defs>
						<clipPath id="XMLID_5_">
							<use xlink:href="#XMLID_74_"  style="overflow:visible;"/>
						</clipPath>
						<g id="XMLID_67_" style="clip-path:url(#XMLID_5_);enable-background:new    ;">
							<path id="XMLID_73_" style="fill:#5B5B5B;" d="M257,75.1l-15.8-5.4c0,0,0.1,0,0.1,0l15.8,5.4C257.1,75.1,257.1,75.1,257,75.1
								"/>
							<path id="XMLID_72_" style="fill:#585858;" d="M257.2,75l-15.8-5.4c0.2-0.1,0.4-0.1,0.6-0.1l15.8,5.4
								C257.6,74.9,257.4,75,257.2,75"/>
							<path id="XMLID_71_" style="fill:#565656;" d="M257.8,74.9l-15.8-5.4c0.2,0,0.3,0,0.5,0l15.8,5.4
								C258.1,74.9,258,74.9,257.8,74.9"/>
							<path id="XMLID_70_" style="fill:#535353;" d="M258.3,74.9l-15.8-5.4c0.2,0,0.3,0,0.5,0l15.8,5.4
								C258.6,74.9,258.5,74.9,258.3,74.9"/>
							<path id="XMLID_69_" style="fill:#515151;" d="M258.8,74.9l-15.8-5.4c0.2,0,0.3,0.1,0.4,0.1l15.8,5.4
								C259.1,75,258.9,75,258.8,74.9"/>
							<path id="XMLID_68_" style="fill:#4E4E4E;" d="M259.2,75.1l-15.8-5.4c0,0,0,0,0,0L259.2,75.1
								C259.2,75.1,259.2,75.1,259.2,75.1"/>
						</g>
					</g>
					<g id="XMLID_61_" style="enable-background:new    ;">
						<defs>
							<path id="XMLID_65_" style="enable-background:new    ;" d="M139.7,393.3l-15.8-5.4c-1.7-0.6-2.9-2.6-2.9-5.3l15.8,5.4
								C136.8,390.7,138,392.7,139.7,393.3z"/>
						</defs>
						<clipPath id="XMLID_6_">
							<use xlink:href="#XMLID_65_"  style="overflow:visible;"/>
						</clipPath>
						<g id="XMLID_62_" style="clip-path:url(#XMLID_6_);enable-background:new    ;">
							<path id="XMLID_64_" style="fill:#444444;" d="M139.7,393.3l-15.8-5.4c-1.6-0.6-2.8-2.4-2.9-4.9l15.8,5.4
								C137,390.9,138.1,392.7,139.7,393.3"/>
							<path id="XMLID_63_" style="fill:#464646;" d="M136.8,388.4l-15.8-5.4c0-0.1,0-0.3,0-0.4l15.8,5.4
								C136.8,388.1,136.8,388.2,136.8,388.4"/>
						</g>
					</g>
					<g id="XMLID_59_">
						<polygon id="XMLID_60_" points="142.2,111.6 126.4,106.2 241.2,69.7 257,75.1 						"/>
					</g>
					<g id="XMLID_57_">
						<polygon id="XMLID_58_" points="136.8,388 121,382.6 121.3,114.7 137.1,120.1 						"/>
					</g>
					<g id="XMLID_38_" style="enable-background:new    ;">
						<defs>
							<path id="XMLID_56_" style="enable-background:new    ;" d="M137.1,120.1l-15.8-5.4c0-3.8,2.3-7.6,5.1-8.5l15.8,5.4
								C139.4,112.5,137.1,116.4,137.1,120.1z"/>
						</defs>
						<use xlink:href="#XMLID_56_"  style="overflow:visible;"/>
						<clipPath id="XMLID_7_">
							<use xlink:href="#XMLID_56_"  style="overflow:visible;"/>
						</clipPath>
						<g id="XMLID_39_" style="clip-path:url(#XMLID_7_);enable-background:new    ;">
							<path id="XMLID_55_" d="M137.1,120.1l-15.8-5.4c0-0.2,0-0.4,0-0.6l15.8,5.4C137.1,119.8,137.1,120,137.1,120.1"/>
							<path id="XMLID_54_" d="M137.1,119.6l-15.8-5.4c0-0.3,0-0.5,0.1-0.8l15.8,5.4C137.2,119,137.1,119.3,137.1,119.6"/>
							<path id="XMLID_53_" d="M137.2,118.8l-15.8-5.4c0-0.2,0.1-0.5,0.1-0.7l15.8,5.4C137.3,118.3,137.2,118.5,137.2,118.8"/>
							<path id="XMLID_51_" d="M137.3,118.1l-15.8-5.4c0-0.2,0.1-0.4,0.2-0.7l15.8,5.4C137.4,117.6,137.4,117.9,137.3,118.1"/>
							<path id="XMLID_49_" d="M137.5,117.4l-15.8-5.4c0.1-0.2,0.1-0.4,0.2-0.7l15.8,5.4C137.6,117,137.6,117.2,137.5,117.4"/>
							<path id="XMLID_48_" d="M137.7,116.8l-15.8-5.4c0.1-0.2,0.2-0.4,0.3-0.7l15.8,5.4C137.9,116.3,137.8,116.5,137.7,116.8"/>
							<path id="XMLID_45_" d="M138,116.1l-15.8-5.4c0.1-0.2,0.2-0.5,0.3-0.7l15.8,5.4C138.2,115.6,138.1,115.9,138,116.1"/>
							<path id="XMLID_44_" d="M138.3,115.4l-15.8-5.4c0.1-0.3,0.3-0.5,0.4-0.8l15.8,5.4C138.5,114.9,138.4,115.1,138.3,115.4"/>
							<path id="XMLID_43_" d="M138.7,114.7l-15.8-5.4c0.2-0.3,0.4-0.6,0.7-0.9l15.8,5.4C139.1,114,138.9,114.3,138.7,114.7"/>
							<path id="XMLID_41_" d="M139.4,113.7l-15.8-5.4c0.6-0.8,1.4-1.4,2.2-1.8l15.8,5.4C140.7,112.3,140,112.9,139.4,113.7"/>
							<path id="XMLID_40_" d="M141.5,111.9l-15.8-5.4c0.2-0.1,0.5-0.2,0.7-0.3l15.8,5.4C142,111.7,141.8,111.8,141.5,111.9"/>
						</g>
					</g>
					<g id="XMLID_36_">
						<path id="XMLID_37_" style="fill:#6F6F6F;" d="M257,75.1c2.8-0.9,5.1,1.5,5.1,5.3l-0.3,267.8c0,3.8-2.3,7.6-5.1,8.5
							l-114.8,36.5c-2.8,0.9-5.1-1.5-5.1-5.3l0.3-267.8c0-3.8,2.3-7.6,5.1-8.5L257,75.1z"/>
					</g>
				</g>
			</g>
			<linearGradient id="XMLID_8_" gradientUnits="userSpaceOnUse" x1="146.0026" y1="124.5191" x2="253.7988" y2="336.0811">
				<stop  offset="0" style="stop-color:#00E576"/>
				<stop  offset="1" style="stop-color:#1B1464"/>
			</linearGradient>
			<polygon id="XMLID_31_" style="fill:url(#XMLID_8_);" points="252.4,336.8 147.4,368.3 147.4,123.8 252.4,92.3 			"/>
		</g>
	</g>
	<g id="XMLID_106_">
		<g>
			<path id="XMLID_52_" style="fill:#00E576;" d="M228.8,30.6c-0.9,0-1.9-0.4-2.6-1.1c-9.9-9.9-23.1-15.4-37.2-15.4
				c-14,0-27.3,5.5-37.2,15.4c-1.4,1.4-3.7,1.4-5.1,0s-1.4-3.7,0-5.1C158,13.1,173.1,6.9,189,6.9c16,0,31,6.2,42.3,17.5
				c1.4,1.4,1.4,3.7,0,5.1C230.7,30.3,229.7,30.6,228.8,30.6z"/>
			<path id="XMLID_50_" style="fill:#00E576;" d="M216.4,41.4c-0.9,0-1.9-0.4-2.6-1.1C207.2,33.7,198.4,30,189,30
				c-9.4,0-18.2,3.6-24.8,10.3c-1.4,1.4-3.7,1.4-5.1,0c-1.4-1.4-1.4-3.7,0-5.1c8-8,18.6-12.4,29.9-12.4c11.3,0,21.9,4.4,29.9,12.4
				c1.4,1.4,1.4,3.7,0,5.1C218.3,41,217.3,41.4,216.4,41.4z"/>
			<path id="XMLID_47_" style="fill:#00E576;" d="M204.7,56.5c-0.9,0-1.9-0.4-2.6-1.1C198.7,51.9,194,50,189,50
				c-5,0-9.6,1.9-13.1,5.4c-1.4,1.4-3.7,1.4-5.1,0c-1.4-1.4-1.4-3.7,0-5.1c4.9-4.9,11.4-7.6,18.3-7.6c6.9,0,13.4,2.7,18.3,7.6
				c1.4,1.4,1.4,3.7,0,5.1C206.6,56.1,205.7,56.5,204.7,56.5z"/>
			<circle id="XMLID_46_" style="fill:#00E576;" cx="189" cy="63.1" r="4.5"/>
		</g>
	</g>
	<g id="XMLID_133_">
		<path id="XMLID_136_" style="fill:#EDBA8F;" d="M257.8,218.7c0,0-5.3-4.3-6.6-5.5c-1.3-1.2-2-0.8-2.7-0.3
			c-0.6,0.5-0.8,0.1-1.7,0.3s-0.8,1.2-1.3,1.2c-0.5,0-2.8,1.1-5.3,2c-1.6,0.5-2.7,1-2,1.9s5.3-1.6,5.6-0.2c0.1,0.6,0.1,0.4-0.1,1.5
			s1.4,1.7,3.3,2c1.9,0.3,3.8,0.2,5.2,0.5c1.4,0.3,3.4,1.5,3.4,1.5l2.4-4.3"/>
		<g id="XMLID_128_">
			<polygon id="XMLID_130_" style="fill:#0C0B44;" points="299.1,217.7 275.4,230.4 257.2,217.3 251.1,226.5 270.7,241.7 283.6,242 
				299.1,237 			"/>
			<g id="XMLID_134_">
				<path id="XMLID_126_" style="fill:#141F26;" d="M288.3,379.5c0,0-16.8-3.3-17.7,0.2c-0.9,3.6,6.6,7.2,10.5,7.7
					c3.9,0.4,8.7,1.8,8.7,1.8l0.3,2.3l7.5,0.9l0.9-6.9L288.3,379.5z"/>
				<path id="XMLID_135_" style="fill:#141F26;" d="M304.6,370.1c0,0-14.6-3.1-15.4,0.5c-0.8,3.6,5.7,7.1,9.1,7.5
					c3.4,0.4,7.6,1.7,7.6,1.7l0.3,2.3l6.5,0.7l0.8-6.9L304.6,370.1z"/>
				<g id="XMLID_127_">
					<g id="XMLID_123_">
						<path id="XMLID_125_" style="fill:#273C4D;" d="M315.3,282.7c6.6,1.6,0.6,41.4,0.6,41.4l1.7,17c0.1,0.6,0.1,1.2,0,1.8l-2,34.3
							c0,0-9.9,1.7-13.8-4.1v-46.7l-1.5-8.3l-1.5,20.4c0,0,0.9,18.9,1.2,31.1c0.3,12.1-1.5,12.4-1.5,15.9c0,0.8-14.7,0.9-13.5-6.6
							c1.2-7.5-0.9-40-0.9-40s-2.4-14.9-3.6-27.1c-1.2-12.2-0.3-34.9-0.3-34.9l36.5,5.9"/>
						<g id="XMLID_131_">
							<g id="XMLID_185_">
								<g id="XMLID_186_">
									<path id="XMLID_187_" style="fill:#233645;" d="M290.7,379.5c1.2-7.5-0.9-40-0.9-40s-2.4-14.9-3.6-27.1
										c-1.1-11.5-0.4-32.1-0.3-34.6l-5.7-0.9c0,0-0.9,22.7,0.3,34.9c1.2,12.2,3.6,27.1,3.6,27.1s2.1,32.6,0.9,40
										c-0.9,5.8,7.7,7.1,11.6,7C293.3,384.9,290.2,383.1,290.7,379.5z"/>
								</g>
							</g>
						</g>
					</g>
					<g id="XMLID_122_">
						<g id="XMLID_117_">
							<path id="XMLID_115_" style="fill:#EDBA8F;" d="M283.8,183.5l0.5,18.7c0,1.7,1.5,3.2,3.3,3.4h0c1.7,0.2,3.2,1.6,3.3,3.3
								l-0.1,5.4l1.1,0c4.7,1.8,9-0.1,13.5-1.4l0,0l1.5-24.3L283.8,183.5"/>
							<path id="XMLID_118_" style="fill:#4B453F;" d="M282.2,177.2L282.2,177.2c-1,1.3-1.2,3.1-0.4,4.6l1,2
								c0.6,1.3,1.8,2.3,3.2,2.8l1.6,0.6c2.5,0.9,4.3,3.3,4.2,5.7l0,1c-0.1,1.7,0.4,3.5,1.4,5.1l0,0l0.7-2.8
								c0.3-1.1,1.3-1.7,2.5-1.6l0,0c1.2,0.1,2.3,1.1,2.5,2.3v0c0.3,1.8-0.3,3.5-1.6,4.6l-0.3,0.2l2.7,3.3c0.9,1.1,2.3,1.7,3.6,1.7
								l0,0c1.3,0,2.4-0.6,3-1.6l3.7-6c1.4-2.3,1.9-5,1.5-7.8l-0.4-2.7c-0.9-5.6-5.6-10.3-11.4-11.7L294,171c-4.3-1-4.8,4.1-9,4.6
								l0,0C283.9,175.8,282.9,176.3,282.2,177.2z"/>
						</g>
						<path id="XMLID_119_" style="fill:#4B453F;" d="M281.1,217l22.2-8.8c3.4-1.3,7.4-1.2,11,0.5l0,0c5.8,2.6,9,8.7,7.5,14.1
							l-4.8,17.1c-1.9,6.9-2.2,14.3-0.8,21.6l4.7,24.5v0c-8.5,8.1-21.5,10.7-34.2,6.9l-9.3-2.8l1.8-34.9L281.1,217z"/>
						<path id="XMLID_121_" style="fill:#1B1464;" d="M281.1,217l22.2-8.8c3.4-1.3,7.4-1.2,11,0.5l0,0c5.8,2.6,9,8.7,7.5,14.1
							l-0.9,63.2v0c-8.5,8.1-21.5,10.7-34.2,6.9l-9.3-2.8l1.8-34.9L281.1,217z"/>
						<path id="XMLID_162_" style="fill:#141F26;" d="M291,229.1l-9.9-12.1l-1.8,38l-1.8,34.9l9.3,2.8c1.1,0.3,2.2,0.6,3.3,0.8
							l-2.1-22.1c-0.6-6.2-0.5-12.5,0.2-18.5L291,229.1z"/>
						<path id="XMLID_120_" style="fill:#1B1464;" d="M292,232.1c-3.1,4.9-9.6,14.8-14,21.5c-2.4,3.7-8,4-11.8,0.7v0
							c-3-2.6-3.8-6.6-2-9.5l17-27.8l9.9,9.5C292.7,228.1,293.1,230.4,292,232.1z"/>
					</g>
				</g>
			</g>
		</g>
	</g>
	<g>
		<path style="fill:#FFFFFF;" d="M212.2,213.3l-22.9,8.8c-0.3,0.1-0.5,0.3-0.6,0.6l-4.2,12.9c-0.3,0.8,0.5,1.6,1.3,1.3l5.1-2
			c0.9-0.3,1.5-0.4,1.9-0.2c0.4,0.2,0.6,0.6,0.6,1.1c0,0.5-0.2,1-0.6,1.5c-0.4,0.5-1,0.9-1.9,1.3l-13.8,5.3
			c-0.9,0.3-1.5,0.4-1.9,0.2c-0.4-0.2-0.6-0.6-0.6-1.1c0-0.6,0.2-1.1,0.6-1.6c0.4-0.5,1-0.9,1.9-1.2l2.4-0.9
			c0.3-0.1,0.5-0.3,0.6-0.6l15.5-47.8c0.3-0.8-0.5-1.6-1.3-1.3l-8.9,3.4c-0.9,0.3-1.5,0.4-1.9,0.2c-0.4-0.2-0.6-0.6-0.6-1.1
			s0.2-1.1,0.6-1.6c0.4-0.5,1-0.9,1.9-1.2l17.7-6.8c0.5-0.2,1.1,0,1.3,0.5l17.2,39c0.2,0.5,0.8,0.7,1.3,0.5l1.9-0.7
			c0.9-0.3,1.5-0.4,1.9-0.2c0.4,0.2,0.6,0.6,0.6,1.1c0,0.5-0.2,1-0.6,1.5c-0.4,0.5-1,0.9-1.9,1.3l-13.8,5.3
			c-0.9,0.3-1.6,0.4-1.9,0.2c-0.4-0.2-0.6-0.6-0.6-1.1c0-0.6,0.2-1.1,0.6-1.6c0.4-0.5,1-0.9,1.9-1.2l6-2.3c0.5-0.2,0.8-0.8,0.6-1.4
			l-4.2-9.7C213.2,213.3,212.7,213.1,212.2,213.3z M211.2,208.8l-9.4-21.1c-0.2-0.5-0.8-0.7-1.3-0.5l0,0c-0.3,0.1-0.5,0.3-0.6,0.6
			l-9.1,28.1c-0.3,0.8,0.5,1.6,1.3,1.3l18.4-7.1C211.2,209.9,211.5,209.3,211.2,208.8z"/>
	</g>
</g>
<g id="DESIGN_BY_FREEPICK">
</g>
</svg>
