<?xml version="1.0" encoding="utf-8"?>
<!-- Generator: Adobe Illustrator 23.0.0, SVG Export Plug-In . SVG Version: 6.00 Build 0)  -->
<svg version="1.1" id="Ñëîé_1" xmlns="http://www.w3.org/2000/svg" xmlns:xlink="http://www.w3.org/1999/xlink" x="0px" y="0px"
	 viewBox="0 0 600 450" style="enable-background:new 0 0 600 450;" xml:space="preserve">
<style type="text/css">
	.st0{fill:#42FFFF;}
	.st1{fill:#88FFF3;}
	.st2{opacity:0.5;fill:#242993;enable-background:new    ;}
	.st3{fill:url(#SVGID_1_);}
	.st4{fill:url(#SVGID_2_);}
	.st5{fill:#242993;}
	.st6{fill:#4553C7;}
	.st7{fill:url(#SVGID_3_);}
	.st8{fill:url(#SVGID_4_);}
	.st9{fill:url(#SVGID_5_);}
	.st10{opacity:0.4;fill:#42FFFF;enable-background:new    ;}
	.st11{fill:url(#SVGID_6_);}
	.st12{fill:url(#SVGID_7_);}
	.st13{opacity:0.42;fill:url(#SVGID_8_);enable-background:new    ;}
	.st14{opacity:0.42;fill:url(#SVGID_9_);enable-background:new    ;}
	.st15{fill:url(#SVGID_10_);}
	.st16{fill:url(#SVGID_11_);}
	.st17{opacity:0.51;}
	.st18{fill:url(#SVGID_12_);}
	.st19{fill:url(#SVGID_13_);}
	.st20{fill:#2859CB;}
	.st21{fill:#ADC8FF;}
	.st22{fill:#91AFFF;}
	.st23{fill:#00E576;}
	.st24{fill:url(#SVGID_14_);}
	.st25{opacity:0.11;}
	.st26{clip-path:url(#SVGID_16_);}
	.st27{fill:url(#SVGID_17_);}
	.st28{fill:url(#SVGID_18_);}
	.st29{fill:url(#SVGID_19_);}
	.st30{fill:url(#SVGID_20_);}
	.st31{opacity:0.6;fill:#242993;enable-background:new    ;}
	.st32{opacity:0.8;fill:#4553C7;enable-background:new    ;}
	.st33{fill:url(#XMLID_18_);}
	.st34{fill:url(#XMLID_19_);}
	.st35{fill:url(#XMLID_20_);}
	.st36{fill:url(#XMLID_21_);}
	.st37{opacity:0.68;fill:url(#XMLID_22_);}
	.st38{fill:url(#XMLID_38_);}
	.st39{fill:url(#XMLID_39_);}
	.st40{fill:#58595B;}
	.st41{fill:#6D6E70;}
	.st42{opacity:0.76;}
	.st43{fill:url(#XMLID_40_);}
	.st44{fill:url(#XMLID_41_);}
	.st45{fill:url(#XMLID_42_);}
	.st46{fill:url(#XMLID_48_);}
	.st47{fill:url(#XMLID_76_);}
	.st48{fill:#3D3B96;}
	.st49{fill:url(#XMLID_77_);}
	.st50{fill:#72F2AF;}
	.st51{fill:#B7AA9A;}
	.st52{fill:#23216D;}
	.st53{fill:#1B1464;}
	.st54{fill:url(#XMLID_78_);}
	.st55{fill:#C4BAAB;}
	.st56{fill:url(#XMLID_79_);}
	.st57{fill:url(#XMLID_80_);}
	.st58{fill:url(#XMLID_81_);}
	.st59{opacity:0.5;enable-background:new    ;}
	.st60{fill:url(#XMLID_82_);}
	.st61{fill:#FFFFFF;}
	.st62{fill:#263343;}
	.st63{fill:#EDEDED;}
	.st64{fill:#BE6753;}
	.st65{fill:#DDDDDD;}
	.st66{opacity:0.76;fill:#00E576;}
	.st67{fill:#F7C1A3;}
	.st68{fill:#4EC5A2;}
	.st69{fill:#CAD2D9;}
	.st70{fill:#F5CEB0;}
	.st71{opacity:0.82;fill:#00E576;}
	.st72{fill:#33435A;}
	.st73{fill:#EEEEEE;}
	.st74{fill:url(#SVGID_21_);}
	.st75{opacity:0.5;fill:#EEEEEE;}
	.st76{fill:#184984;}
	.st77{opacity:0.3;fill:#184984;}
	.st78{fill:#00598D;}
	.st79{opacity:0.3;fill:#398496;}
	.st80{fill-rule:evenodd;clip-rule:evenodd;fill:#1B1464;}
	.st81{fill-rule:evenodd;clip-rule:evenodd;fill:#0C459B;}
	.st82{fill-rule:evenodd;clip-rule:evenodd;fill:#104087;}
	.st83{fill-rule:evenodd;clip-rule:evenodd;fill:#1955B0;}
	.st84{fill-rule:evenodd;clip-rule:evenodd;fill:#1858B8;}
	.st85{fill-rule:evenodd;clip-rule:evenodd;fill:#2872E0;}
	.st86{opacity:0.5;fill-rule:evenodd;clip-rule:evenodd;fill:#00337E;}
	.st87{fill-rule:evenodd;clip-rule:evenodd;fill:#204492;}
	.st88{fill-rule:evenodd;clip-rule:evenodd;fill:#2568CC;}
	.st89{fill-rule:evenodd;clip-rule:evenodd;fill:#031B40;}
	.st90{fill-rule:evenodd;clip-rule:evenodd;fill:#4981D6;}
	.st91{fill-rule:evenodd;clip-rule:evenodd;fill:#FFDBA7;}
	.st92{fill-rule:evenodd;clip-rule:evenodd;fill:#BFD8DB;}
	.st93{fill-rule:evenodd;clip-rule:evenodd;fill:#1F1C1D;}
	.st94{fill-rule:evenodd;clip-rule:evenodd;fill:#29343D;}
	.st95{fill-rule:evenodd;clip-rule:evenodd;fill:#44515C;}
	.st96{fill-rule:evenodd;clip-rule:evenodd;fill:#F0C17D;}
	.st97{fill-rule:evenodd;clip-rule:evenodd;fill:#632404;}
	.st98{fill-rule:evenodd;clip-rule:evenodd;fill:#4C5A66;}
	.st99{fill-rule:evenodd;clip-rule:evenodd;fill:#D8EBED;}
	.st100{fill-rule:evenodd;clip-rule:evenodd;fill:#163174;}
	.st101{fill-rule:evenodd;clip-rule:evenodd;fill:url(#SVGID_22_);}
	.st102{fill-rule:evenodd;clip-rule:evenodd;fill:url(#SVGID_23_);}
	.st103{fill-rule:evenodd;clip-rule:evenodd;fill:#06224F;}
	.st104{fill-rule:evenodd;clip-rule:evenodd;fill:#141313;}
	.st105{fill-rule:evenodd;clip-rule:evenodd;}
	.st106{fill-rule:evenodd;clip-rule:evenodd;fill:#032747;}
	.st107{fill-rule:evenodd;clip-rule:evenodd;fill:#C6DEF2;}
	.st108{fill-rule:evenodd;clip-rule:evenodd;fill:#05345E;}
	.st109{fill-rule:evenodd;clip-rule:evenodd;fill:#8CB2D4;}
	.st110{fill-rule:evenodd;clip-rule:evenodd;fill:#E3EFFA;}
	.st111{fill-rule:evenodd;clip-rule:evenodd;fill:#00E576;}
	.st112{fill-rule:evenodd;clip-rule:evenodd;fill:#FFF9F0;}
	.st113{fill-rule:evenodd;clip-rule:evenodd;fill:#E0AA5E;}
	.st114{fill-rule:evenodd;clip-rule:evenodd;fill:#CC964A;}
	.st115{fill-rule:evenodd;clip-rule:evenodd;fill:#084478;}
	.st116{fill-rule:evenodd;clip-rule:evenodd;fill:#FFFFFF;}
	.st117{fill:#1E1E1E;}
	.st118{fill:#003056;}
	.st119{fill:#06355A;}
	.st120{clip-path:url(#SVGID_25_);}
	.st121{fill:#F06060;}
	.st122{fill:none;stroke:#F8B7B7;stroke-miterlimit:10;}
	.st123{fill:#00E576;stroke:#00E576;stroke-miterlimit:10;}
	.st124{fill:none;stroke:#000000;stroke-width:2;stroke-miterlimit:10;}
	.st125{clip-path:url(#SVGID_29_);}
	.st126{clip-path:url(#SVGID_31_);}
	.st127{opacity:0.2;fill:url(#SVGID_34_);}
	.st128{fill:#475666;}
	.st129{fill:#FCC7A3;}
	.st130{fill:#FAA285;}
	.st131{fill:none;stroke:#DE7D68;stroke-width:2;stroke-linecap:round;stroke-linejoin:round;stroke-miterlimit:10;}
	.st132{fill:#383838;}
	.st133{fill:none;stroke:#475666;stroke-width:1.5;stroke-miterlimit:10;}
	.st134{fill:#3B4854;}
	.st135{clip-path:url(#SVGID_36_);fill:#475666;}
	.st136{fill:none;stroke:#596675;stroke-width:1.5;stroke-miterlimit:10;}
	.st137{fill:#F7F7F8;}
	.st138{fill:none;}
	.st139{opacity:0.69;fill:url(#SVGID_39_);}
	.st140{opacity:0.69;fill-rule:evenodd;clip-rule:evenodd;fill:url(#SVGID_40_);}
	.st141{fill:none;stroke:#FFFFFF;stroke-width:5;stroke-miterlimit:10;}
	.st142{fill:#9A999E;}
	.st143{fill:url(#SVGID_41_);}
	.st144{fill:url(#SVGID_42_);}
	.st145{fill:url(#SVGID_43_);}
	.st146{fill:url(#SVGID_44_);}
	.st147{fill:url(#SVGID_45_);}
	.st148{fill:url(#SVGID_46_);}
	.st149{fill:url(#SVGID_47_);}
	.st150{fill:url(#SVGID_48_);}
	.st151{fill:url(#SVGID_49_);}
	.st152{fill:url(#SVGID_50_);}
	.st153{opacity:0.96;fill:url(#paper_1_);enable-background:new    ;}
</style>
<g id="wirePath">
	<path class="st0" d="M116.7,266.1c-0.8,0-1.5-0.2-2.1-0.5l-63.2-36.5c-0.6-0.4-1-0.9-1-1.5c0-0.7,0.5-1.3,1.3-1.8l62.6-36.1
		c1.4-0.8,3.5-0.9,4.7-0.2l63.2,36.5c0.6,0.4,1,0.9,1,1.5c0,0.7-0.5,1.3-1.3,1.8l-62.6,36.1C118.6,265.9,117.6,266.1,116.7,266.1z
		 M115.1,264.8c0.9,0.5,2.7,0.5,3.8-0.2l62.6-36.1c0.5-0.3,0.8-0.6,0.8-1c0-0.3-0.3-0.5-0.5-0.6l-63.2-36.5
		c-0.9-0.5-2.7-0.5-3.8,0.2l-62.6,36.1c-0.5,0.3-0.8,0.6-0.8,1c0,0.3,0.3,0.5,0.5,0.6L115.1,264.8z"/>
	<path class="st0" d="M510.8,312.8c-0.7,0-1.5-0.1-2-0.5l-60.5-35c-0.6-0.4-0.9-0.9-0.9-1.4c0-0.6,0.5-1.3,1.2-1.7l60-34.6
		c1.4-0.8,3.3-0.9,4.5-0.2l60.5,35c0.6,0.4,0.9,0.9,0.9,1.4c0,0.6-0.5,1.3-1.2,1.7l-60,34.6C512.5,312.6,511.6,312.8,510.8,312.8z
		 M511,240c-0.7,0-1.5,0.2-2.1,0.5l-60,34.6c-0.5,0.3-0.8,0.6-0.8,0.9c0,0.3,0.3,0.5,0.5,0.6l60.5,35c0.9,0.5,2.5,0.4,3.6-0.2
		l60-34.6c0.5-0.3,0.8-0.6,0.8-0.9c0-0.3-0.3-0.5-0.5-0.6l-60.5-35C512.1,240.1,511.6,240,511,240z"/>
	<path class="st0" d="M416.6,411.3c-0.7,0-1.4-0.2-2-0.5l-35.5-20.5l0.5-0.8l35.5,20.5c0.9,0.5,2.1,0.5,3,0l158.4-91.5
		c0.2-0.1,0.3-0.4,0.3-0.6s-0.1-0.5-0.3-0.6l-36.2-20.9l0.5-0.8l36.3,20.9c0.5,0.3,0.8,0.8,0.8,1.4c0,0.6-0.3,1.1-0.8,1.4
		l-158.4,91.5C418,411.1,417.3,411.3,416.6,411.3z"/>
	<path class="st0" d="M116.8,333.5c-0.9,0-1.8-0.2-2.5-0.7L28.1,283c-0.5-0.3-0.7-0.8-0.8-1.3c0-0.5,0.3-1,0.7-1.3l56.8-32.8
		l0.5,0.8l-56.8,32.8c-0.3,0.1-0.3,0.4-0.3,0.5s0,0.3,0.3,0.5l86.2,49.7c1.3,0.7,2.8,0.7,4.1,0l17.4-10l0.5,0.8l-17.4,10
		C118.6,333.2,117.7,333.5,116.8,333.5z"/>
	<path class="st1" d="M187.9,200.3L156.1,182l31.8-18.3l31.8,18.3L187.9,200.3z M157.9,182l30,17.3l30-17.3l-30-17.3L157.9,182z"/>
	<path class="st1" d="M94.7,399.2l-31.8-18.3l31.8-18.3l31.8,18.3L94.7,399.2z M64.7,380.9l30,17.3l30-17.3l-30-17.3L64.7,380.9z"/>
	<animate attributeType="CSS" attributeName="stroke"
					 from="#00e576" to="#07b762" dur="3s" repeatCount="indefinite" />
  <animate attributeType="CSS" attributeName="opacity"
				 					 from="1" to=".5" dur="5s" repeatCount="indefinite" />
</g>
<g id="PlateBox">
	<path class="st2" d="M115.5,253.3l-43.2-24.9c-0.7-0.4-0.7-1.2,0.2-1.7l42.8-24.7c0.8-0.5,2.1-0.6,2.9-0.1l43.2,24.9
		c0.7,0.4,0.6,1.2-0.2,1.7l-42.8,24.7C117.5,253.7,116.2,253.8,115.5,253.3z"/>

		<linearGradient id="SVGID_1_" gradientUnits="userSpaceOnUse" x1="142.6125" y1="264.6869" x2="72.4347" y2="208.4121" gradientTransform="matrix(1 0 0 -1 0 450)">
		<stop  offset="0" style="stop-color:#BCD5FF"/>
		<stop  offset="0.151" style="stop-color:#A3BEFF"/>
		<stop  offset="0.3866" style="stop-color:#82A0FF"/>
		<stop  offset="0.6124" style="stop-color:#6A8AFF"/>
		<stop  offset="0.8221" style="stop-color:#5C7DFF"/>
		<stop  offset="1" style="stop-color:#5778FF"/>
	</linearGradient>
	<path class="st3" d="M161.9,209.9v-8.3l-13.6,0l-30.1-17.4c-0.7-0.4-2-0.4-2.9,0.1l-30,17.3l-13.5,0v8.4h0c0,0.3,0.2,0.5,0.5,0.7
		l43.2,24.9c0.7,0.4,2,0.4,2.9-0.1l42.8-24.7C161.6,210.6,161.8,210.3,161.9,209.9z"/>

		<linearGradient id="SVGID_2_" gradientUnits="userSpaceOnUse" x1="-127.3729" y1="-313.4869" x2="-191.1661" y2="-364.6419" gradientTransform="matrix(0.866 0.5 1 -0.5774 579.6664 85.163)">
		<stop  offset="0" style="stop-color:#C0D6FF"/>
		<stop  offset="0.2978" style="stop-color:#C5DBFF"/>
		<stop  offset="0.6488" style="stop-color:#D3E9FF"/>
		<stop  offset="1" style="stop-color:#E9FFFF"/>
	</linearGradient>
	<path class="st4" d="M115.5,227.3l-43.2-24.9c-0.7-0.4-0.7-1.2,0.2-1.7l42.8-24.7c0.8-0.5,2.1-0.6,2.9-0.1l43.2,24.9
		c0.7,0.4,0.6,1.2-0.2,1.7l-42.8,24.7C117.5,227.7,116.2,227.8,115.5,227.3z"/>
	<path class="st5" d="M115.6,224.4l-38.3-22.1c-0.7-0.4-0.6-1,0.2-1.5l37.9-21.9c0.8-0.4,1.9-0.5,2.6-0.1l38.3,22.1
		c0.6,0.4,0.6,1-0.2,1.5l-37.9,21.9C117.4,224.7,116.3,224.8,115.6,224.4z"/>
</g>
<g id="plate">
	<path class="st6" d="M115.7,222.6l-35.2-20.3c-0.6-0.4-0.5-0.9,0.2-1.4l34.8-20.1c0.7-0.4,1.8-0.4,2.3-0.1l35.2,20.3
		c0.6,0.4,0.5,0.9-0.2,1.4l-34.8,20.1C117.4,222.9,116.3,222.9,115.7,222.6z"/>
	<g>
		<polygon class="st0" points="116,200.3 111.9,197.9 114.2,196.6 118.3,199 		"/>
		<polygon class="st0" points="123.7,200 119.6,202.3 117.3,201 121.4,198.7 		"/>
		<polygon class="st0" points="115.1,200.8 112.8,202.1 110.6,200.8 112.8,199.5 		"/>
		<polygon class="st0" points="122.8,205.3 120.6,206.6 114.1,202.9 116.4,201.6 		"/>
	</g>
	<animate attributeType="CSS" attributeName="opacity"
					 from="1" to="0" dur="1s" repeatCount="indefinite" />
</g>
<g>
	<path class="st2" d="M509.5,301.6l-43.2-24.9c-0.7-0.4-0.6-1.2,0.2-1.7l42.8-24.7c0.9-0.5,2.1-0.6,2.9-0.1l43.2,24.9
		c0.7,0.4,0.7,1.2-0.2,1.7l-42.8,24.7C511.6,302,510.3,302.1,509.5,301.6z"/>
	<g>

			<linearGradient id="SVGID_3_" gradientUnits="userSpaceOnUse" x1="536.6517" y1="215.2493" x2="466.474" y2="158.9747" gradientTransform="matrix(1 0 0 -1 0 450)">
			<stop  offset="0" style="stop-color:#BCD5FF"/>
			<stop  offset="0.151" style="stop-color:#A3BEFF"/>
			<stop  offset="0.3866" style="stop-color:#82A0FF"/>
			<stop  offset="0.6124" style="stop-color:#6A8AFF"/>
			<stop  offset="0.8221" style="stop-color:#5C7DFF"/>
			<stop  offset="1" style="stop-color:#5778FF"/>
		</linearGradient>
		<path class="st7" d="M555.9,259.4v-8.3l-13.6,0l-30.1-17.4c-0.7-0.4-2-0.4-2.9,0.1l-30,17.3l-13.5,0v8.4h0c0,0.3,0.2,0.5,0.5,0.7
			l43.2,24.9c0.7,0.4,2,0.4,2.9-0.1l42.8-24.7C555.6,260,555.9,259.7,555.9,259.4z"/>

			<linearGradient id="SVGID_4_" gradientUnits="userSpaceOnUse" x1="149.5696" y1="-159.2799" x2="85.7764" y2="-210.4349" gradientTransform="matrix(0.866 0.5 1 -0.5774 579.6664 85.163)">
			<stop  offset="0" style="stop-color:#C0D6FF"/>
			<stop  offset="0.2978" style="stop-color:#C5DBFF"/>
			<stop  offset="0.6488" style="stop-color:#D3E9FF"/>
			<stop  offset="1" style="stop-color:#E9FFFF"/>
		</linearGradient>
		<path class="st8" d="M509.5,276.8l-43.2-24.9c-0.7-0.4-0.6-1.2,0.2-1.7l42.8-24.7c0.9-0.5,2.1-0.6,2.9-0.1l43.2,24.9
			c0.7,0.4,0.7,1.2-0.2,1.7l-42.8,24.7C511.6,277.1,510.3,277.2,509.5,276.8z"/>

			<linearGradient id="SVGID_5_" gradientUnits="userSpaceOnUse" x1="149.5696" y1="-159.2799" x2="85.7764" y2="-210.4349" gradientTransform="matrix(0.866 0.5 1 -0.5774 579.6664 85.163)">
			<stop  offset="0" style="stop-color:#C0D6FF"/>
			<stop  offset="0.2978" style="stop-color:#C5DBFF"/>
			<stop  offset="0.6488" style="stop-color:#D3E9FF"/>
			<stop  offset="1" style="stop-color:#E9FFFF"/>
		</linearGradient>
		<path class="st9" d="M509.5,276.8l-43.2-24.9c-0.7-0.4-0.6-1.2,0.2-1.7l42.8-24.7c0.9-0.5,2.1-0.6,2.9-0.1l43.2,24.9
			c0.7,0.4,0.7,1.2-0.2,1.7l-42.8,24.7C511.6,277.1,510.3,277.2,509.5,276.8z"/>
		<path class="st5" d="M509.7,273.8l-38.3-22.1c-0.6-0.4-0.6-1,0.2-1.5l37.9-21.9c0.8-0.4,1.9-0.5,2.6-0.1l38.3,22.1
			c0.7,0.4,0.6,1-0.2,1.5l-37.9,21.9C511.5,274.2,510.3,274.2,509.7,273.8z"/>
		<path class="st6" d="M509.8,272l-35.2-20.3c-0.6-0.4-0.5-0.9,0.2-1.4l34.8-20.1c0.7-0.4,1.8-0.4,2.4-0.1l35.2,20.3
			c0.6,0.4,0.5,0.9-0.2,1.4l-34.8,20.1C511.4,272.3,510.4,272.3,509.8,272z"/>
		<g>
			<polygon class="st0" points="510.1,249.7 505.9,247.4 508.2,246.1 512.3,248.4 			"/>
			<polygon class="st0" points="517.7,249.4 513.6,251.8 511.3,250.5 515.5,248.1 			"/>
			<polygon class="st0" points="509.1,250.3 506.9,251.6 504.6,250.3 506.9,249 			"/>
			<polygon class="st0" points="516.9,254.8 514.6,256 508.2,252.3 510.4,251 			"/>
		</g>
	</g>
	<path class="st10" d="M555.9,239.9l-18.4,0.1l-25.3-14.6c-0.7-0.4-2-0.4-2.9,0.1l-25.7,14.8l-17.8,0.1v10.8l0,0
		c0,0.2,0.2,0.4,0.5,0.6l43.2,24.9c0.7,0.4,2,0.4,2.9-0.1l42.8-24.7c0.4-0.2,0.6-0.5,0.7-0.8l0,0L555.9,239.9L555.9,239.9z"/>

		<linearGradient id="SVGID_6_" gradientUnits="userSpaceOnUse" x1="536.6531" y1="233.7109" x2="466.4753" y2="177.4364" gradientTransform="matrix(1 0 0 -1 0 450)">
		<stop  offset="0" style="stop-color:#BCD5FF"/>
		<stop  offset="0.151" style="stop-color:#A3BEFF"/>
		<stop  offset="0.3866" style="stop-color:#82A0FF"/>
		<stop  offset="0.6124" style="stop-color:#6A8AFF"/>
		<stop  offset="0.8221" style="stop-color:#5C7DFF"/>
		<stop  offset="1" style="stop-color:#5778FF"/>
	</linearGradient>
	<path class="st11" d="M555.9,240.9v-8.3l-13.6,0l-30.1-17.4c-0.7-0.4-2-0.4-2.9,0.1l-30,17.3l-13.5,0v8.4h0c0,0.3,0.2,0.5,0.5,0.7
		l43.2,24.9c0.7,0.4,2,0.4,2.9-0.1l42.8-24.7C555.6,241.6,555.9,241.2,555.9,240.9z"/>

		<linearGradient id="SVGID_7_" gradientUnits="userSpaceOnUse" x1="131.1095" y1="-143.2944" x2="67.3163" y2="-194.4494" gradientTransform="matrix(0.866 0.5 1 -0.5774 579.6664 85.163)">
		<stop  offset="0" style="stop-color:#C0D6FF"/>
		<stop  offset="0.2978" style="stop-color:#C5DBFF"/>
		<stop  offset="0.6488" style="stop-color:#D3E9FF"/>
		<stop  offset="1" style="stop-color:#E9FFFF"/>
	</linearGradient>
	<path class="st12" d="M509.5,258.3l-43.2-24.9c-0.7-0.4-0.6-1.2,0.2-1.7l42.8-24.7c0.9-0.5,2.1-0.6,2.9-0.1l43.2,24.9
		c0.7,0.4,0.7,1.2-0.2,1.7l-42.8,24.7C511.6,258.7,510.3,258.7,509.5,258.3z"/>
</g>
<path class="st5" d="M509.7,255.4l-38.3-22.1c-0.6-0.4-0.6-1,0.2-1.5l37.9-21.9c0.8-0.4,1.9-0.5,2.6-0.1l38.3,22.1
	c0.7,0.4,0.6,1-0.2,1.5l-37.9,21.9C511.5,255.7,510.3,255.8,509.7,255.4z"/>
<g id="plate2">
	<path class="st6" d="M509.8,253.5l-35.2-20.3c-0.6-0.4-0.5-0.9,0.2-1.4l34.8-20.1c0.7-0.4,1.8-0.4,2.4-0.1l35.2,20.3
		c0.6,0.4,0.5,0.9-0.2,1.4l-34.8,20.1C511.4,253.8,510.4,253.9,509.8,253.5z"/>
	<g>
		<polygon class="st0" points="510.1,231.3 505.9,228.9 508.2,227.6 512.3,230 		"/>
		<polygon class="st0" points="517.7,230.9 513.6,233.3 511.3,232 515.5,229.6 		"/>
		<polygon class="st0" points="509.1,231.8 506.9,233.1 504.6,231.8 506.9,230.5 		"/>
		<polygon class="st0" points="516.9,236.3 514.6,237.6 508.2,233.8 510.4,232.6 		"/>
	</g>
	<animate attributeType="CSS" attributeName="opacity"
					 from="1" to="0" dur="1s" repeatCount="indefinite" />
</g>
<radialGradient id="SVGID_8_" cx="-1091.5886" cy="176.8" r="86.9652" gradientTransform="matrix(-1 0 0 -1 -749.2388 450)" gradientUnits="userSpaceOnUse">
	<stop  offset="0" style="stop-color:#2B3AA5"/>
	<stop  offset="1" style="stop-color:#182484"/>
</radialGradient>
<polygon class="st13" points="330.1,311.1 369.8,286.7 280.7,235.3 238.6,263.5 "/>
<radialGradient id="SVGID_9_" cx="-1110.609" cy="215.92" r="66.5671" gradientTransform="matrix(-1 0 0 -1 -749.2388 450)" gradientUnits="userSpaceOnUse">
	<stop  offset="0" style="stop-color:#2B3AA5"/>
	<stop  offset="1" style="stop-color:#182484"/>
</radialGradient>
<polygon class="st14" points="369.8,286.7 378.9,229.4 295.3,181.4 295.3,243.6 "/>
<g id="laptop">
	<g>
		<g>
			<g>
				<g>

						<linearGradient id="SVGID_10_" gradientUnits="userSpaceOnUse" x1="-1208.6882" y1="255.4335" x2="-994.0093" y2="255.4335" gradientTransform="matrix(-1 0 0 -1 -749.2388 450)">
						<stop  offset="0" style="stop-color:#C0D6FF"/>
						<stop  offset="0.2978" style="stop-color:#C5DBFF"/>
						<stop  offset="0.6488" style="stop-color:#D3E9FF"/>
						<stop  offset="1" style="stop-color:#E9FFFF"/>
					</linearGradient>
					<path class="st15" d="M244.8,207.9L268.1,70l-1.9-0.8l2.8-1.6v0c0.5-0.4,1.3-0.3,2.2,0.2L457,175c1.5,0.9,2.7,3.1,2.4,4.7
						L436,318.8c-0.1,0.7-0.5,1.2-1,1.4l0,0l-2.8,1.6l-0.5-2.6l0.2,0L247.2,212.6C245.7,211.8,244.5,209.5,244.8,207.9z"/>

						<linearGradient id="SVGID_11_" gradientUnits="userSpaceOnUse" x1="-1208.7172" y1="200.38" x2="-1171.8488" y2="200.38" gradientTransform="matrix(-1 0 0 -1 -749.2388 450)">
						<stop  offset="0" style="stop-color:#5778FF"/>
						<stop  offset="0.1779" style="stop-color:#5C7DFF"/>
						<stop  offset="0.3876" style="stop-color:#6A8AFF"/>
						<stop  offset="0.6134" style="stop-color:#82A0FF"/>
						<stop  offset="0.849" style="stop-color:#A3BEFF"/>
						<stop  offset="1" style="stop-color:#BCD5FF"/>
					</linearGradient>
					<path class="st16" d="M456,178.8l3.1-1.4c0.3,0.8,0.5,1.6,0.4,2.3L436,318.8c-0.1,0.7-0.5,1.2-1,1.4l0,0l-2.8,1.6l-0.5-2.6
						l0.2,0l-9.4-5.4L456,178.8z"/>
					<path class="st5" d="M244.3,214.3l185.8,107.3c1.4,0.8,2.7,0.4,2.9-1.1l23.4-139.1c0.3-1.6-0.9-3.8-2.4-4.7L268.3,69.4
						c-1.4-0.8-2.7-0.3-2.9,1.1l-23.4,139C241.6,211.2,242.8,213.4,244.3,214.3z"/>
					<g class="st17">
						<polygon class="st6" points="270.7,78.3 449.8,181.7 427.6,312.6 248.6,209.3 						"/>
					</g>
				</g>
				<g>
					<path class="st2" d="M129.1,308.4L313,414.5c2,1.2,5.1,1.3,6.8,0.3l109.8-63.4c1.7-1,1.5-2.8-0.5-3.9L245.2,241.3
						c-2-1.2-5.1-1.3-6.8-0.3l-109.8,63.4C126.8,305.4,127.1,307.2,129.1,308.4z"/>
					<path class="st0" d="M316.4,425.3c-1.6,0-3.3-0.4-4.6-1.2L112.6,309c-1.4-0.8-2.1-1.9-2.1-3c0-0.9,0.6-1.8,1.6-2.4l125.7-72.6
						c2.2-1.3,5.8-1.1,8.3,0.3l199.2,115.1c1.4,0.8,2.1,1.9,2.1,3c0,0.9-0.6,1.8-1.6,2.4L320,424.4
						C319.1,425,317.8,425.3,316.4,425.3z M241.4,231.2c-1.2,0-2.3,0.2-3.1,0.7l-125.7,72.6c-0.7,0.4-1.1,1-1.1,1.5
						c0,0.8,0.6,1.5,1.7,2.1l199.2,115c2.2,1.3,5.5,1.4,7.3,0.3L445.3,351c0.7-0.4,1.1-1,1.1-1.5c0-0.7-0.6-1.5-1.7-2.1L245.6,232.3
						C244.4,231.6,242.8,231.2,241.4,231.2z"/>

						<linearGradient id="SVGID_12_" gradientUnits="userSpaceOnUse" x1="-1179.9487" y1="138.4845" x2="-876.7588" y2="138.4845" gradientTransform="matrix(-1 0 0 -1 -749.2388 450)">
						<stop  offset="0" style="stop-color:#5778FF"/>
						<stop  offset="0.1779" style="stop-color:#5C7DFF"/>
						<stop  offset="0.3876" style="stop-color:#6A8AFF"/>
						<stop  offset="0.6134" style="stop-color:#82A0FF"/>
						<stop  offset="0.849" style="stop-color:#A3BEFF"/>
						<stop  offset="1" style="stop-color:#BCD5FF"/>
					</linearGradient>
					<path class="st18" d="M127.5,280.1l10.1,5.3l101.7-58.7c1.7-1,4.7-0.9,6.6,0.3l175.4,101.3c1.7-0.9,9.3-4.6,9.3-4.6l-3.7,9.7
						l0,0c-0.1,0.4-0.5,0.8-1,1.1l-107.1,61.8c-1.7,1-4.7,0.9-6.6-0.3L132.7,292.4c-0.8-0.5-1.3-1-1.5-1.6l0,0L127.5,280.1z"/>

						<linearGradient id="SVGID_13_" gradientUnits="userSpaceOnUse" x1="-1078.0765" y1="148.61" x2="-774.7181" y2="148.61" gradientTransform="matrix(-1 0 0 -1 -749.2388 450)">
						<stop  offset="0" style="stop-color:#C0D6FF"/>
						<stop  offset="0.2978" style="stop-color:#C5DBFF"/>
						<stop  offset="0.6488" style="stop-color:#D3E9FF"/>
						<stop  offset="1" style="stop-color:#E9FFFF"/>
					</linearGradient>
					<path class="st19" d="M129.1,281.8L313,388c2,1.2,5.1,1.3,6.8,0.3l109.8-63.4c1.7-1,1.5-2.8-0.5-3.9L245.2,214.8
						c-2-1.2-5.1-1.3-6.8-0.3l-109.8,63.4C126.8,278.9,127.1,280.6,129.1,281.8z"/>
					<path class="st20" d="M369,365v-2.1c0-0.2-0.1-0.3-0.3-0.2l-7.5,4.3c-0.1,0.1-0.3,0.3-0.3,0.5v2.1c0,0.2,0.1,0.3,0.3,0.2
						l7.5-4.3C368.9,365.4,369,365.2,369,365z"/>
					<path class="st20" d="M358,371.1V369c0-0.2-0.1-0.3-0.3-0.2l-7.5,4.3c-0.1,0.1-0.3,0.3-0.3,0.5v2.1c0,0.2,0.1,0.3,0.3,0.2
						l7.5-4.3C357.9,371.6,358,371.3,358,371.1z"/>
					<path class="st21" d="M401,319l-152.9-88.3c-1-0.6-2.3-0.6-3.3,0l-54.4,31.5c-0.8,0.5-0.8,1.6,0,2l152.8,88.2
						c1,0.6,2.3,0.6,3.3,0L401,321C401.8,320.6,401.8,319.4,401,319z"/>
					<path class="st22" d="M401,321l-0.5,0.3l-152.3-87.9c-1-0.6-2.3-0.6-3.3,0L191,264.6l-0.6-0.3c-0.8-0.5-0.8-1.6,0-2l54.4-31.5
						c1-0.6,2.3-0.6,3.3,0L401,319C401.8,319.4,401.8,320.6,401,321z"/>
					<g>
						<polygon class="st23" points="240.7,238.7 373.5,315.4 379.4,312 246.6,235.3 						"/>
						<polygon class="st23" points="226.3,247.1 350.8,319 356.7,315.5 232.1,243.6 						"/>
						<polygon class="st23" points="216.8,252.5 363.5,337.2 369.4,333.8 222.7,249.1 						"/>
						<polygon class="st23" points="207.4,257.9 354,342.6 359.9,339.2 213.3,254.5 						"/>
						<polygon class="st23" points="198,263.4 344.6,348 350.5,344.6 203.9,260 						"/>
						<polygon class="st23" points="381.5,320 387.4,323.4 393.3,320 387.4,316.6 						"/>
						<polygon class="st23" points="360.7,324.7 373,331.8 378.9,328.4 366.6,321.3 						"/>
					</g>

						<linearGradient id="SVGID_14_" gradientUnits="userSpaceOnUse" x1="-1026.6963" y1="131.39" x2="-949.0513" y2="131.39" gradientTransform="matrix(-1 0 0 -1 -749.2388 450)">
						<stop  offset="0" style="stop-color:#C0D6FF"/>
						<stop  offset="0.2978" style="stop-color:#C5DBFF"/>
						<stop  offset="0.6488" style="stop-color:#D3E9FF"/>
						<stop  offset="1" style="stop-color:#E9FFFF"/>
					</linearGradient>
					<path class="st24" d="M242.2,340.3L201,316.5c-1.6-0.9-1.6-2.4,0-3.4l28.2-16.3c1.6-0.9,4.2-0.9,5.8,0l41.2,23.8
						c1.6,0.9,1.6,2.4,0,3.4l-28.2,16.3C246.5,341.3,243.9,341.3,242.2,340.3z"/>
					<path class="st22" d="M276.3,322.1L235,298.3c-1.6-0.9-4.2-0.9-5.8,0L201,314.5c-0.5,0.3-0.8,0.6-1,1c-0.4-0.8-0.1-1.7,1-2.4
						l28.2-16.3c1.6-0.9,4.2-0.9,5.8,0l41.2,23.8c1.1,0.6,1.4,1.6,1,2.4C277.1,322.7,276.8,322.4,276.3,322.1z"/>
				</g>
			</g>
			<g class="st25">
				<g>
					<defs>
						<polygon id="SVGID_15_" points="270.7,78.3 449.8,181.7 427.6,312.6 248.6,209.3 						"/>
					</defs>
					<clipPath id="SVGID_16_">
						<use xlink:href="#SVGID_15_"  style="overflow:visible;"/>
					</clipPath>
					<g class="st26">

							<linearGradient id="SVGID_17_" gradientUnits="userSpaceOnUse" x1="-1193.9762" y1="215.85" x2="-890.6302" y2="215.85" gradientTransform="matrix(-1 0 0 -1 -749.2388 450)">
							<stop  offset="0" style="stop-color:#C0D6FF"/>
							<stop  offset="0.2978" style="stop-color:#C5DBFF"/>
							<stop  offset="0.6488" style="stop-color:#D3E9FF"/>
							<stop  offset="1" style="stop-color:#E9FFFF"/>
						</linearGradient>
						<path class="st27" d="M245,214.6l183.9,106.2c2,1.2,5.1,1.3,6.8,0.3l109.8-63.4c1.7-1,1.5-2.8-0.5-3.9L361.1,147.5
							c-2-1.2-5.1-1.3-6.8-0.3l-109.8,63.4C242.8,211.6,243,213.4,245,214.6z"/>

							<linearGradient id="SVGID_18_" gradientUnits="userSpaceOnUse" x1="-1213.9363" y1="238.12" x2="-1136.2913" y2="238.12" gradientTransform="matrix(-1 0 0 -1 -749.2388 450)">
							<stop  offset="0" style="stop-color:#C0D6FF"/>
							<stop  offset="0.2978" style="stop-color:#C5DBFF"/>
							<stop  offset="0.6488" style="stop-color:#D3E9FF"/>
							<stop  offset="1" style="stop-color:#E9FFFF"/>
						</linearGradient>
						<path class="st28" d="M429.5,233.6l-41.2-23.8c-1.6-0.9-1.6-2.4,0-3.4l28.2-16.3c1.6-0.9,4.2-0.9,5.8,0l41.2,23.8
							c1.6,0.9,1.6,2.4,0,3.4l-28.2,16.3C433.7,234.5,431.1,234.5,429.5,233.6z"/>
						<path class="st22" d="M463.5,215.3l-41.2-23.8c-1.6-0.9-4.2-0.9-5.8,0l-28.2,16.3c-0.5,0.3-0.8,0.6-1,1
							c-0.4-0.8-0.1-1.7,1-2.4l28.2-16.3c1.6-0.9,4.2-0.9,5.8,0l41.2,23.8c1.1,0.6,1.4,1.6,1,2.4C464.3,216,464,215.6,463.5,215.3z"
							/>
						<g>
							<path class="st21" d="M481.6,270.8l-152.9-88.3c-1-0.6-2.3-0.6-3.3,0L271,214c-0.8,0.4-0.8,1.6,0,2l152.8,88.2
								c1,0.6,2.3,0.6,3.3,0l54.5-31.5C482.4,272.4,482.4,271.2,481.6,270.8z"/>
							<path class="st22" d="M481.6,272.8l-0.5,0.3l-152.3-87.9c-1-0.6-2.3-0.6-3.3,0l-53.9,31.2l-0.5-0.3c-0.8-0.4-0.8-1.6,0-2
								l54.4-31.5c1-0.6,2.3-0.6,3.3,0l152.9,88.2C482.4,271.2,482.4,272.4,481.6,272.8z"/>
							<g>
								<polygon class="st5" points="285.3,211.9 418.4,288.8 413.2,291.8 280,214.9 								"/>
								<polygon class="st5" points="299.3,203.8 425.9,276.9 420.6,279.9 294,206.8 								"/>
								<polygon class="st5" points="435.3,282.3 447.1,289.1 441.9,292.2 430,285.4 								"/>
								<polygon class="st5" points="424.9,292.5 433.1,297.2 427.8,300.3 419.6,295.5 								"/>
								<polygon class="st5" points="308.1,198.7 455.9,284.1 450.7,287.1 302.8,201.8 								"/>
								<polygon class="st5" points="316.9,193.6 464.7,279 459.5,282 311.6,196.7 								"/>
								<polygon class="st5" points="325.7,188.6 473.5,273.9 468.3,277 320.4,191.6 								"/>
							</g>
						</g>
					</g>
				</g>
			</g>
		</g>
	</g>
	<g>
		<g>

				<linearGradient id="SVGID_19_" gradientUnits="userSpaceOnUse" x1="-1134.3792" y1="196.8519" x2="-1075.9052" y2="302.1428" gradientTransform="matrix(-1 0 0 -1 -749.2388 450)">
				<stop  offset="0" style="stop-color:#5778FF"/>
				<stop  offset="3.980000e-02" style="stop-color:#5C7DFF"/>
				<stop  offset="8.670000e-02" style="stop-color:#6A8AFF"/>
				<stop  offset="0.1372" style="stop-color:#82A0FF"/>
				<stop  offset="0.1899" style="stop-color:#A3BEFF"/>
				<stop  offset="0.2237" style="stop-color:#BCD5FF"/>
			</linearGradient>
			<path class="st29" d="M286.5,153.6l9.5-5.1v-0.2c0.1-0.1,0.3-0.1,0.4,0l109.9,64c0.4,0.2,0.7,0.8,0.7,1.3v20.9
				c0,0.2-0.1,0.4-0.2,0.5h0.1h0c0,0,0,0,0,0l-8.9,5.1l-0.1-10.1L295.7,171c-0.4-0.2-0.7-0.8-0.7-1.3v-7L286.5,153.6z"/>

				<linearGradient id="SVGID_20_" gradientUnits="userSpaceOnUse" x1="-1062.266" y1="196.4016" x2="-1101.2435" y2="272.5983" gradientTransform="matrix(-1 0 0 -1 -749.2388 450)">
				<stop  offset="0" style="stop-color:#C0D6FF"/>
				<stop  offset="0.2978" style="stop-color:#C5DBFF"/>
				<stop  offset="0.6488" style="stop-color:#D3E9FF"/>
				<stop  offset="1" style="stop-color:#E9FFFF"/>
			</linearGradient>
			<path class="st30" d="M286.7,176.3l110.7,63.9c0.4,0.2,0.7,0,0.7-0.5v-20.9c0-0.5-0.3-1-0.7-1.2l-110.7-63.9
				c-0.4-0.2-0.7,0-0.7,0.5v20.9C286,175.6,286.3,176.1,286.7,176.3z"/>
			<path class="st31" d="M302.2,172.1l86.3,50.7c-2.7,2.3-5.2,4.9-7.5,7.8L294,180.4C296.5,177.3,299.3,174.5,302.2,172.1z"/>
			<path class="st5" d="M290.4,170.1l104.1,60.1c0.2,0.1,0.4,0,0.4-0.3v-5.2c0-0.3-0.2-0.7-0.4-0.9l-104.1-60.1
				c-0.2-0.1-0.4,0-0.4,0.3v5.2C290,169.6,290.2,170,290.4,170.1z"/>
			<path class="st6" d="M290.1,163.6l1.9,1.2v2.8c0,0.3,0.2,0.7,0.5,0.9L395,227.6v2.5c0,0.3-0.2,0.5-0.5,0.3l-105.1-60.7
				c-0.3-0.1-0.5-0.5-0.5-0.9v-5.1C289,163.9,289.8,163.4,290.1,163.6z"/>
		</g>
		<path class="st32" d="M299.4,169l86.9,50.2c-0.7,0.4-1.4,0.8-2.1,1.3l0,0l-86.9-50.2C298,169.8,298.7,169.4,299.4,169z"/>
	</g>
</g>
<g>
	<polygon class="st0" points="432.8,188.1 435.5,189.9 435.8,187.9 433.1,186.2 	"/>
	<polygon class="st0" points="430.6,201.5 433.3,203.2 435.2,191.6 432.5,189.9 	"/>
	<polygon class="st0" points="429.6,207.9 432.3,209.6 433,205 430.4,203.3 	"/>
	<polygon class="st0" points="428.6,214.6 431.2,216.3 432,211.7 429.3,210 	"/>
	<polygon class="st0" points="427.8,192 430.5,193.7 431.2,189.1 428.5,187.4 	"/>
	<polygon class="st0" points="426.4,200.8 429,202.5 430.1,195.7 427.5,194 	"/>
	<polygon class="st0" points="425.1,208.9 427.8,210.6 428.7,204.8 426,203.1 	"/>
	<polygon class="st0" points="427.5,221.2 430.2,222.9 430.9,218.3 428.2,216.6 	"/>
	<polygon class="st0" points="428.8,185.6 431.5,187.3 431.8,185.3 429.1,183.6 	"/>
</g>
<polygon class="st0" points="424.5,226.4 429.1,229.3 429.5,227.4 424.8,224.4 "/>
<linearGradient id="paper_1_" gradientUnits="userSpaceOnUse" x1="-957.0538" y1="59.1732" x2="-1081.0989" y2="278.9695" gradientTransform="matrix(-1 0 0 -1 -749.2388 450)">
	<stop  offset="0" style="stop-color:#C0D6FF"/>
	<stop  offset="7.820000e-02" style="stop-color:#C3D9FF"/>
	<stop  offset="0.1341" style="stop-color:#CCE2FF"/>
	<stop  offset="0.1829" style="stop-color:#DCF2FF"/>
	<stop  offset="0.2117" style="stop-color:#E9FFFF"/>
	<stop  offset="0.256" style="stop-color:#D8EEFF"/>
	<stop  offset="0.3145" style="stop-color:#CBE1FF"/>
	<stop  offset="0.3869" style="stop-color:#C2D8FF"/>
	<stop  offset="0.5143" style="stop-color:#C0D6FF"/>
	<stop  offset="0.6239" style="stop-color:#D0E6FF"/>
	<stop  offset="0.755" style="stop-color:#E9FFFF"/>
	<stop  offset="1" style="stop-color:#C0D6FF"/>
</linearGradient>
<path id="paper" class="st153" d="M231.4,396.4l-86.9-50.2l0,0c11.2-6.5,20.7-20.6,23.6-34.2c1.2-5.5,4.5-10.3,9.4-13.1l65.7-37.9
	c18.3-10.6,30.2-29.6,31.4-50.7c1-17.8,14.5-35.3,25-41.4l0,0l86.9,50.2l0,0c-10.3,5.9-21.6,22.6-22.9,40.1
	c-1.5,21.1-13,40.2-31.3,50.8l-67.8,39.1c-4.9,2.8-8.2,7.6-9.4,13.1C252,375.8,242.6,389.9,231.4,396.4L231.4,396.4z"/>
</svg>
