<?xml version="1.0" encoding="utf-8"?>
<!-- Generator: Adobe Illustrator 23.0.0, SVG Export Plug-In . SVG Version: 6.00 Build 0)  -->
<svg version="1.1" id="Layer_1" xmlns="http://www.w3.org/2000/svg" xmlns:xlink="http://www.w3.org/1999/xlink" x="0px" y="0px"
	 viewBox="0 0 1920 1080" style="enable-background:new 0 0 1920 1080;" xml:space="preserve">
<path style="fill:#1B1464;stroke:#000000;stroke-miterlimit:10;" d="M-0.5,84.5c122.9-5.7,300.1,5.2,473,100
	c180.4,98.9,186.6,196.3,346,263c267.6,112,566.6-29.9,619-56c305-151.7,324.1-390.2,482-380c179.1,11.6,395.1,334.1,296,569
	c-68.2,161.7-258.2,285.7-389,245c-102.2-31.8-93.3-140.5-199-199c-139.2-77.1-254,56.6-538,121c-433.1,98.2-619.5-110-928,63
	c-92.5,51.9-130.9,101.2-175,84C-122.3,852.1-72,456.7-0.5,84.5z"/>
</svg>
