<?xml version="1.0" encoding="utf-8"?>
<!-- Generator: Adobe Illustrator 23.0.0, SVG Export Plug-In . SVG Version: 6.00 Build 0)  -->
<svg version="1.1" xmlns="http://www.w3.org/2000/svg" xmlns:xlink="http://www.w3.org/1999/xlink" x="0px" y="0px"
	 viewBox="0 0 800 696.2" style="enable-background:new 0 0 800 696.2;" xml:space="preserve">
<g id="BACKGROUND">
</g>
<g id="OBJECTS">
</g>
<g id="DESIGNED_BY_FREEPIK">
	<linearGradient id="SVGID_1_" gradientUnits="userSpaceOnUse" x1="406.605" y1="101.3501" x2="406.605" y2="753.1875">
		<stop  offset="0.5804" style="stop-color:#1B1464"/>
		<stop  offset="0.6393" style="stop-color:#1A1864"/>
		<stop  offset="0.6975" style="stop-color:#192465"/>
		<stop  offset="0.7555" style="stop-color:#163867"/>
		<stop  offset="0.8133" style="stop-color:#135469"/>
		<stop  offset="0.8711" style="stop-color:#0E776D"/>
		<stop  offset="0.9288" style="stop-color:#08A370"/>
		<stop  offset="0.9855" style="stop-color:#02D775"/>
		<stop  offset="1" style="stop-color:#00E576"/>
	</linearGradient>
	<path style="fill:url(#SVGID_1_);" d="M2139.2,372.5v380.6H192.1v-25.9H-1326V325.2c0,0,19.3-7,25.3-8.6s14.9-7.2,19.3-12.7
		c4.4-5.5,19.3-23.1,24.2-29.2c5-6.1,9.9-23.7,9.9-23.7s1.5,1.3,3.7,3.3c0.1,3.2-0.1,7.7-0.3,9c-0.2,1.9,2.3,4.1,4.1,7.9
		c1.9,3.7,1.4,8.5,1.4,14.2c0,5.8,6.4,8.7,6.4,8.7h2.7c0,0,4.1,0.8,5,2.7c0.9,1.9,1.8,5.2,0.5,6.8c-1.2,1.7,0,6,0,6s0.4,2.1,1.2,3.3
		c0.8,1.2,3.1,2.9,7,3.9c3.9,1,6.8,4.5,6.8,4.5l9.1,7.4c0,0,0.2-6.4,0-7.4c-0.2-1-1.9-3.5-2.1-6.6c-0.1-1.7-0.1-5.5-0.1-8.7
		c1.1,0,2.4-0.4,3.9-1.7c3.5-3,7.3-10.9,11.2-12.4c-0.6,4.4-1.6,11.6-0.7,11.9c1.2,0.4,4.1,10.1,4.1,10.1l3.1,1.9
		c0,0,5.4-0.2,7.6,2.9c2.3,3.1,5,12.2,5,13.2c0,1,0.4,5.4,1.4,5.8c1,0.4,2.5,5.8,2.5,6.6c0,0.8,1.4,9.1,1.4,9.1l13.2,7.4
		c0,0,5.2,1.2,7,1.2c1.9,0,7.4,0.8,8.3,1.9c0.8,1-2.3-3.7-2.3-3.7l-5.2-8.3l1-3.9l-0.9-5.4c0.1,0.1,0.3,0.2,0.4,0.3
		c2.8,1.7,9.9,5,14.9,7.2c5,2.2,17.1,3.3,21.5,3.9c4.4,0.6,6.6-1.6,9.9-4.4c3.3-2.8,9.9-12.1,9.9-12.1s0.2,0.1,0.5,0.3
		c4.3,2.2,33.5,17,39.1,20.1c6.1,3.3,14.3,7.7,18.7,8.8c0.8,0.2,1.6,0.3,2.6,0.4c4.5,0.5,10.8-0.4,16.7-5.4
		c7.2-6.1,9.9-7.7,19.3-14.9c9.4-7.2,43.5-42.4,52.3-49c8.8-6.6,27-28.6,31.4-33c4.4-4.4,34.7-47.9,38.5-53.4
		c3.9-5.5,9.4-13.2,9.4-13.2s0.4,0.1,1.1,0.3c3.4,1.1,14.1,4.8,18.7,8.5c5.5,4.4,25.3,19.3,30.8,22c3,1.5,4.9,1.4,7.1,0.8
		c1.9-0.4,4-1.1,7.2-1.4c7.2-0.6,30.3-10.5,36.9-13.2c6.6-2.8,13.2-9.4,15.4-13.8c2.2-4.4,11.6-14.3,18.7-16
		c7.2-1.7,11.6-11,18.7-16.5c7.2-5.5,18.7-15.4,18.7-15.4s16,2.2,18.2,3.9c2.2,1.7,7.7-0.5,19.3-0.5c11.6,0,21.5-6.6,30.8-9.4
		c7.3-2.1,15.2-5.3,18.4-6.6c0.9-0.4,1.4-0.6,1.4-0.6s6.6,11.6,8.8,18.7c2.2,7.2,5.5,14.3,11.6,19.3c6.1,5,19.3,23.1,25.9,32.5
		c6.6,9.4,16.5,27.5,21.5,30.8s19.3,16.5,21.5,20.9c2.2,4.4,29.2,12.1,34.1,13.2c4.9,1.1,8.8,2.8,16.5,11.6c7.7,8.8,11,12.1,15.4,16
		c4.4,3.9,9.4,5.5,10.5,9.4c1.1,3.9,3.9,3.3,9.9,7.2c1.9,1.2,4.6,2.4,7.3,3.5c5.8,2.4,12,4.2,12,4.2c5.5-1.7,13.8-12.7,18.2-13.2
		c4.4-0.6,8.8-10.5,12.7-14.9c3.9-4.4,5-4.4,10.5-9.9c5.5-5.5,9.9-13.8,15.3-22c5.4-8.3,23.2-25.3,27.6-28.6
		c4.4-3.3,5-14.3,10.5-23.7c5.5-9.4,20.4-42.4,20.4-42.4s0.8,1.2,1.9,3.1c2.9,4.6,8.2,13.3,11.3,19.5c4.4,8.8,11,24.8,17.6,37.4
		c6.6,12.7,13.8,19.3,18.7,29.2c5,9.9,23.1,37.4,25.3,42.9c2.2,5.5,9.9,8.3,9.9,8.3s16,9.4,19.8,12c3.9,2.6,29.2,13.3,29.2,13.3
		s8.8,5,11,9.9c2.2,5,12.1,23.1,15.4,28.6c1.9,3.1,10.3,7.9,17.4,11.6c5.5,2.8,10.1,4.9,10.1,4.9c39.1-4.4,59.5-30.8,59.5-30.8
		s5.5-6.6,8.3-7.7c2.7-1.1,34.1-14.9,42.4-14.3c8.3,0.6,17.1-10.5,24.8-15.5c7.7-5.1,8.3-8.7,14.3-13.6c6.1-5,21.5-20.4,33.6-27
		s28.6-27,28.6-27s0.4,0.4,1.2,1.1c3.7,3.5,15.8,14.7,23.6,22c9.4,8.8,17.6,13.8,25.3,22.6c4,4.5,10.1,10.2,15.2,14.6
		c4.7,4.1,8.5,7.2,8.5,7.2l6.6,0c0,0,7.7-5.9,16-9.8c8.3-3.9,16-9.4,22-17.1c6.1-7.7,23.7-18.2,33-20.9c9.4-2.8,11.6-5.5,14.3-8.3
		c2.7-2.8,0-14.3,8.8-18.2c8.8-3.9,3.3-3.3,8.8-7.7c5.5-4.4,8.3-8.8,17.1-16c8.8-7.2,11-13.8,17.6-18.7c6.6-5,6.1-8.3,11.6-17.6
		c5.5-9.4,24.2-46.3,31.4-56.7c4-5.8,7.9-15.2,10.6-22.6c2.2-5.9,3.7-10.5,3.7-10.5s3.3,2.8,6.6,11.6c3.3,8.8,20.4,24.8,29.2,33
		c8.8,8.3,16.5,35.8,20.9,46.3c4.4,10.5,9.4,20.4,13.8,28.1c4.4,7.7,20.9,33.6,20.9,33.6h13.2c0,0,8.8,2.8,11.6,5.5
		c2.8,2.8,24.2,3.3,24.2,3.3s5,5.5,5,8.3c0,2.8,5.5,12.1,5.5,12.1s12.1,13.2,14.9,13.8c2.7,0.6,20.9,9.4,31.9,21.5
		c0.3,0.3,0.5,0.5,0.8,0.8c9.4-9.1,22.4-24.7,26-28.3c4.4-4.4,34.7-47.9,38.5-53.4c3.8-5.5,9.4-13.2,9.4-13.2s0.4,0.1,1.1,0.3
		c3.4,1.1,14.1,4.8,18.7,8.5c5.5,4.4,25.3,19.3,30.8,22c3,1.5,4.9,1.4,7.1,0.8c1.9-0.4,4-1.1,7.3-1.4c7.2-0.6,30.3-10.5,36.9-13.2
		c6.6-2.8,13.2-9.4,15.4-13.8c2.2-4.4,11.6-14.3,18.7-16c7.2-1.7,11.6-11,18.7-16.5c7.2-5.5,18.7-15.4,18.7-15.4s16,2.2,18.2,3.9
		c2.2,1.7,7.7-0.5,19.3-0.5s21.5-6.6,30.8-9.4c7.3-2.1,15.2-5.3,18.4-6.6c0.9-0.4,1.4-0.6,1.4-0.6s6.6,11.6,8.8,18.7
		c2.2,7.2,5.5,14.3,11.6,19.3c6.1,5,19.3,23.1,25.9,32.5c6.6,9.4,16.5,27.5,21.5,30.8c5,3.3,19.3,16.5,21.5,20.9
		c2.2,4.4,29.2,12.1,34.1,13.2c5,1.1,8.8,2.8,16.5,11.6c7.7,8.8,11,12.1,15.4,16c4.4,3.9,9.4,5.5,10.5,9.4c1.1,3.9,3.9,3.3,9.9,7.2
		c1.9,1.2,4.6,2.4,7.3,3.5c5.8,2.4,12,4.2,12,4.2c5.5-1.7,13.8-12.7,18.2-13.2c4.4-0.6,8.8-10.5,12.7-14.9c3.9-4.4,5-4.4,10.5-9.9
		c5.5-5.5,9.9-13.8,15.3-22c5.4-8.3,23.2-25.3,27.6-28.6c4.4-3.3,5-14.3,10.5-23.7c5.5-9.4,20.4-42.4,20.4-42.4s0.8,1.2,1.9,3.1
		c2.8,4.6,8.2,13.3,11.3,19.5c4.4,8.8,11,24.8,17.6,37.4c6.6,12.7,13.8,19.3,18.7,29.2c5,9.9,23.1,37.4,25.3,42.9
		c2.2,5.5,9.9,8.3,9.9,8.3s16,9.4,19.8,12c3.9,2.6,29.2,13.3,29.2,13.3s8.8,5,11,9.9c2.2,5,12.1,23.1,15.4,28.6
		c1.9,3.1,10.3,7.9,17.4,11.6c5.5,2.8,10.1,4.9,10.1,4.9c39.1-4.4,59.5-30.8,59.5-30.8s5.5-6.6,8.3-7.7c2.8-1.1,34.1-14.9,42.4-14.3
		c8.3,0.6,17.1-10.5,24.8-15.5c7.7-5.1,8.3-8.7,14.3-13.6c6.1-5,21.5-20.4,33.6-27c12.1-6.6,28.6-27,28.6-27s0.4,0.4,1.2,1.1
		c3.7,3.5,15.8,14.7,23.6,22c9.4,8.8,17.6,13.8,25.3,22.6c4,4.5,10.1,10.2,15.2,14.6c4.7,4.1,8.5,7.2,8.5,7.2l6.6,0
		c0,0,7.7-5.9,16-9.8c8.3-3.9,16-9.4,22-17.1c6.1-7.7,23.7-18.2,33-20.9c9.4-2.8,11.6-5.5,14.3-8.3c2.8-2.8,0-14.3,8.8-18.2
		c8.8-3.9,3.3-3.3,8.8-7.7c5.5-4.4,8.3-8.8,17.1-16c8.8-7.2,11-13.8,17.6-18.7c6.6-5,6.1-8.3,11.6-17.6c5.5-9.4,24.2-46.3,31.4-56.7
		c4-5.8,7.9-15.2,10.6-22.6c2.2-5.9,3.7-10.5,3.7-10.5s3.3,2.8,6.6,11.6c3.3,8.8,20.4,24.8,29.2,33c8.8,8.3,16.5,35.8,20.9,46.2
		c4.4,10.5,9.4,20.4,13.8,28.1c4.4,7.7,20.9,33.6,20.9,33.6h13.2c0,0,8.8,2.8,11.6,5.5c2.7,2.8,24.2,3.3,24.2,3.3s5,5.5,5,8.3
		c0,2.8,5.5,12.1,5.5,12.1s12.1,13.2,14.9,13.8c2.8,0.6,20.9,9.4,31.9,21.5C2116.8,356.3,2139.2,372.5,2139.2,372.5z"/>
	
		<linearGradient id="SVGID_2_" gradientUnits="userSpaceOnUse" x1="-518.5508" y1="519.406" x2="-402.2413" y2="280.936" gradientTransform="matrix(1 0 0 1 1800 0)">
		<stop  offset="0" style="stop-color:#1B1464"/>
		<stop  offset="9.651232e-02" style="stop-color:#154268"/>
		<stop  offset="0.2138" style="stop-color:#0F736C"/>
		<stop  offset="0.3302" style="stop-color:#099C70"/>
		<stop  offset="0.4434" style="stop-color:#05BC72"/>
		<stop  offset="0.5525" style="stop-color:#02D374"/>
		<stop  offset="0.6558" style="stop-color:#01E076"/>
		<stop  offset="0.747" style="stop-color:#00E576"/>
	</linearGradient>
	<path style="fill:url(#SVGID_2_);" d="M1244.7,236c0.8,1.1,3.9,9.4,4.4,10.7c0.6,1.4,1.9,8.8,1.9,8.8s7.2,14.3,4.4,15.1
		c-2.8,0.8-9.6-3.9-9.6-3.9l-5.3-4.1c0,0,1.9,13.5,3,16.5c1.1,3,1.7,9.1,2.2,12.4c0.5,3.3-0.2,10.2,0,12.7c0.2,2.5,1.1,8.5,0,9.9
		c-1.1,1.4-5.3,12.9-5.3,12.9s2.8,6.6,5.3,9.6c2.4,3,4.9,11.5,6,14.4c1.1,2.9,4.7,10.1,5.8,11.5c1.1,1.4,4.1,10.2,4.1,11.8
		c0,1.7-7.4-0.8-8.5-1.7c-1.1-0.8-11-6.6-12.1-8.8c-1.1-2.2-5.5-5.8-5.5-5.8s6.1,21.2,7.4,25.1c1.4,3.9,1.6,16.2,1.9,19
		c0.3,2.8,1.4,13.2,0.6,16.2c-0.8,3-6.1,6.3-6.1,6.3l-5.5,1.7l9.9,9.1l9.9,9.6c0,0,0.8,1.1,6.9,3.9c6.1,2.8,15.4,12.7,14.9,29.5
		c-0.5,16.8-8,28.6-8,28.6s12.7,15.4,23.1,15.1c10.5-0.3,23.7,8.8,24,10.7c0.3,1.9,56.4,0,56.4,0s52.3,33.3,53.5,33.7
		c1.2,0.4,45.8-23.3,45.8-23.3l-26.8-38c0,0-7-12.8,1.2-16.1c8.3-3.3,14.4-5.8,14.4-5.8s-16.5-16.9-16.9-19.4
		c-0.4-2.5-1.6-8.7-2.9-10.3c-1.2-1.7-17.3-22.7-18.2-24.4c-0.8-1.7-7.2-13.2-10-14.7c-7.1-3.6-15.6-8.5-17.4-11.6
		c-3.3-5.5-13.3-24-15.5-28.9c-2.2-5-11.8-10.5-11.8-10.5s-22-9.3-25.9-11.9c-3.9-2.6-21.4-13.4-21.4-13.4s-8-2.5-10.2-8
		c-2.2-5.5-19.2-32.1-24.1-42c-5-9.9-12.8-17.2-19.4-29.8c-6.6-12.7-13.5-28.4-17.9-37.2c-3.1-6.2-9.3-14.9-12.2-19.4
		c0,6.6,0,13.3,0,14C1235.7,217.3,1243.9,234.9,1244.7,236z M1298.4,349.7c2.9,3.4,6.9,8.9,6.9,8.9l2.3,1.4l4.8,1.8
		c0,0,5.1,8,5.6,8.4c0.5,0.4,3.2,1.5,4.4,1.5c1.2,0,11.4,3.6,12,3.9c0.6,0.3,6.5,8.3,7.4,9.5c1,1.2,3.7,4.1,4.8,5
		c1.1,0.8,3.8,3.3,3.8,5.9c0,2.6,1.5,5.5,2.5,6.7c1,1.2,8.3,6.1,8.4,8.3c0.1,2.2,2.9,7.8,2.9,7.8L1348,408c0,0-5.1-1.1-6.9-1.1
		c-1.8,0-4.7,2.2-5.1,2.2c-0.4,0-6.5-2.9-6.9-3.3c-0.4-0.4-5-6.3-6.5-7.8c-1.5-1.5-13.1-4.5-13.5-4.5c-0.4,0-8.9-1.1-8.9-1.1
		s-9.1-8.8-9.6-8.9c-0.6-0.1-2.5-7.8-2.5-7.8s0.8-28.8-1.7-37.6C1286.4,338,1295.5,346.2,1298.4,349.7z"/>
	
		<linearGradient id="SVGID_3_" gradientUnits="userSpaceOnUse" x1="-118.7864" y1="150.5509" x2="-120.9897" y2="593.1812" gradientTransform="matrix(1 0 0 1 1800 0)">
		<stop  offset="0" style="stop-color:#1B1464"/>
		<stop  offset="0.747" style="stop-color:#00E576"/>
	</linearGradient>
	<path style="fill:url(#SVGID_3_);" d="M1639.7,305.6l3.9,6.9c0,0,1.9,6.1,2.7,6.6c0.8,0.5,0,6.9,0,6.9l-2.2,1.4c0,0,5.4,5,2.6,6.6
		c-2.8,1.7-5.3,3.3-5.3,3.3s5.4,11.6,6.2,12.4c0.7,0.8,6.5,5.2,6.5,5.2s12.9,12.4,14.6,13.8c1.7,1.4,6.1,5.5,7.7,7.4
		c1.7,1.9,5.5,6.9,5.5,6.9s1.1-4.1,6.6-3.3c5.5,0.8,11,3,13.8,6.1c2.8,3,5.8,5.2,9.6,8.3c3.9,3,9.1,5.8,10.5,7.7
		c1.4,1.9,4.1,5.5,4.1,5.5s-7.4-25.3-10.7-31.7c-3.3-6.3,2.5-6.1-6.1-13.2c-8.5-7.2-9.1-11.3-10.5-12.9c-0.6-0.8-0.9-3.1-1.1-5.5
		c-5-4.4-11.3-11.4-15.2-16c-7.7-8.8-15.1-12.4-24.5-21.3c-7.8-7.4-20.6-18.5-24.4-22c0.6,1.6,1.1,3,1.3,3.9
		C1635.9,291,1639.7,305.6,1639.7,305.6z"/>
	
		<linearGradient id="SVGID_4_" gradientUnits="userSpaceOnUse" x1="-805.8292" y1="497.7074" x2="-805.8292" y2="187.3052" gradientTransform="matrix(1 0 0 1 1800 0)">
		<stop  offset="0" style="stop-color:#1B1464;stop-opacity:0.8"/>
		<stop  offset="0.546" style="stop-color:#00E576"/>
	</linearGradient>
	<path style="fill:url(#SVGID_4_);" d="M922.1,177.9c1.2,1.2,3.3,12,3.3,14.9c0,2.9-1.8,10.7-1.8,10.7l-5.2,12.8
		c0,0,9.9,8.3,11.6,9.5c1.7,1.2,4.1,13.6,4.1,13.6s1.2,12.4,2.5,12.4c1.2,0,5.8,21.1,5.8,21.1l-3.3,3.7c0,0,1.7,9.5,3.3,11.6
		c1.7,2.1,1.7,6.2-2.5,8.7c-4.1,2.5-10.7,5.4-10.7,5.4h-8.7c0,0,15.3,10.7,19,19c3.7,8.3,9.5,25.6,8.7,27.7c-0.8,2.1-5.4,12-5.4,12
		h-6.6h-12.4c0,0,5.8,10.3,5.4,14.5c-0.4,4.1-2.9,9.1-2.9,9.1l5,7.8c0,0-6.6,11.6-12.8,16.9c-6.2,5.4-13.6,2.5-13.6,2.5l-8.3-15.7
		c0,0-8.3-1.2-7.8-3.3c0.4-2.1,0.8-9.1,0-12.8c-0.8-3.7-4.1-28.7-4.1-28.7s-8.7,23.3-11.1,27c-2.5,3.7-9.5,14.5-9.9,15.7
		c-0.4,1.2,4.1,20.2,4.1,20.2s5.8,3.7,5.8,6.6c0,2.9,4.1,5,4.1,5s2.9,0,5,0c2.1,0,3.3,13.1,3.7,14.6c0.4,1.5,1.2,6.9-0.4,9.8
		c-1.7,2.9-11.1,16.9-11.1,16.9l-4.5,8.3l27.7,26.4l151.9,16.1l42.9-13.6l4.5-21.5c0,0,0-4.5-2.5-7.4c-2.5-2.9-9.5-18.2-2.9-20.2
		c6.6-2.1,25.6,11.2,25.6,11.2v-15.7c0,0-0.8-9.6,1.2-10.2c2.1-0.5,6.2,0,6.2,0s-7-13.3-9.1-17.1c-2.1-3.7-7-12.8-12-19
		c-5-6.2-7.8-15.3-7-19c0.8-3.7,7.4-10.7,7.4-10.7l2.9-3.7l10.3,3.3c0,0-7.4-9.9-9.1-12.8c-1.6-2.9-2.1-8.9-1.7-11.9
		c-2.7-1.1-4.7-3.5-6.6-4.7c-6.1-3.9-8.2-3.1-9.3-7c-1.1-3.9-7.3-4.5-11.7-8.4c-4.4-3.9-6.4-7.7-14.1-16.5
		c-7.7-8.8-12.4-11-17.4-12.1c-5-1.1-31.1-8.9-33.3-13.3c-2.2-4.4-16.9-17.1-21.9-20.4c-5-3.3-14.1-21.2-20.7-30.5
		c-6.6-9.4-20.4-28.5-26.5-33.4c-6.1-5-8.9-11.6-11.1-18.8c-2.2-7.2-10.3-18.5-10.3-18.5s-0.6,0.8-1.5,1.2
		C922,171.9,921.5,177.2,922.1,177.9z M1000.6,295.2c1.4,1.9,8.9,9.1,10.1,9.7c1.2,0.6,8.7,12.6,10.5,13.8c1.9,1.2,13,5.2,13.8,5.4
		s18.4,8.3,18.4,8.3s-3.3-8.5-2.5-8.5c0.8,0,7,7.8,8.1,8.5c1,0.6,6.8,7,7.6,7.6c0.8,0.6,0,10.4,2.9,11.2c2.9,0.8,7.2,3.3,8.3,3.1
		c1-0.2,10.1,6.4,10.1,6.4l-5.4,5c0,0-2.9,0.2-2.9,1.9c0,1.7,1.4,6.2,1.4,6.2s-7.4-2.5-8.9-2.3c-1.4,0.2-9.3,1-10.7,2.3
		c-1.4,1.2-1.9,12.2-1.4,12.8c0.4,0.6,2.1,11.4,3.1,13.6c1,2.3,6.6,11.8,6.6,11.8s-10.9-8.9-12-8.9c-1,0-10.7-5.6-10.7-5.6
		s-9.3-5.6-9.1-7.8c0.2-2.3-3.5-12.2-3.5-12.2l-5-6c0,0,3.1-4.1,3.7-4.7c0.6-0.6,2.7-7,1.2-10.7c-1.4-3.7-9.7-18.4-10.9-20.9
		c-1.2-2.5-10.5-7.8-11.6-7.8c-1,0-4.1,4.1-4.1,4.1l-10.3-3.7l-3.3-0.8c0,0,1-8.9,1.7-10.3c0.6-1.4,1.2-5.6,1.4-6.2
		c0.2-0.6-3.7-12.2-4.1-14.7c-0.4-2.5-5.2-18.6-5.2-18.6S999.1,293.3,1000.6,295.2z"/>
	
		<linearGradient id="SVGID_5_" gradientUnits="userSpaceOnUse" x1="-1103.3378" y1="468.5649" x2="-1094.0289" y2="195.9658" gradientTransform="matrix(1 0 0 1 1800 0)">
		<stop  offset="0" style="stop-color:#1B1464;stop-opacity:0.8"/>
		<stop  offset="0.546" style="stop-color:#00E576"/>
	</linearGradient>
	<path style="fill:url(#SVGID_5_);" d="M669.6,269.3c0.6,0.8,5.6,9.7,5.6,10.7c0,1-0.8,5.6,0,5.6c0.8,0,9.3,5.4,9.3,5.4
		s9.3-0.2,10.3,2.7c1,2.9,2.3,7.2,3.7,7.8c1.4,0.6,7,3.1,8.3,3.1c1.2,0,5.2,5.8,6.2,6.6c1,0.8,6.2,1.2,7.4,1.4
		c1.2,0.2,9.1,3.1,9.9,3.9c0.8,0.8,11.8,12.6,11.8,12.6s-19.4-29.1-19.6-31.2c-0.2-2.1-2.2-11.5-2.1-13c0-0.3-0.2-0.8-0.4-1.4
		c-2.2,0.5-4.1,0.7-7.1-0.8c-5.5-2.8-25.3-17.6-30.8-22c-4.6-3.7-15.4-7.4-18.7-8.5c1.4,3.1,3.8,8.6,4.4,9.2
		C668.6,262.3,669,268.5,669.6,269.3z"/>
	
		<linearGradient id="SVGID_6_" gradientUnits="userSpaceOnUse" x1="354.6277" y1="460.6663" x2="12.3667" y2="460.6663" gradientTransform="matrix(1 0 0 1 1800 0)">
		<stop  offset="0" style="stop-color:#1B1464"/>
		<stop  offset="0.747" style="stop-color:#00E576"/>
	</linearGradient>
	<path style="fill:url(#SVGID_6_);" d="M2105.8,503.1c-11-12.1-29.2-20.9-31.9-21.5c-2.8-0.5-13.9-13.8-13.9-13.8
		s-5.5-10.1-5.5-12.8c0-2.8-5.6-9.2-5.6-9.2s-21.1,0.4-23.9-2.4c-2.8-2.8-11.9-5.8-11.9-5.8l-13.2-0.5c0,0-16.1-25.1-20.5-32.8
		c-4.4-7.7-9.5-17.1-13.9-27.6c-4.4-10.5-12.1-38.1-20.9-46.4c-8.8-8.3-25.8-24.1-29.1-32.9c-3.3-8.8-7.2-12.3-7.2-12.3
		s-1.6,5.6-3.8,11.5c2.4,4.4,5.3,9.4,6.6,10.9c2.5,2.9,12,16.9,12,21.9c0,5,0,11.6,0,11.6s8.3,2.9,8.7,6.6c0.4,3.7-1.7,23.9,0,25.2
		c1.6,1.2-7.4,0-12-2.5c-4.5-2.5-5.4-4.1-6.2-5.8c-0.8-1.7-9.9-13.2-9.9-13.2s2.5,17.3,2.5,25.6c0,8.3,1.2,18.2,0,19
		c-1.2,0.8-5.8,5-5.8,5s17.8,9.9,19,10.3c1.2,0.4,12.8,5.8,15.3,9.5c2.5,3.7,6.6,16.1,6.6,19c0,2.9-1.2,11.1-4.5,11.6
		c-3.3,0.4-9.1,0.4-11.6,2.1c-2.5,1.7-2.1,6.2-0.8,6.2c1.2,0,5,9.1,0.8,9.9c-4.1,0.8-10.3,6.2-12,6.2c-1.7,0-6.2-2.5-7,0
		c-0.8,2.5-3.7,13.6-3.3,15.7c0.4,2.1,5,13.6,12.8,22.3c7.8,8.7,17.3,25.6,19.4,31c2.1,5.4,6.2,15.3,6.2,15.3s12.8,1.7,18.6,0
		c5.8-1.7,11.1,0.4,16.1,4.1c5,3.7,21.9,17.8,27.7,22.7c5.8,5,14,10.7,15.7,13.6c1.6,2.9,7.8,11.6,7.8,11.6s-0.8-7.8,0-9.1
		c0.8-1.2,6.2-3.7,9.5-2.5c3.3,1.2,7.4,2.1,12.4,7.4c5,5.4,14.5,8.3,14.9,9.5c0.4,1.2,4.1,15.7,4.1,15.7s6.6-5.4,7.4-8.7
		c0.8-3.3,16.5,0,19,0c2.5,0,8.7,4.5,14.9,4.1c6.2-0.4,8.3,6.6,9.5,7.4c1.2,0.8,10.3,0,10.3,0s7-3.4,10.2-7.1v-97.2
		C2139.2,531.5,2116.8,515.2,2105.8,503.1z M2034.5,514.2c0,0-12.4,2.1-18.4-0.8c-6-2.9-15.5-13.8-15.5-13.8s-5.8-4.3-4.7-7
		c1-2.7,3.3-14.7,3.3-14.7l7.8,3.7c0,0,0.6-3.1,0.4-3.9c-0.2-0.8-0.2-6.6-0.4-9.5c-0.2-2.9-7.8-13.4-7.8-13.4l28.7,3.3
		c0,0,10.1,5.2,10.1,7c0,1.9,4.1,12.6,4.1,12.6l5.4,3.9c0,0,7.4,13.6,7.6,15.1c0.2,1.4,4.5,3.5,6.2,4.7c1.7,1.2,10.7,7.4,13.4,9.7
		c2.7,2.3,7,15.5,7,15.5s-32-16.5-33.4-16.5C2046.9,510.1,2034.5,514.2,2034.5,514.2z M2087.7,594.1c-3.3-1.7-7-6.8-9.3-7.6
		c-2.3-0.8-20.6-5.4-20.6-5.4s-4.3-3.7-7.2-8.3c-2.9-4.5-6.8-6.8-8.1-7.4c-1.2-0.6-3.8-3.5-3.8-3.5s8.1,0.6,7.9-5.6
		c0-0.6,1,3.7,7.4,6c6.4,2.3,12.8,3.9,16.7,7.4c3.9,3.5,8.9,7.2,12.8,9.7c3.9,2.5,8.9,6.6,9.5,7.2c0.6,0.6,6.4,6.4,6.4,6.4
		S2091,595.7,2087.7,594.1z"/>
	
		<linearGradient id="SVGID_7_" gradientUnits="userSpaceOnUse" x1="-972.3322" y1="399.3143" x2="-940.9521" y2="201.1254" gradientTransform="matrix(1 0 0 1 1800 0)">
		<stop  offset="0" style="stop-color:#1B1464;stop-opacity:0.8"/>
		<stop  offset="0.546" style="stop-color:#00E576"/>
	</linearGradient>
	<path style="fill:url(#SVGID_7_);" d="M823.3,274.1c0,0,3.4-4.4,4.8-5.8c1.4-1.4,3-3.4,3-4.5s1.6-6.1,2.6-6.5c1-0.4,5-0.7,5.8-1.2
		c0.8-0.6,2.6-2.9,2.6-2.9s12.1,7.7,12.8,8.3c0.7,0.5,3.3,2.9,4,4.3c0.7,1.4,0.7,5.5,1.5,6.3c0.8,0.8,2.4,3.7,3,4.7
		c0.6,1,0.6,7.7,1.5,9.2c1,1.5,2.5,5.8,2.3,7.2c-0.1,1.4,0,8.3,0,8.3l-9.2-11c0,0-7.2-3.3-8.7-4.3c-1.5-1-3.9-4.8-4.8-5.9
		c-1-1.1-2.9-1.7-4.1-2.2c-1.2-0.6-4.3-5.1-4.4-5.6C836,271.7,825.8,273.1,823.3,274.1z"/>
	
		<linearGradient id="SVGID_8_" gradientUnits="userSpaceOnUse" x1="-957.1082" y1="359.9646" x2="-925.7281" y2="161.7762" gradientTransform="matrix(1 0 0 1 1800 0)">
		<stop  offset="0" style="stop-color:#1B1464;stop-opacity:0.8"/>
		<stop  offset="0.546" style="stop-color:#00E576"/>
	</linearGradient>
	<path style="fill:url(#SVGID_8_);" d="M830.2,252.1c0,0,17.3,9.2,18.7,10c1.4,0.8,5.8,10.6,6.5,11.7c0.7,1.1,5.6,10.5,6.1,10.7
		c0.4,0.3,7.3,6.5,7.7,6.9c0.4,0.4,1.1,13.9,1.1,14.4c0,0.6,1.6,4.4,3.2,8c1.5,3.6,3.9,15.4,3.9,16c0,0.5,1,7.2,1,7.2
		s-8.5-10.3-8.8-10.7c-0.3-0.4-4.8-7.6-4.8-7.6s-2.9-5.4-4.4-6.1c-1.5-0.7-5.8-0.6-6.6-0.4c-0.8,0.1-9.4,4.5-11.7,5
		c-2.3,0.4-8.3,4.4-9.4,6.7c-1.1,2.3-4.5,5.9-4.5,5.9l4-14.5c0,0,8.8-8.9,9.9-9.9c1.1-1,4.4-5.5,4.4-5.5l-4.1-8.7c0,0-4-8.1-4.8-8.8
		c-0.8-0.7-11-9.2-11.6-9.6c-0.6-0.4,0-5.2,0-5.2l5.6-1.8c0,0,4.8-9.5-0.4-13.8"/>
	
		<linearGradient id="SVGID_9_" gradientUnits="userSpaceOnUse" x1="-1096.7729" y1="440.9559" x2="-1087.4637" y2="168.3468" gradientTransform="matrix(1 0 0 1 1800 0)">
		<stop  offset="0" style="stop-color:#1B1464;stop-opacity:0.8"/>
		<stop  offset="0.546" style="stop-color:#00E576"/>
	</linearGradient>
	<path style="fill:url(#SVGID_9_);" d="M652.1,267.5c0,0,48.3,39.6,50.2,40.9c1.9,1.2,16.9,14.2,17.3,15.3c0.4,1,1.7,10.3,1.7,11.6
		c0,1.2,1.6,12.4,1.6,13.6c0,1.2,1.4,3.9,2.3,4.8c0.8,1,14.4,18.5,16.9,22.8c2.5,4.3,9.9,21.1,10.3,21.9c0.4,0.8,8.7,18.2,8.7,18.2
		L738,400.2c0,0-5-1-12.8-4.5c-7.8-3.5-13.8-8-15.3-9.3c-1.4-1.2-9.9-2.5-12.6-4.3c-2.7-1.9-6.2-7.8-6.2-8.9c0-1-4.5-16.5-5.4-18.2
		c-0.8-1.7-6.8-8.1-7.8-9.5c-1-1.4-11.6-7.8-12-14.9c-0.4-7-5.4-28.3-5.6-34.5c-0.2-6.2-0.8-7.6-2.3-10.3
		C656.6,283.2,652.1,267.5,652.1,267.5z"/>
	
		<linearGradient id="SVGID_10_" gradientUnits="userSpaceOnUse" x1="-1193.8455" y1="670.8675" x2="-1174.2651" y2="224.6361" gradientTransform="matrix(1 0 0 1 1800 0)">
		<stop  offset="0" style="stop-color:#1B1464;stop-opacity:0.8"/>
		<stop  offset="0.546" style="stop-color:#00E576"/>
	</linearGradient>
	<path style="fill:url(#SVGID_10_);" d="M634.1,319.3c0,0,0,9.9-2.3,12.6c-2.3,2.7-3.7,6.4-7.6,8.3c-3.9,1.9-9.5,7.2-9.5,7.2
		l-7.2,5.6c0,0,8.1-12,8.9-13.4c0.8-1.4,4.1-6.8,4.4-7.2s4.2-4.3,4.9-5C626.3,326.7,634.1,319.3,634.1,319.3z"/>
	<linearGradient id="SVGID_11_" gradientUnits="userSpaceOnUse" x1="577.6419" y1="659.0508" x2="577.6419" y2="646.8962">
		<stop  offset="0" style="stop-color:#FFD06B"/>
		<stop  offset="0.2473" style="stop-color:#F39A6C"/>
		<stop  offset="0.5215" style="stop-color:#A46E63"/>
		<stop  offset="0.7312" style="stop-color:#725269"/>
		<stop  offset="0.9731" style="stop-color:#1A2040"/>
	</linearGradient>
	<path style="fill:url(#SVGID_11_);" d="M577.5,655.5c-0.1-2.6,0-4.5,0.2-5.3C578,648.9,577.9,651.3,577.5,655.5z"/>
	<linearGradient id="SVGID_12_" gradientUnits="userSpaceOnUse" x1="714.0524" y1="675.1323" x2="714.0524" y2="673.4344">
		<stop  offset="0" style="stop-color:#FFD06B"/>
		<stop  offset="0.2473" style="stop-color:#F39A6C"/>
		<stop  offset="0.5215" style="stop-color:#A46E63"/>
		<stop  offset="0.7312" style="stop-color:#725269"/>
		<stop  offset="0.9731" style="stop-color:#1A2040"/>
	</linearGradient>
	<path style="fill:url(#SVGID_12_);" d="M714,674.6c0-0.3,0-0.6,0.1-0.7C714.1,673.7,714.1,674,714,674.6z"/>
	<linearGradient id="SVGID_13_" gradientUnits="userSpaceOnUse" x1="732.4329" y1="668.2924" x2="732.4329" y2="660.4925">
		<stop  offset="0" style="stop-color:#FFD06B"/>
		<stop  offset="0.2473" style="stop-color:#F39A6C"/>
		<stop  offset="0.5215" style="stop-color:#A46E63"/>
		<stop  offset="0.7312" style="stop-color:#725269"/>
		<stop  offset="0.9731" style="stop-color:#1A2040"/>
	</linearGradient>
	<path style="fill:url(#SVGID_13_);" d="M732.1,666c0-1.8,0.1-3,0.4-3.5C732.9,661.9,732.7,663.3,732.1,666z"/>
	<linearGradient id="SVGID_14_" gradientUnits="userSpaceOnUse" x1="745.2987" y1="674.7033" x2="745.2987" y2="670.3193">
		<stop  offset="0" style="stop-color:#FFD06B"/>
		<stop  offset="0.2473" style="stop-color:#F39A6C"/>
		<stop  offset="0.5215" style="stop-color:#A46E63"/>
		<stop  offset="0.7312" style="stop-color:#725269"/>
		<stop  offset="0.9731" style="stop-color:#1A2040"/>
	</linearGradient>
	<path style="fill:url(#SVGID_14_);" d="M745.1,673.4c0-0.7,0.1-1.3,0.2-1.6C745.6,670.9,745.5,671.6,745.1,673.4z"/>
	<linearGradient id="SVGID_15_" gradientUnits="userSpaceOnUse" x1="846.897" y1="683.704" x2="846.897" y2="672.3102">
		<stop  offset="0" style="stop-color:#FFD06B"/>
		<stop  offset="0.2473" style="stop-color:#F39A6C"/>
		<stop  offset="0.5215" style="stop-color:#A46E63"/>
		<stop  offset="0.7312" style="stop-color:#725269"/>
		<stop  offset="0.9731" style="stop-color:#1A2040"/>
	</linearGradient>
	<path style="fill:url(#SVGID_15_);" d="M846.5,680.4c0.1-2.5,0.3-4.3,0.6-5C847.5,674.3,847.2,676.5,846.5,680.4z"/>
	<linearGradient id="SVGID_16_" gradientUnits="userSpaceOnUse" x1="862.607" y1="675.3316" x2="862.607" y2="675.005">
		<stop  offset="0" style="stop-color:#FFD06B"/>
		<stop  offset="0.2473" style="stop-color:#F39A6C"/>
		<stop  offset="0.5215" style="stop-color:#A46E63"/>
		<stop  offset="0.7312" style="stop-color:#725269"/>
		<stop  offset="0.9731" style="stop-color:#1A2040"/>
	</linearGradient>
	<path style="fill:url(#SVGID_16_);" d="M862.6,675.2C862.6,675,862.7,675,862.6,675.2L862.6,675.2z"/>
	<linearGradient id="SVGID_17_" gradientUnits="userSpaceOnUse" x1="1130.3574" y1="674.3621" x2="1130.3574" y2="666.2252">
		<stop  offset="0" style="stop-color:#FFD06B"/>
		<stop  offset="0.2473" style="stop-color:#F39A6C"/>
		<stop  offset="0.5215" style="stop-color:#A46E63"/>
		<stop  offset="0.7312" style="stop-color:#725269"/>
		<stop  offset="0.9731" style="stop-color:#1A2040"/>
	</linearGradient>
	<path style="fill:url(#SVGID_17_);" d="M1130.7,672c-0.7-2.5-1-4.1-0.4-3.7C1130.8,668.7,1130.8,670.1,1130.7,672z"/>
	<linearGradient id="SVGID_18_" gradientUnits="userSpaceOnUse" x1="1166.0771" y1="697.4692" x2="1166.0771" y2="685.0285">
		<stop  offset="0" style="stop-color:#FFD06B"/>
		<stop  offset="0.2473" style="stop-color:#F39A6C"/>
		<stop  offset="0.5215" style="stop-color:#A46E63"/>
		<stop  offset="0.7312" style="stop-color:#725269"/>
		<stop  offset="0.9731" style="stop-color:#1A2040"/>
	</linearGradient>
	<path style="fill:url(#SVGID_18_);" d="M1165.9,688.4c0.6,1,0.8,3,0.8,5.4C1165.7,689.8,1165.1,687,1165.9,688.4z"/>
	<linearGradient id="SVGID_19_" gradientUnits="userSpaceOnUse" x1="1130.3574" y1="675.2389" x2="1130.3574" y2="667.6119">
		<stop  offset="0" style="stop-color:#FFD06B"/>
		<stop  offset="0.2473" style="stop-color:#F39A6C"/>
		<stop  offset="0.5215" style="stop-color:#A46E63"/>
		<stop  offset="0.7312" style="stop-color:#725269"/>
		<stop  offset="0.9731" style="stop-color:#1A2040"/>
	</linearGradient>
	<path style="fill:url(#SVGID_19_);" d="M1130.7,672c-0.7-2.5-1-4.1-0.4-3.7C1130.8,668.7,1130.8,670.1,1130.7,672z"/>
	<linearGradient id="SVGID_20_" gradientUnits="userSpaceOnUse" x1="1166.0771" y1="698.8098" x2="1166.0771" y2="687.1486">
		<stop  offset="0" style="stop-color:#FFD06B"/>
		<stop  offset="0.2473" style="stop-color:#F39A6C"/>
		<stop  offset="0.5215" style="stop-color:#A46E63"/>
		<stop  offset="0.7312" style="stop-color:#725269"/>
		<stop  offset="0.9731" style="stop-color:#1A2040"/>
	</linearGradient>
	<path style="fill:url(#SVGID_20_);" d="M1165.9,688.4c0.6,1,0.8,3,0.8,5.4C1165.7,689.8,1165.1,687,1165.9,688.4z"/>
	<linearGradient id="SVGID_21_" gradientUnits="userSpaceOnUse" x1="1549.1925" y1="661.9031" x2="1549.1925" y2="660.7214">
		<stop  offset="0" style="stop-color:#FFD06B"/>
		<stop  offset="0.2473" style="stop-color:#F39A6C"/>
		<stop  offset="0.5215" style="stop-color:#A46E63"/>
		<stop  offset="0.7312" style="stop-color:#725269"/>
		<stop  offset="0.9731" style="stop-color:#1A2040"/>
	</linearGradient>
	<path style="fill:url(#SVGID_21_);" d="M1549.2,660.9c0,0.1,0.1,0.3,0.1,0.5C1549.2,661.1,1549.2,660.9,1549.2,660.9
		C1549.2,660.8,1549.2,660.8,1549.2,660.9z"/>
	<linearGradient id="SVGID_22_" gradientUnits="userSpaceOnUse" x1="1621.3181" y1="627.7639" x2="1621.3181" y2="626.7968">
		<stop  offset="0" style="stop-color:#FFD06B"/>
		<stop  offset="0.2473" style="stop-color:#F39A6C"/>
		<stop  offset="0.5215" style="stop-color:#A46E63"/>
		<stop  offset="0.7312" style="stop-color:#725269"/>
		<stop  offset="0.9731" style="stop-color:#1A2040"/>
	</linearGradient>
	<path style="fill:url(#SVGID_22_);" d="M1621.4,627.4c0-0.3-0.1-0.4-0.1-0.5c0,0,0,0,0,0C1621.3,627,1621.4,627.1,1621.4,627.4z"/>
	<linearGradient id="SVGID_23_" gradientUnits="userSpaceOnUse" x1="1663.7355" y1="607.996" x2="1663.7355" y2="607.1638">
		<stop  offset="0" style="stop-color:#FFD06B"/>
		<stop  offset="0.2473" style="stop-color:#F39A6C"/>
		<stop  offset="0.5215" style="stop-color:#A46E63"/>
		<stop  offset="0.7312" style="stop-color:#725269"/>
		<stop  offset="0.9731" style="stop-color:#1A2040"/>
	</linearGradient>
	<path style="fill:url(#SVGID_23_);" d="M1663.8,607.6c-0.1-0.4-0.1-0.5,0-0.3C1663.8,607.4,1663.8,607.5,1663.8,607.6z"/>
	<linearGradient id="SVGID_24_" gradientUnits="userSpaceOnUse" x1="1673.3018" y1="598.4003" x2="1673.3018" y2="597.6124">
		<stop  offset="0" style="stop-color:#FFD06B"/>
		<stop  offset="0.2473" style="stop-color:#F39A6C"/>
		<stop  offset="0.5215" style="stop-color:#A46E63"/>
		<stop  offset="0.7312" style="stop-color:#725269"/>
		<stop  offset="0.9731" style="stop-color:#1A2040"/>
	</linearGradient>
	<path style="fill:url(#SVGID_24_);" d="M1673.3,598.1c0-0.2-0.1-0.3-0.1-0.4c0,0,0,0.1,0,0.1C1673.3,597.8,1673.3,598,1673.3,598.1
		z"/>
	<linearGradient id="SVGID_25_" gradientUnits="userSpaceOnUse" x1="1913.0361" y1="761.2757" x2="1913.0361" y2="753.2534">
		<stop  offset="0" style="stop-color:#FFD06B"/>
		<stop  offset="0.2473" style="stop-color:#F39A6C"/>
		<stop  offset="0.5215" style="stop-color:#A46E63"/>
		<stop  offset="0.7312" style="stop-color:#725269"/>
		<stop  offset="0.9731" style="stop-color:#1A2040"/>
	</linearGradient>
	<path style="fill:url(#SVGID_25_);" d="M1912.9,754.1c0.2,0.5,0.3,1.9,0.4,3.8C1912.8,755,1912.6,753.3,1912.9,754.1z"/>
	<linearGradient id="SVGID_26_" gradientUnits="userSpaceOnUse" x1="1988.8798" y1="753.9283" x2="1988.8798" y2="750.8726">
		<stop  offset="0" style="stop-color:#FFD06B"/>
		<stop  offset="0.2473" style="stop-color:#F39A6C"/>
		<stop  offset="0.5215" style="stop-color:#A46E63"/>
		<stop  offset="0.7312" style="stop-color:#725269"/>
		<stop  offset="0.9731" style="stop-color:#1A2040"/>
	</linearGradient>
	<path style="fill:url(#SVGID_26_);" d="M1989,752.6c-0.3-1.4-0.3-1.9-0.1-1.2C1988.9,751.7,1989,752.1,1989,752.6z"/>
	<linearGradient id="SVGID_27_" gradientUnits="userSpaceOnUse" x1="2012.2056" y1="754.3408" x2="2012.2056" y2="752.8345">
		<stop  offset="0" style="stop-color:#FFD06B"/>
		<stop  offset="0.2473" style="stop-color:#F39A6C"/>
		<stop  offset="0.5215" style="stop-color:#A46E63"/>
		<stop  offset="0.7312" style="stop-color:#725269"/>
		<stop  offset="0.9731" style="stop-color:#1A2040"/>
	</linearGradient>
	<path style="fill:url(#SVGID_27_);" d="M2012.2,753.7c-0.1-0.6-0.1-0.9,0-0.7C2012.2,753.1,2012.2,753.4,2012.2,753.7z"/>
	<linearGradient id="SVGID_28_" gradientUnits="userSpaceOnUse" x1="714.0524" y1="675.5103" x2="714.0524" y2="673.9188">
		<stop  offset="0" style="stop-color:#FFD06B"/>
		<stop  offset="0.2473" style="stop-color:#F39A6C"/>
		<stop  offset="0.5215" style="stop-color:#A46E63"/>
		<stop  offset="0.7312" style="stop-color:#725269"/>
		<stop  offset="0.9731" style="stop-color:#1A2040"/>
	</linearGradient>
	<path style="fill:url(#SVGID_28_);" d="M714,674.6c0-0.3,0-0.6,0.1-0.7C714.1,673.7,714.1,674,714,674.6z"/>
	<linearGradient id="SVGID_29_" gradientUnits="userSpaceOnUse" x1="732.4329" y1="670.0291" x2="732.4329" y2="662.7179">
		<stop  offset="0" style="stop-color:#FFD06B"/>
		<stop  offset="0.2473" style="stop-color:#F39A6C"/>
		<stop  offset="0.5215" style="stop-color:#A46E63"/>
		<stop  offset="0.7312" style="stop-color:#725269"/>
		<stop  offset="0.9731" style="stop-color:#1A2040"/>
	</linearGradient>
	<path style="fill:url(#SVGID_29_);" d="M732.1,666c0-1.8,0.1-3,0.4-3.5C732.9,661.9,732.7,663.3,732.1,666z"/>
	<linearGradient id="SVGID_30_" gradientUnits="userSpaceOnUse" x1="745.2987" y1="675.6794" x2="745.2987" y2="671.5701">
		<stop  offset="0" style="stop-color:#FFD06B"/>
		<stop  offset="0.2473" style="stop-color:#F39A6C"/>
		<stop  offset="0.5215" style="stop-color:#A46E63"/>
		<stop  offset="0.7312" style="stop-color:#725269"/>
		<stop  offset="0.9731" style="stop-color:#1A2040"/>
	</linearGradient>
	<path style="fill:url(#SVGID_30_);" d="M745.1,673.4c0-0.7,0.1-1.3,0.2-1.6C745.6,670.9,745.5,671.6,745.1,673.4z"/>
	<linearGradient id="SVGID_31_" gradientUnits="userSpaceOnUse" x1="846.897" y1="686.2408" x2="846.897" y2="675.561">
		<stop  offset="0" style="stop-color:#FFD06B"/>
		<stop  offset="0.2473" style="stop-color:#F39A6C"/>
		<stop  offset="0.5215" style="stop-color:#A46E63"/>
		<stop  offset="0.7312" style="stop-color:#725269"/>
		<stop  offset="0.9731" style="stop-color:#1A2040"/>
	</linearGradient>
	<path style="fill:url(#SVGID_31_);" d="M846.5,680.4c0.1-2.5,0.3-4.3,0.6-5C847.5,674.3,847.2,676.5,846.5,680.4z"/>
	<linearGradient id="SVGID_32_" gradientUnits="userSpaceOnUse" x1="862.607" y1="675.4043" x2="862.607" y2="675.0982">
		<stop  offset="0" style="stop-color:#FFD06B"/>
		<stop  offset="0.2473" style="stop-color:#F39A6C"/>
		<stop  offset="0.5215" style="stop-color:#A46E63"/>
		<stop  offset="0.7312" style="stop-color:#725269"/>
		<stop  offset="0.9731" style="stop-color:#1A2040"/>
	</linearGradient>
	<path style="fill:url(#SVGID_32_);" d="M862.6,675.2C862.6,675,862.7,675,862.6,675.2L862.6,675.2z"/>
	<linearGradient id="SVGID_33_" gradientUnits="userSpaceOnUse" x1="1173.2183" y1="715.3262" x2="1173.2183" y2="713.7505">
		<stop  offset="0" style="stop-color:#FFD06B"/>
		<stop  offset="0.2473" style="stop-color:#F39A6C"/>
		<stop  offset="0.5215" style="stop-color:#A46E63"/>
		<stop  offset="0.7312" style="stop-color:#725269"/>
		<stop  offset="0.9731" style="stop-color:#1A2040"/>
	</linearGradient>
	<path style="fill:url(#SVGID_33_);" d="M1173.3,713.7c0,0.1-0.1,0.4-0.2,0.8c0-0.2,0.1-0.3,0.1-0.4
		C1173.2,713.9,1173.3,713.8,1173.3,713.7z"/>
	<linearGradient id="SVGID_34_" gradientUnits="userSpaceOnUse" x1="1183.1334" y1="709.2318" x2="1183.1334" y2="706.8898">
		<stop  offset="0" style="stop-color:#FFD06B"/>
		<stop  offset="0.2473" style="stop-color:#F39A6C"/>
		<stop  offset="0.5215" style="stop-color:#A46E63"/>
		<stop  offset="0.7312" style="stop-color:#725269"/>
		<stop  offset="0.9731" style="stop-color:#1A2040"/>
	</linearGradient>
	<path style="fill:url(#SVGID_34_);" d="M1183.2,707.9c-0.1-0.6-0.1-0.9-0.1-1.1C1183.2,706.6,1183.2,707,1183.2,707.9z"/>
	<linearGradient id="SVGID_35_" gradientUnits="userSpaceOnUse" x1="1237.6584" y1="719.2881" x2="1237.6584" y2="717.9507">
		<stop  offset="0" style="stop-color:#FFD06B"/>
		<stop  offset="0.2473" style="stop-color:#F39A6C"/>
		<stop  offset="0.5215" style="stop-color:#A46E63"/>
		<stop  offset="0.7312" style="stop-color:#725269"/>
		<stop  offset="0.9731" style="stop-color:#1A2040"/>
	</linearGradient>
	<path style="fill:url(#SVGID_35_);" d="M1237.6,718.6c0-0.3,0-0.5,0.1-0.6C1237.7,717.8,1237.7,718,1237.6,718.6z"/>
	<linearGradient id="SVGID_36_" gradientUnits="userSpaceOnUse" x1="1334.2662" y1="807.102" x2="1334.2662" y2="805.1918">
		<stop  offset="0" style="stop-color:#FFD06B"/>
		<stop  offset="0.2473" style="stop-color:#F39A6C"/>
		<stop  offset="0.5215" style="stop-color:#A46E63"/>
		<stop  offset="0.7312" style="stop-color:#725269"/>
		<stop  offset="0.9731" style="stop-color:#1A2040"/>
	</linearGradient>
	<path style="fill:url(#SVGID_36_);" d="M1334.2,806.1c0-0.4,0-0.7,0.1-0.9C1334.4,804.9,1334.3,805.3,1334.2,806.1z"/>
	<rect x="-263.8" y="-432.4" style="fill:none;" width="1591.1" height="1591.1"/>
	<linearGradient id="SVGID_37_" gradientUnits="userSpaceOnUse" x1="-236.7211" y1="493.5148" x2="-120.4115" y2="255.0448">
		<stop  offset="0" style="stop-color:#1B1464"/>
		<stop  offset="9.651232e-02" style="stop-color:#154268"/>
		<stop  offset="0.2138" style="stop-color:#0F736C"/>
		<stop  offset="0.3302" style="stop-color:#099C70"/>
		<stop  offset="0.4434" style="stop-color:#05BC72"/>
		<stop  offset="0.5525" style="stop-color:#02D374"/>
		<stop  offset="0.6558" style="stop-color:#01E076"/>
		<stop  offset="0.747" style="stop-color:#00E576"/>
	</linearGradient>
	<path style="fill:url(#SVGID_37_);" d="M-273.4,210.1c0.8,1.1,3.9,9.4,4.4,10.7c0.6,1.4,1.9,8.8,1.9,8.8s7.2,14.3,4.4,15.1
		c-2.8,0.8-9.6-3.9-9.6-3.9l-5.3-4.1c0,0,1.9,13.5,3,16.5c1.1,3,1.7,9.1,2.2,12.4c0.5,3.3-0.2,10.2,0,12.7c0.2,2.5,1.1,8.5,0,9.9
		c-1.1,1.4-5.3,12.9-5.3,12.9s2.8,6.6,5.3,9.6c2.4,3,4.9,11.5,6,14.4c1.1,2.9,4.7,10.1,5.8,11.5c1.1,1.4,4.1,10.2,4.1,11.8
		c0,1.7-7.4-0.8-8.5-1.7c-1.1-0.8-11-6.6-12.1-8.8c-1.1-2.2-5.5-5.8-5.5-5.8s6.1,21.2,7.4,25.1c1.4,3.9,1.6,16.2,1.9,19
		c0.3,2.8,1.4,13.2,0.6,16.2c-0.8,3-6.1,6.3-6.1,6.3l-5.5,1.7l9.9,9.1l9.9,9.6c0,0,0.8,1.1,6.9,3.9c6.1,2.8,15.4,12.7,14.9,29.5
		c-0.5,16.8-8,28.6-8,28.6s12.7,15.4,23.1,15.1c10.5-0.3,23.7,8.8,24,10.7c0.3,1.9,56.4,0,56.4,0s52.3,33.3,53.5,33.7
		c1.2,0.4,45.8-23.3,45.8-23.3l-26.8-38c0,0-7-12.8,1.2-16.1c8.3-3.3,14.4-5.8,14.4-5.8s-16.5-16.9-16.9-19.4
		c-0.4-2.5-1.6-8.7-2.9-10.3c-1.2-1.7-17.3-22.7-18.2-24.4c-0.8-1.7-7.2-13.2-10-14.7c-7.1-3.6-15.6-8.5-17.4-11.6
		c-3.3-5.5-13.3-24-15.5-28.9c-2.2-5-11.8-10.5-11.8-10.5s-22-9.3-25.9-11.9c-3.9-2.6-21.4-13.4-21.4-13.4s-8-2.5-10.2-8
		c-2.2-5.5-19.2-32.1-24.1-42c-5-9.9-12.8-17.2-19.4-29.8c-6.6-12.7-13.5-28.4-17.9-37.2c-3.1-6.2-9.3-14.9-12.2-19.4
		c0,6.6,0,13.3,0,14C-282.5,191.4-274.3,209-273.4,210.1z M-219.7,323.8c2.9,3.4,6.9,8.9,6.9,8.9l2.3,1.4l4.8,1.8c0,0,5.1,8,5.6,8.4
		c0.5,0.4,3.2,1.5,4.4,1.5c1.2,0,11.4,3.6,12,3.9c0.6,0.3,6.5,8.3,7.4,9.5c1,1.2,3.7,4.1,4.8,5c1.1,0.8,3.8,3.3,3.8,5.9
		c0,2.6,1.5,5.5,2.5,6.7c1,1.2,8.3,6.1,8.4,8.3c0.1,2.2,2.9,7.8,2.9,7.8l-16.4-10.7c0,0-5.1-1.1-6.9-1.1c-1.8,0-4.7,2.2-5.1,2.2
		c-0.4,0-6.5-2.9-6.9-3.3c-0.4-0.4-5-6.3-6.5-7.8c-1.5-1.5-13.1-4.5-13.5-4.5c-0.4,0-8.9-1.1-8.9-1.1s-9.1-8.8-9.6-8.9
		c-0.6-0.1-2.5-7.8-2.5-7.8s0.8-28.8-1.6-37.6C-231.7,312.1-222.6,320.3-219.7,323.8z"/>
	<linearGradient id="SVGID_38_" gradientUnits="userSpaceOnUse" x1="163.0434" y1="124.6596" x2="160.8402" y2="567.2899">
		<stop  offset="0" style="stop-color:#1B1464"/>
		<stop  offset="0.747" style="stop-color:#00E576"/>
	</linearGradient>
	<path style="fill:url(#SVGID_38_);" d="M121.6,279.7l3.9,6.9c0,0,1.9,6.1,2.7,6.6c0.8,0.5,0,6.9,0,6.9l-2.2,1.4c0,0,5.4,5,2.6,6.6
		c-2.8,1.7-5.3,3.3-5.3,3.3s5.4,11.6,6.2,12.4c0.7,0.8,6.5,5.2,6.5,5.2s12.9,12.4,14.6,13.8c1.7,1.4,6.1,5.5,7.7,7.4
		c1.7,1.9,5.5,6.9,5.5,6.9s1.1-4.1,6.6-3.3c5.5,0.8,11,3,13.8,6.1c2.8,3,5.8,5.2,9.6,8.3c3.9,3,9.1,5.8,10.5,7.7
		c1.4,1.9,4.1,5.5,4.1,5.5s-7.4-25.3-10.7-31.7c-3.3-6.3,2.5-6.1-6.1-13.2c-8.5-7.2-9.1-11.3-10.5-12.9c-0.6-0.8-0.9-3.1-1.1-5.5
		c-5-4.4-11.3-11.4-15.2-16c-7.7-8.8-15.1-12.4-24.5-21.3c-7.8-7.4-20.6-18.5-24.4-22c0.6,1.6,1.1,3,1.3,3.9
		C117.7,265.1,121.6,279.7,121.6,279.7z"/>
	<linearGradient id="SVGID_39_" gradientUnits="userSpaceOnUse" x1="-523.9993" y1="471.8161" x2="-523.9993" y2="161.4139">
		<stop  offset="0" style="stop-color:#1B1464;stop-opacity:0.8"/>
		<stop  offset="0.546" style="stop-color:#00E576"/>
	</linearGradient>
	<path style="fill:url(#SVGID_39_);" d="M-596,152c1.2,1.2,3.3,12,3.3,14.9c0,2.9-1.8,10.7-1.8,10.7l-5.2,12.8c0,0,9.9,8.3,11.6,9.5
		c1.7,1.2,4.1,13.6,4.1,13.6s1.2,12.4,2.5,12.4c1.2,0,5.8,21.1,5.8,21.1l-3.3,3.7c0,0,1.7,9.5,3.3,11.6c1.7,2.1,1.7,6.2-2.5,8.7
		c-4.1,2.5-10.7,5.4-10.7,5.4h-8.7c0,0,15.3,10.7,19,19c3.7,8.3,9.5,25.6,8.7,27.7c-0.8,2.1-5.4,12-5.4,12h-6.6h-12.4
		c0,0,5.8,10.3,5.4,14.5c-0.4,4.1-2.9,9.1-2.9,9.1l5,7.8c0,0-6.6,11.6-12.8,16.9c-6.2,5.4-13.6,2.5-13.6,2.5l-8.3-15.7
		c0,0-8.3-1.2-7.8-3.3c0.4-2.1,0.8-9.1,0-12.8c-0.8-3.7-4.1-28.7-4.1-28.7s-8.7,23.3-11.1,27c-2.5,3.7-9.5,14.5-9.9,15.7
		c-0.4,1.2,4.1,20.2,4.1,20.2s5.8,3.7,5.8,6.6c0,2.9,4.1,5,4.1,5s2.9,0,5,0c2.1,0,3.3,13.1,3.7,14.6c0.4,1.5,1.2,6.9-0.4,9.8
		c-1.7,2.9-11.1,16.9-11.1,16.9l-4.5,8.3l27.7,26.4l151.9,16.1l42.9-13.6l4.5-21.5c0,0,0-4.5-2.5-7.4c-2.5-2.9-9.5-18.2-2.9-20.2
		c6.6-2.1,25.6,11.2,25.6,11.2v-15.7c0,0-0.8-9.6,1.2-10.2c2.1-0.5,6.2,0,6.2,0s-7-13.3-9.1-17.1c-2.1-3.7-7-12.8-12-19
		c-5-6.2-7.8-15.3-7-19c0.8-3.7,7.4-10.7,7.4-10.7l2.9-3.7l10.3,3.3c0,0-7.4-9.9-9.1-12.8c-1.7-2.9-2.1-8.9-1.7-11.9
		c-2.7-1.1-4.7-3.5-6.6-4.7c-6.1-3.9-8.2-3.1-9.3-7c-1.1-3.9-7.3-4.5-11.7-8.4c-4.4-3.9-6.4-7.7-14.1-16.5
		c-7.7-8.8-12.4-11-17.4-12.1c-5-1.1-31.1-8.9-33.3-13.3c-2.2-4.4-16.9-17.1-21.9-20.4c-5-3.3-14.1-21.2-20.7-30.5
		c-6.6-9.4-20.4-28.5-26.5-33.4c-6.1-5-8.9-11.6-11.1-18.8c-2.2-7.2-10.3-18.5-10.3-18.5s-0.6,0.8-1.5,1.2
		C-596.2,146-596.7,151.3-596,152z M-517.6,269.3c1.4,1.9,8.9,9.1,10.1,9.7c1.2,0.6,8.7,12.6,10.5,13.8c1.9,1.2,13,5.2,13.8,5.4
		c0.8,0.2,18.4,8.3,18.4,8.3s-3.3-8.5-2.5-8.5c0.8,0,7,7.8,8.1,8.5c1,0.6,6.8,7,7.6,7.6c0.8,0.6,0,10.4,2.9,11.2
		c2.9,0.8,7.2,3.3,8.3,3.1c1-0.2,10.1,6.4,10.1,6.4l-5.4,5c0,0-2.9,0.2-2.9,1.9c0,1.7,1.4,6.2,1.4,6.2s-7.4-2.5-8.9-2.3
		c-1.4,0.2-9.3,1-10.7,2.3c-1.4,1.2-1.9,12.2-1.4,12.8c0.4,0.6,2.1,11.4,3.1,13.6c1,2.3,6.6,11.8,6.6,11.8s-10.9-8.9-12-8.9
		c-1,0-10.7-5.6-10.7-5.6s-9.3-5.6-9.1-7.8c0.2-2.3-3.5-12.2-3.5-12.2l-5-6c0,0,3.1-4.1,3.7-4.7c0.6-0.6,2.7-7,1.2-10.7
		c-1.4-3.7-9.7-18.4-10.9-20.9c-1.2-2.5-10.5-7.8-11.6-7.8c-1,0-4.1,4.1-4.1,4.1l-10.3-3.7l-3.3-0.8c0,0,1-8.9,1.7-10.3
		c0.6-1.4,1.2-5.6,1.4-6.2c0.2-0.6-3.7-12.2-4.1-14.7c-0.4-2.5-5.2-18.6-5.2-18.6S-519,267.4-517.6,269.3z"/>
	<linearGradient id="SVGID_40_" gradientUnits="userSpaceOnUse" x1="-821.508" y1="442.6736" x2="-812.1992" y2="170.0746">
		<stop  offset="0" style="stop-color:#1B1464;stop-opacity:0.8"/>
		<stop  offset="0.546" style="stop-color:#00E576"/>
	</linearGradient>
	<path style="fill:url(#SVGID_40_);" d="M-848.5,243.4c0.6,0.8,5.6,9.7,5.6,10.7c0,1-0.8,5.6,0,5.6c0.8,0,9.3,5.4,9.3,5.4
		s9.3-0.2,10.3,2.7c1,2.9,2.3,7.2,3.7,7.8c1.4,0.6,7,3.1,8.3,3.1c1.2,0,5.2,5.8,6.2,6.6c1,0.8,6.2,1.2,7.4,1.4
		c1.2,0.2,9.1,3.1,9.9,3.9c0.8,0.8,11.8,12.6,11.8,12.6s-19.4-29.1-19.6-31.2c-0.2-2.1-2.2-11.5-2.1-13c0-0.3-0.2-0.8-0.4-1.4
		c-2.2,0.5-4.1,0.7-7.1-0.8c-5.5-2.8-25.3-17.6-30.8-22c-4.6-3.7-15.4-7.4-18.7-8.5c1.4,3.1,3.8,8.6,4.4,9.2
		C-849.5,236.4-849.1,242.6-848.5,243.4z"/>
	<linearGradient id="SVGID_41_" gradientUnits="userSpaceOnUse" x1="636.4575" y1="275.7995" x2="294.1965" y2="275.7995">
		<stop  offset="0" style="stop-color:#1B1464"/>
		<stop  offset="0.747" style="stop-color:#00E576"/>
	</linearGradient>
	<path style="fill:url(#SVGID_41_);" d="M587.6,318.3c-11-12.1-29.2-20.9-31.9-21.5c-2.8-0.5-13.9-13.8-13.9-13.8
		s-5.5-10.1-5.5-12.8c0-2.8-5.6-9.2-5.6-9.2s-21.1,0.4-23.9-2.4c-2.8-2.8-11.9-5.8-11.9-5.8l-13.2-0.5c0,0-16.1-25.1-20.5-32.8
		c-4.4-7.7-9.5-17.1-13.9-27.6c-4.4-10.5-12.1-38.1-20.9-46.4c-8.8-8.3-25.8-24.1-29.1-32.9c-3.3-8.8-7.2-12.3-7.2-12.3
		s-1.6,5.6-3.8,11.5c2.4,4.4,5.3,9.4,6.6,10.9c2.5,2.9,12,16.9,12,21.9c0,5,0,11.6,0,11.6s8.3,2.9,8.7,6.6c0.4,3.7-1.7,23.9,0,25.2
		c1.6,1.2-7.4,0-12-2.5c-4.5-2.5-5.4-4.1-6.2-5.8c-0.8-1.7-9.9-13.2-9.9-13.2s2.5,17.3,2.5,25.6c0,8.3,1.2,18.2,0,19
		c-1.2,0.8-5.8,5-5.8,5s17.8,9.9,19,10.3c1.2,0.4,12.8,5.8,15.3,9.5c2.5,3.7,6.6,16.1,6.6,19c0,2.9-1.2,11.1-4.5,11.6
		c-3.3,0.4-9.1,0.4-11.6,2.1c-2.5,1.7-2.1,6.2-0.8,6.2c1.2,0,5,9.1,0.8,9.9c-4.1,0.8-10.3,6.2-12,6.2c-1.7,0-6.2-2.5-7,0
		c-0.8,2.5-3.7,13.6-3.3,15.7c0.4,2.1,5,13.6,12.8,22.3c7.8,8.7,17.3,25.6,19.4,31c2.1,5.4,6.2,15.3,6.2,15.3s12.8,1.7,18.6,0
		c5.8-1.7,11.1,0.4,16.1,4.1c5,3.7,21.9,17.8,27.7,22.7c5.8,5,14,10.7,15.7,13.6c1.6,2.9,7.8,11.6,7.8,11.6s-0.8-7.8,0-9.1
		c0.8-1.2,6.2-3.7,9.5-2.5c3.3,1.2,7.4,2.1,12.4,7.4c5,5.4,14.5,8.3,14.9,9.5c0.4,1.2,4.1,15.7,4.1,15.7s6.6-5.4,7.4-8.7
		c0.8-3.3,16.5,0,19,0c2.5,0,8.7,4.5,14.9,4.1c6.2-0.4,8.3,6.6,9.5,7.4c1.2,0.8,10.3,0,10.3,0s7-3.4,10.2-7.1v-97.2
		C621.1,346.7,598.6,330.4,587.6,318.3z M516.3,329.3c0,0-12.4,2.1-18.4-0.8c-6-2.9-15.5-13.8-15.5-13.8s-5.8-4.3-4.7-7
		c1-2.7,3.3-14.7,3.3-14.7l7.8,3.7c0,0,0.6-3.1,0.4-3.9c-0.2-0.8-0.2-6.6-0.4-9.5c-0.2-2.9-7.8-13.4-7.8-13.4l28.7,3.3
		c0,0,10.1,5.2,10.1,7c0,1.9,4.1,12.6,4.1,12.6l5.4,3.9c0,0,7.4,13.6,7.6,15.1c0.2,1.4,4.5,3.5,6.2,4.7c1.7,1.2,10.7,7.4,13.4,9.7
		c2.7,2.3,7,15.5,7,15.5s-32-16.5-33.4-16.5C528.7,325.3,516.3,329.3,516.3,329.3z M569.6,409.2c-3.3-1.7-7-6.8-9.3-7.6
		c-2.3-0.8-20.6-5.4-20.6-5.4s-4.3-3.7-7.2-8.3c-2.9-4.5-6.8-6.8-8.1-7.4c-1.2-0.6-3.8-3.5-3.8-3.5s8.1,0.6,7.9-5.6
		c0-0.6,1,3.7,7.4,6c6.4,2.3,12.8,3.9,16.7,7.4c3.9,3.5,8.9,7.2,12.8,9.7c3.9,2.5,8.9,6.6,9.5,7.2c0.6,0.6,6.4,6.4,6.4,6.4
		S572.9,410.9,569.6,409.2z"/>
	<linearGradient id="SVGID_42_" gradientUnits="userSpaceOnUse" x1="-690.5024" y1="373.423" x2="-659.1223" y2="175.2341">
		<stop  offset="0" style="stop-color:#1B1464;stop-opacity:0.8"/>
		<stop  offset="0.546" style="stop-color:#00E576"/>
	</linearGradient>
	<path style="fill:url(#SVGID_42_);" d="M-694.9,248.2c0,0,3.4-4.4,4.8-5.8c1.4-1.4,3-3.4,3-4.5s1.6-6.1,2.6-6.5
		c1-0.4,5-0.7,5.8-1.2c0.8-0.6,2.6-2.9,2.6-2.9s12.1,7.7,12.8,8.3c0.7,0.5,3.3,2.9,4,4.3c0.7,1.4,0.7,5.5,1.5,6.3
		c0.8,0.8,2.4,3.7,3,4.7c0.6,1,0.6,7.7,1.5,9.2c1,1.5,2.5,5.8,2.3,7.2c-0.1,1.4,0,8.3,0,8.3l-9.2-11c0,0-7.2-3.3-8.7-4.3
		c-1.5-1-3.9-4.8-4.8-5.9c-1-1.1-2.9-1.7-4.1-2.2c-1.2-0.6-4.3-5.1-4.4-5.6C-682.2,245.8-692.4,247.2-694.9,248.2z"/>
	<linearGradient id="SVGID_43_" gradientUnits="userSpaceOnUse" x1="-675.2784" y1="334.0733" x2="-643.8983" y2="135.8849">
		<stop  offset="0" style="stop-color:#1B1464;stop-opacity:0.8"/>
		<stop  offset="0.546" style="stop-color:#00E576"/>
	</linearGradient>
	<path style="fill:url(#SVGID_43_);" d="M-688,226.2c0,0,17.3,9.2,18.7,10c1.4,0.8,5.8,10.6,6.5,11.7c0.7,1.1,5.6,10.5,6.1,10.7
		c0.4,0.3,7.3,6.5,7.7,6.9c0.4,0.4,1.1,13.9,1.1,14.4c0,0.6,1.6,4.4,3.2,8c1.5,3.6,3.9,15.4,3.9,16c0,0.5,1,7.2,1,7.2
		s-8.5-10.3-8.8-10.7c-0.3-0.4-4.8-7.6-4.8-7.6s-2.9-5.4-4.4-6.1c-1.5-0.7-5.8-0.6-6.6-0.4c-0.8,0.1-9.4,4.5-11.7,5
		c-2.3,0.4-8.3,4.4-9.4,6.7c-1.1,2.3-4.5,5.9-4.5,5.9l4-14.5c0,0,8.8-8.9,9.9-9.9c1.1-1,4.4-5.5,4.4-5.5l-4.1-8.7c0,0-4-8.1-4.8-8.8
		c-0.8-0.7-11-9.2-11.6-9.6c-0.6-0.4,0-5.2,0-5.2l5.6-1.8c0,0,4.8-9.5-0.4-13.8"/>
	<linearGradient id="SVGID_44_" gradientUnits="userSpaceOnUse" x1="-814.9431" y1="415.0647" x2="-805.6339" y2="142.4555">
		<stop  offset="0" style="stop-color:#1B1464;stop-opacity:0.8"/>
		<stop  offset="0.546" style="stop-color:#00E576"/>
	</linearGradient>
	<path style="fill:url(#SVGID_44_);" d="M-866.1,241.6c0,0,48.3,39.6,50.2,40.9c1.9,1.2,16.9,14.2,17.3,15.3
		c0.4,1,1.7,10.3,1.7,11.6c0,1.2,1.6,12.4,1.6,13.6c0,1.2,1.4,3.9,2.3,4.8c0.8,1,14.4,18.5,16.9,22.8c2.5,4.3,9.9,21.1,10.3,21.9
		c0.4,0.8,8.7,18.2,8.7,18.2l-23.1-16.3c0,0-5-1-12.8-4.5c-7.8-3.5-13.8-8-15.3-9.3c-1.4-1.2-9.9-2.5-12.6-4.3
		c-2.7-1.9-6.2-7.8-6.2-8.9c0-1-4.5-16.5-5.4-18.2c-0.8-1.7-6.8-8.1-7.8-9.5c-1-1.4-11.6-7.8-12-14.9c-0.4-7-5.4-28.3-5.6-34.5
		c-0.2-6.2-0.8-7.6-2.3-10.3C-861.5,257.3-866.1,241.6-866.1,241.6z"/>
	<linearGradient id="SVGID_45_" gradientUnits="userSpaceOnUse" x1="-912.0157" y1="764.9763" x2="-892.4353" y2="318.7448">
		<stop  offset="0" style="stop-color:#1B1464;stop-opacity:0.8"/>
		<stop  offset="0.546" style="stop-color:#00E576"/>
	</linearGradient>
	<path style="fill:url(#SVGID_45_);" d="M-884,413.4c0,0,0,9.9-2.3,12.6c-2.3,2.7-3.7,6.4-7.6,8.3c-3.9,1.9-9.5,7.2-9.5,7.2
		l-7.2,5.6c0,0,8.1-12,8.9-13.4c0.8-1.4,4.1-6.8,4.4-7.2c0.3-0.4,4.2-4.3,4.9-5C-891.9,420.8-884,413.4-884,413.4z"/>
	<linearGradient id="SVGID_46_" gradientUnits="userSpaceOnUse" x1="-387.8078" y1="628.4684" x2="-387.8078" y2="620.8412">
		<stop  offset="0" style="stop-color:#FFD06B"/>
		<stop  offset="0.2473" style="stop-color:#F39A6C"/>
		<stop  offset="0.5215" style="stop-color:#A46E63"/>
		<stop  offset="0.7312" style="stop-color:#725269"/>
		<stop  offset="0.9731" style="stop-color:#1A2040"/>
	</linearGradient>
	<path style="fill:url(#SVGID_46_);" d="M-387.5,625.2c-0.7-2.5-1-4.1-0.4-3.7C-387.4,621.9-387.3,623.3-387.5,625.2z"/>
	<linearGradient id="SVGID_47_" gradientUnits="userSpaceOnUse" x1="-352.102" y1="652.0143" x2="-352.102" y2="640.3789">
		<stop  offset="0" style="stop-color:#FFD06B"/>
		<stop  offset="0.2473" style="stop-color:#F39A6C"/>
		<stop  offset="0.5215" style="stop-color:#A46E63"/>
		<stop  offset="0.7312" style="stop-color:#725269"/>
		<stop  offset="0.9731" style="stop-color:#1A2040"/>
	</linearGradient>
	<path style="fill:url(#SVGID_47_);" d="M-352.3,641.7c0.6,1,0.8,3,0.8,5.4C-352.5,643.1-353.1,640.3-352.3,641.7z"/>
	<linearGradient id="SVGID_48_" gradientUnits="userSpaceOnUse" x1="31.0273" y1="615.1324" x2="31.0273" y2="613.9507">
		<stop  offset="0" style="stop-color:#FFD06B"/>
		<stop  offset="0.2473" style="stop-color:#F39A6C"/>
		<stop  offset="0.5215" style="stop-color:#A46E63"/>
		<stop  offset="0.7312" style="stop-color:#725269"/>
		<stop  offset="0.9731" style="stop-color:#1A2040"/>
	</linearGradient>
	<path style="fill:url(#SVGID_48_);" d="M31.1,614.6c-0.1-0.3-0.1-0.5-0.1-0.6c0,0,0,0,0,0C31,614.2,31.1,614.4,31.1,614.6z"/>
	<linearGradient id="SVGID_49_" gradientUnits="userSpaceOnUse" x1="103.1529" y1="580.9934" x2="103.1529" y2="580.0261">
		<stop  offset="0" style="stop-color:#FFD06B"/>
		<stop  offset="0.2473" style="stop-color:#F39A6C"/>
		<stop  offset="0.5215" style="stop-color:#A46E63"/>
		<stop  offset="0.7312" style="stop-color:#725269"/>
		<stop  offset="0.9731" style="stop-color:#1A2040"/>
	</linearGradient>
	<path style="fill:url(#SVGID_49_);" d="M103.2,580.6c0-0.3-0.1-0.4-0.1-0.5c0,0,0,0,0,0C103.2,580.2,103.2,580.4,103.2,580.6z"/>
	<linearGradient id="SVGID_50_" gradientUnits="userSpaceOnUse" x1="145.5703" y1="561.2254" x2="145.5703" y2="560.3931">
		<stop  offset="0" style="stop-color:#FFD06B"/>
		<stop  offset="0.2473" style="stop-color:#F39A6C"/>
		<stop  offset="0.5215" style="stop-color:#A46E63"/>
		<stop  offset="0.7312" style="stop-color:#725269"/>
		<stop  offset="0.9731" style="stop-color:#1A2040"/>
	</linearGradient>
	<path style="fill:url(#SVGID_50_);" d="M145.6,560.9c-0.1-0.4-0.1-0.5,0-0.3C145.6,560.6,145.6,560.7,145.6,560.9z"/>
	<linearGradient id="SVGID_51_" gradientUnits="userSpaceOnUse" x1="155.1364" y1="551.6296" x2="155.1364" y2="550.8419">
		<stop  offset="0" style="stop-color:#FFD06B"/>
		<stop  offset="0.2473" style="stop-color:#F39A6C"/>
		<stop  offset="0.5215" style="stop-color:#A46E63"/>
		<stop  offset="0.7312" style="stop-color:#725269"/>
		<stop  offset="0.9731" style="stop-color:#1A2040"/>
	</linearGradient>
	<path style="fill:url(#SVGID_51_);" d="M155.2,551.3c0-0.2-0.1-0.3-0.1-0.4c0,0,0,0.1,0,0.1C155.2,551.1,155.2,551.2,155.2,551.3z"
		/>
	<linearGradient id="SVGID_52_" gradientUnits="userSpaceOnUse" x1="206.8521" y1="629.2457" x2="206.8521" y2="627.5114">
		<stop  offset="0" style="stop-color:#FFD06B"/>
		<stop  offset="0.2473" style="stop-color:#F39A6C"/>
		<stop  offset="0.5215" style="stop-color:#A46E63"/>
		<stop  offset="0.7312" style="stop-color:#725269"/>
		<stop  offset="0.9731" style="stop-color:#1A2040"/>
	</linearGradient>
	<path style="fill:url(#SVGID_52_);" d="M206.8,628.5c0-0.4,0-0.7,0.1-0.8C207,627.5,207,627.8,206.8,628.5z"/>
	<linearGradient id="SVGID_53_" gradientUnits="userSpaceOnUse" x1="470.7146" y1="548.1822" x2="470.7146" y2="545.1265">
		<stop  offset="0" style="stop-color:#FFD06B"/>
		<stop  offset="0.2473" style="stop-color:#F39A6C"/>
		<stop  offset="0.5215" style="stop-color:#A46E63"/>
		<stop  offset="0.7312" style="stop-color:#725269"/>
		<stop  offset="0.9731" style="stop-color:#1A2040"/>
	</linearGradient>
	<path style="fill:url(#SVGID_53_);" d="M470.8,546.9c-0.3-1.4-0.3-1.9-0.1-1.2C470.8,545.9,470.8,546.4,470.8,546.9z"/>
	<linearGradient id="SVGID_54_" gradientUnits="userSpaceOnUse" x1="494.0381" y1="548.6205" x2="494.0381" y2="547.0863">
		<stop  offset="0" style="stop-color:#FFD06B"/>
		<stop  offset="0.2473" style="stop-color:#F39A6C"/>
		<stop  offset="0.5215" style="stop-color:#A46E63"/>
		<stop  offset="0.7312" style="stop-color:#725269"/>
		<stop  offset="0.9731" style="stop-color:#1A2040"/>
	</linearGradient>
	<path style="fill:url(#SVGID_54_);" d="M494.1,548c-0.1-0.6-0.1-0.9,0-0.7C494.1,547.4,494.1,547.6,494.1,548z"/>
	<linearGradient id="SVGID_55_" gradientUnits="userSpaceOnUse" x1="206.8521" y1="631.4278" x2="206.8521" y2="628.5609">
		<stop  offset="0" style="stop-color:#FFD06B"/>
		<stop  offset="0.2473" style="stop-color:#F39A6C"/>
		<stop  offset="0.5215" style="stop-color:#A46E63"/>
		<stop  offset="0.7312" style="stop-color:#725269"/>
		<stop  offset="0.9731" style="stop-color:#1A2040"/>
	</linearGradient>
	<path style="fill:url(#SVGID_55_);" d="M206.8,628.5c0-0.4,0-0.7,0.1-0.8C207,627.5,207,627.8,206.8,628.5z"/>
	<rect x="-972.9" y="-432.4" style="fill:none;" width="1591.1" height="1591.1"/>
</g>
</svg>
