<?xml version="1.0" encoding="utf-8"?>
<!-- Generator: Adobe Illustrator 23.0.0, SVG Export Plug-In . SVG Version: 6.00 Build 0)  -->
<svg version="1.1" id="Layer_1" xmlns="http://www.w3.org/2000/svg" xmlns:xlink="http://www.w3.org/1999/xlink" x="0px" y="0px"
	 viewBox="0 0 1920 540" style="enable-background:new 0 0 1920 540;" xml:space="preserve">
<linearGradient id="SVGID_1_" gradientUnits="userSpaceOnUse" x1="985.605" y1="204.09" x2="985.605" y2="672.37">
	<stop  offset="0.5804" style="stop-color:#1B1464"/>
	<stop  offset="0.6393" style="stop-color:#1A1864"/>
	<stop  offset="0.6975" style="stop-color:#192465"/>
	<stop  offset="0.7555" style="stop-color:#163867"/>
	<stop  offset="0.8133" style="stop-color:#135469"/>
	<stop  offset="0.8711" style="stop-color:#0E776D"/>
	<stop  offset="0.9288" style="stop-color:#08A370"/>
	<stop  offset="0.9855" style="stop-color:#02D775"/>
	<stop  offset="1" style="stop-color:#00E576"/>
</linearGradient>
<path style="fill:url(#SVGID_1_);" d="M2230.3,398.9v273.5H831.5v-18.6H-259.1V364.9c0,0,13.8-5,18.2-6.2c4.4-1.2,10.7-5.1,13.9-9.1
	c3.2-4,13.8-16.6,17.4-21s7.1-17,7.1-17s1.1,1,2.7,2.4c0.1,2.3-0.1,5.5-0.2,6.5c-0.2,1.3,1.6,3,3,5.6c1.3,2.7,1,6.1,1,10.2
	c0,4.2,4.6,6.2,4.6,6.2h1.9c0,0,3,0.6,3.6,1.9c0.6,1.3,1.3,3.7,0.4,4.9c-0.9,1.2,0,4.3,0,4.3s0.3,1.5,0.9,2.4c0.6,0.9,2.2,2.1,5,2.8
	c2.8,0.7,4.9,3.3,4.9,3.3l6.5,5.3c0,0,0.1-4.6,0-5.3c-0.1-0.7-1.3-2.5-1.5-4.8c-0.1-1.2-0.1-4,0-6.3c0.8,0,1.7-0.3,2.8-1.2
	c2.5-2.2,5.3-7.8,8-8.9c-0.5,3.2-1.2,8.3-0.5,8.5c0.9,0.3,3,7.3,3,7.3l2.2,1.3c0,0,3.9-0.1,5.5,2.1c1.6,2.2,3.6,8.8,3.6,9.5
	s0.3,3.9,1,4.2c0.7,0.3,1.8,4.2,1.8,4.7c0,0.6,1,6.5,1,6.5l9.5,5.3c0,0,3.7,0.9,5,0.9c1.3,0,5.3,0.6,5.9,1.3
	c0.6,0.7-1.6-2.7-1.6-2.7l-3.7-5.9l0.7-2.8l-0.6-3.9c0.1,0.1,0.2,0.2,0.3,0.2c2,1.2,7.1,3.6,10.7,5.1s12.3,2.4,15.4,2.8
	c3.2,0.4,4.8-1.2,7.1-3.2c2.4-2,7.1-8.7,7.1-8.7s0.2,0.1,0.4,0.2c3.1,1.6,24.1,12.2,28.1,14.4c4.3,2.4,10.3,5.5,13.4,6.3
	c0.5,0.1,1.2,0.2,1.8,0.3c3.2,0.3,7.7-0.3,12-3.9c5.1-4.3,7.1-5.5,13.8-10.7c6.7-5.1,31.3-30.5,37.6-35.2
	c6.3-4.7,19.4-20.6,22.5-23.7c3.2-3.2,24.9-34.4,27.7-38.4c2.8-4,6.7-9.5,6.7-9.5s0.3,0.1,0.8,0.2c2.4,0.8,10.2,3.4,13.5,6.1
	c4,3.2,18.2,13.8,22.2,15.8c2.1,1.1,3.5,1,5.1,0.6c1.3-0.3,2.9-0.8,5.2-1c5.1-0.4,21.8-7.5,26.5-9.5c4.7-2,9.5-6.7,11.1-9.9
	c1.6-3.2,8.3-10.3,13.5-11.5s8.3-7.9,13.5-11.9c5.1-4,13.4-11.1,13.4-11.1s11.5,1.6,13.1,2.8c1.6,1.2,5.5-0.4,13.8-0.4
	c8.3,0,15.4-4.8,22.2-6.7c5.2-1.5,10.9-3.8,13.2-4.7c0.6-0.3,1-0.4,1-0.4s4.8,8.3,6.3,13.5c1.6,5.1,4,10.3,8.3,13.8
	s13.8,16.6,18.6,23.3c4.7,6.7,11.9,19.8,15.4,22.2s13.8,11.9,15.4,15c1.6,3.2,21,8.7,24.5,9.5c3.5,0.8,6.3,2,11.9,8.3
	c5.5,6.3,7.9,8.7,11.1,11.5c3.2,2.8,6.7,4,7.5,6.7c0.8,2.8,2.8,2.4,7.1,5.1c1.4,0.9,3.3,1.8,5.2,2.5c4.2,1.7,8.6,3,8.6,3
	c4-1.2,9.9-9.1,13-9.5c3.2-0.4,6.3-7.5,9.1-10.7c2.8-3.2,3.6-3.2,7.5-7.1c4-4,7.1-9.9,11-15.8c3.9-5.9,16.7-18.2,19.8-20.6
	c3.2-2.4,3.6-10.3,7.5-17c4-6.7,14.6-30.4,14.6-30.4s0.5,0.8,1.4,2.2c2.1,3.3,5.9,9.5,8.1,14c3.2,6.3,7.9,17.8,12.7,26.9
	c4.7,9.1,9.9,13.8,13.4,21c3.6,7.1,16.6,26.9,18.2,30.8c1.6,4,7.1,5.9,7.1,5.9s11.5,6.7,14.2,8.6c2.8,1.9,21,9.6,21,9.6
	s6.3,3.6,7.9,7.1c1.6,3.6,8.7,16.6,11.1,20.6c1.3,2.2,7.4,5.7,12.5,8.3c3.9,2,7.3,3.5,7.3,3.5c28.1-3.2,42.7-22.1,42.7-22.1
	s4-4.7,5.9-5.5c2-0.8,24.5-10.7,30.5-10.3c5.9,0.4,12.3-7.5,17.8-11.2c5.5-3.6,5.9-6.2,10.3-9.8c4.3-3.6,15.4-14.6,24.1-19.4
	s20.6-19.4,20.6-19.4s0.3,0.3,0.8,0.8c2.7,2.5,11.3,10.5,17,15.8c6.7,6.3,12.7,9.9,18.2,16.2c2.9,3.3,7.3,7.3,10.9,10.5
	c3.4,3,6.1,5.2,6.1,5.2l4.8,0c0,0,5.5-4.3,11.5-7c5.9-2.8,11.5-6.7,15.8-12.3c4.4-5.5,17-13,23.7-15c6.7-2,8.3-4,10.3-5.9
	c2-2,0-10.3,6.3-13c6.3-2.8,2.4-2.4,6.3-5.5c4-3.2,5.9-6.3,12.3-11.5c6.3-5.1,7.9-9.9,12.7-13.5c4.8-3.6,4.3-5.9,8.3-12.6
	c4-6.7,17.4-33.2,22.5-40.7c2.8-4.2,5.7-10.9,7.7-16.2c1.6-4.3,2.6-7.5,2.6-7.5s2.4,2,4.8,8.3c2.4,6.3,14.6,17.8,21,23.7
	c6.3,5.9,11.9,25.7,15,33.2c3.2,7.5,6.7,14.6,9.9,20.2c3.2,5.5,15,24.1,15,24.1h9.5c0,0,6.3,2,8.3,4c2,2,17.4,2.4,17.4,2.4
	s3.6,4,3.6,5.9c0,2,4,8.7,4,8.7s8.7,9.5,10.7,9.9c2,0.4,15,6.7,22.9,15.4c0.2,0.2,0.4,0.4,0.6,0.6c6.7-6.5,16.1-17.7,18.7-20.4
	c3.2-3.2,24.9-34.4,27.7-38.4c2.8-4,6.7-9.5,6.7-9.5s0.3,0.1,0.8,0.2c2.4,0.8,10.1,3.4,13.5,6.1c4,3.2,18.2,13.8,22.1,15.8
	c2.2,1.1,3.5,1,5.1,0.6c1.3-0.3,2.8-0.8,5.2-1c5.1-0.4,21.7-7.5,26.5-9.5c4.8-2,9.5-6.7,11.1-9.9c1.6-3.2,8.3-10.3,13.4-11.5
	c5.1-1.2,8.3-7.9,13.4-11.9c5.1-4,13.5-11.1,13.5-11.1s11.5,1.6,13,2.8c1.6,1.2,5.5-0.4,13.8-0.4s15.4-4.8,22.1-6.7
	c5.2-1.5,10.9-3.8,13.2-4.7c0.7-0.3,1-0.4,1-0.4s4.8,8.3,6.3,13.5c1.6,5.1,3.9,10.3,8.3,13.8c4.3,3.6,13.8,16.6,18.6,23.3
	c4.8,6.7,11.9,19.8,15.4,22.1c3.6,2.4,13.8,11.9,15.4,15c1.6,3.2,21,8.7,24.5,9.5c3.6,0.8,6.3,2,11.9,8.3c5.5,6.3,7.9,8.7,11.1,11.5
	c3.2,2.8,6.7,4,7.5,6.7c0.8,2.8,2.8,2.4,7.1,5.1c1.4,0.9,3.3,1.8,5.2,2.5c4.2,1.7,8.6,3,8.6,3c4-1.2,9.9-9.1,13-9.5
	c3.2-0.4,6.3-7.5,9.1-10.7c2.8-3.2,3.6-3.2,7.5-7.1c3.9-4,7.1-9.9,11-15.8c3.9-5.9,16.7-18.2,19.8-20.6c3.2-2.4,3.6-10.3,7.5-17
	c4-6.7,14.6-30.5,14.6-30.5s0.5,0.8,1.4,2.2c2,3.3,5.9,9.5,8.1,14c3.2,6.3,7.9,17.8,12.7,26.9c4.7,9.1,9.9,13.9,13.4,21
	c3.6,7.1,16.6,26.9,18.2,30.8c1.6,4,7.1,5.9,7.1,5.9s11.5,6.7,14.2,8.6s21,9.6,21,9.6s6.3,3.6,7.9,7.1c1.6,3.6,8.7,16.6,11.1,20.6
	c1.3,2.2,7.4,5.7,12.5,8.3c3.9,2,7.3,3.5,7.3,3.5c28.1-3.2,42.7-22.2,42.7-22.2s4-4.7,5.9-5.5c2-0.8,24.5-10.7,30.5-10.3
	c5.9,0.4,12.3-7.5,17.8-11.2c5.5-3.7,5.9-6.2,10.3-9.8c4.3-3.6,15.4-14.6,24.1-19.4c8.7-4.7,20.6-19.4,20.6-19.4s0.3,0.3,0.8,0.8
	c2.7,2.5,11.3,10.5,17,15.8c6.7,6.3,12.7,9.9,18.2,16.2c2.8,3.3,7.3,7.3,10.9,10.5c3.4,3,6.1,5.2,6.1,5.2l4.8,0c0,0,5.5-4.3,11.5-7
	s11.5-6.7,15.8-12.3c4.3-5.5,17-13,23.7-15c6.7-2,8.3-4,10.3-5.9c2-2,0-10.3,6.3-13.1c6.3-2.8,2.4-2.4,6.3-5.5
	c3.9-3.2,5.9-6.3,12.3-11.5c6.3-5.1,7.9-9.9,12.6-13.5c4.8-3.6,4.4-5.9,8.3-12.7c4-6.7,17.4-33.2,22.5-40.7
	c2.8-4.2,5.7-10.9,7.6-16.2c1.6-4.3,2.6-7.5,2.6-7.5s2.4,2,4.8,8.3c2.4,6.3,14.6,17.8,21,23.7c6.3,5.9,11.9,25.7,15,33.2
	c3.2,7.5,6.7,14.6,9.9,20.2c3.2,5.5,15,24.1,15,24.1h9.5c0,0,6.3,2,8.3,4c2,2,17.4,2.4,17.4,2.4s3.6,3.9,3.6,5.9
	c0,2,3.9,8.7,3.9,8.7s8.7,9.5,10.7,9.9c2,0.4,15,6.7,22.9,15.4C2214.2,387.2,2230.3,398.9,2230.3,398.9z"/>
<path style="fill:#FFE79A;" d="M2145.6,7.3l3.6,1.8h-16h-96.7l8.4-1.3l9.7-2.1c0,0,10.3-2.7,14.4-4c4-1.3,7.4,2.5,8.2,1.7
	c0.8-0.8,6.3,0,6.3,0s1.7-6.4,5.8-8.1c7-2.9,11.5-1,11.5-1c1.7-7.4,8.5-7.2,11.9-6.7c7.4,0.9,7.4,8,7.4,8s7.4,3.4,10.3,4.2
	C2133.6,0.6,2145.6,7.3,2145.6,7.3z"/>
<linearGradient id="SVGID_2_" gradientUnits="userSpaceOnUse" x1="-185.9069" y1="504.4214" x2="-102.3501" y2="333.1045" gradientTransform="matrix(1 0 0 1 1800 0)">
	<stop  offset="0" style="stop-color:#1B1464"/>
	<stop  offset="9.651232e-02" style="stop-color:#154268"/>
	<stop  offset="0.2138" style="stop-color:#0F736C"/>
	<stop  offset="0.3302" style="stop-color:#099C70"/>
	<stop  offset="0.4434" style="stop-color:#05BC72"/>
	<stop  offset="0.5525" style="stop-color:#02D374"/>
	<stop  offset="0.6558" style="stop-color:#01E076"/>
	<stop  offset="0.747" style="stop-color:#00E576"/>
</linearGradient>
<path style="fill:url(#SVGID_2_);" d="M1587.7,300.8c0.6,0.8,2.8,6.7,3.2,7.7c0.4,1,1.4,6.3,1.4,6.3s5.1,10.3,3.2,10.9
	c-2,0.6-6.9-2.8-6.9-2.8l-3.8-3c0,0,1.4,9.7,2.2,11.9c0.8,2.2,1.2,6.5,1.6,8.9c0.4,2.4-0.2,7.3,0,9.1c0.2,1.8,0.8,6.1,0,7.1
	c-0.8,1-3.8,9.3-3.8,9.3s2,4.7,3.8,6.9c1.8,2.2,3.5,8.2,4.3,10.3c0.8,2.1,3.4,7.3,4.2,8.2c0.8,1,3,7.3,3,8.5c0,1.2-5.3-0.6-6.1-1.2
	c-0.8-0.6-7.9-4.7-8.7-6.3c-0.8-1.6-4-4.2-4-4.2s4.3,15.2,5.3,18c1,2.8,1.2,11.7,1.4,13.6c0.2,2,1,9.5,0.4,11.7
	c-0.6,2.2-4.3,4.5-4.3,4.5l-4,1.2l7.1,6.5l7.1,6.9c0,0,0.6,0.8,4.9,2.8c4.4,2,11.1,9.1,10.7,21.2c-0.4,12.1-5.7,20.6-5.7,20.6
	s9.1,11.1,16.6,10.9c7.5-0.2,17,6.3,17.2,7.7c0.2,1.4,40.5,0,40.5,0s37.6,23.9,38.5,24.2c0.9,0.3,32.9-16.8,32.9-16.8l-19.3-27.3
	c0,0-5-9.2,0.9-11.6c5.9-2.4,10.4-4.2,10.4-4.2s-11.9-12.2-12.2-13.9c-0.3-1.8-1.2-6.2-2.1-7.4c-0.9-1.2-12.5-16.3-13.1-17.5
	c-0.6-1.2-5.1-9.5-7.2-10.6c-5.1-2.6-11.2-6.1-12.5-8.3c-2.4-4-9.6-17.2-11.1-20.8c-1.6-3.6-8.5-7.6-8.5-7.6s-15.8-6.7-18.6-8.6
	c-2.8-1.9-15.4-9.6-15.4-9.6s-5.7-1.8-7.3-5.7c-1.6-4-13.8-23.1-17.3-30.2c-3.6-7.1-9.2-12.3-13.9-21.4c-4.7-9.1-9.7-20.4-12.9-26.7
	c-2.2-4.5-6.7-10.7-8.7-13.9c0,4.7,0,9.6,0,10.1C1581.2,287.4,1587.1,300,1587.7,300.8z M1626.3,382.5c2.1,2.5,4.9,6.4,4.9,6.4
	l1.7,1l3.5,1.3c0,0,3.7,5.7,4.1,6c0.4,0.3,2.3,1.1,3.2,1.1c0.9,0,8.2,2.6,8.6,2.8c0.4,0.2,4.6,5.9,5.3,6.8c0.7,0.9,2.7,3,3.5,3.6
	c0.8,0.6,2.8,2.4,2.8,4.3c0,1.9,1.1,4,1.8,4.8c0.7,0.9,5.9,4.4,6,5.9c0.1,1.6,2.1,5.6,2.1,5.6l-11.8-7.7c0,0-3.7-0.8-4.9-0.8
	c-1.3,0-3.4,1.6-3.7,1.6c-0.3,0-4.6-2.1-4.9-2.4c-0.3-0.3-3.6-4.5-4.6-5.6c-1.1-1.1-9.4-3.3-9.7-3.3c-0.3,0-6.4-0.8-6.4-0.8
	s-6.5-6.3-6.9-6.4c-0.4-0.1-1.8-5.6-1.8-5.6s0.6-20.7-1.2-27C1617.7,374.1,1624.2,380,1626.3,382.5z"/>
<linearGradient id="SVGID_3_" gradientUnits="userSpaceOnUse" x1="101.2839" y1="239.4358" x2="99.7011" y2="557.4214" gradientTransform="matrix(1 0 0 1 1800 0)">
	<stop  offset="0" style="stop-color:#1B1464"/>
	<stop  offset="0.747" style="stop-color:#00E576"/>
</linearGradient>
<path style="fill:url(#SVGID_3_);" d="M1871.5,350.8l2.8,4.9c0,0,1.4,4.3,2,4.7c0.6,0.4,0,4.9,0,4.9l-1.6,1c0,0,3.9,3.6,1.8,4.7
	c-2,1.2-3.8,2.4-3.8,2.4s3.9,8.3,4.4,8.9c0.5,0.6,4.7,3.8,4.7,3.8s9.3,8.9,10.5,9.9c1.2,1,4.4,4,5.5,5.3c1.2,1.4,4,4.9,4,4.9
	s0.8-3,4.7-2.4c4,0.6,7.9,2.2,9.9,4.4c2,2.2,4.2,3.8,6.9,5.9c2.8,2.2,6.5,4.2,7.5,5.5c1,1.4,3,4,3,4s-5.3-18.2-7.7-22.7
	c-2.4-4.5,1.8-4.4-4.3-9.5c-6.1-5.1-6.5-8.1-7.5-9.3c-0.5-0.5-0.7-2.2-0.8-3.9c-3.6-3.2-8.1-8.2-10.9-11.5
	c-5.5-6.3-10.9-8.9-17.6-15.3c-5.6-5.3-14.8-13.3-17.5-15.8c0.4,1.1,0.8,2.2,0.9,2.8C1868.7,340.4,1871.5,350.8,1871.5,350.8z"/>
<linearGradient id="SVGID_4_" gradientUnits="userSpaceOnUse" x1="-392.2877" y1="488.833" x2="-392.2877" y2="265.8401" gradientTransform="matrix(1 0 0 1 1800 0)">
	<stop  offset="0" style="stop-color:#1B1464;stop-opacity:0.8"/>
	<stop  offset="0.546" style="stop-color:#00E576"/>
</linearGradient>
<path style="fill:url(#SVGID_4_);" d="M1356,259.1c0.9,0.9,2.4,8.6,2.4,10.7c0,2.1-1.3,7.7-1.3,7.7l-3.7,9.2c0,0,7.1,5.9,8.3,6.8
	c1.2,0.9,3,9.8,3,9.8s0.9,8.9,1.8,8.9c0.9,0,4.2,15.1,4.2,15.1l-2.4,2.7c0,0,1.2,6.8,2.4,8.3c1.2,1.5,1.2,4.4-1.8,6.2
	c-3,1.8-7.7,3.9-7.7,3.9h-6.2c0,0,11,7.7,13.6,13.6c2.7,5.9,6.8,18.4,6.2,19.9c-0.6,1.5-3.9,8.6-3.9,8.6h-4.7h-8.9
	c0,0,4.2,7.4,3.9,10.4c-0.3,3-2.1,6.5-2.1,6.5l3.6,5.6c0,0-4.7,8.3-9.2,12.2c-4.4,3.9-9.8,1.8-9.8,1.8l-5.9-11.3
	c0,0-5.9-0.9-5.6-2.4c0.3-1.5,0.6-6.5,0-9.2c-0.6-2.7-3-20.6-3-20.6s-6.2,16.7-8,19.4c-1.8,2.7-6.8,10.4-7.1,11.3
	c-0.3,0.9,3,14.5,3,14.5s4.2,2.7,4.2,4.7c0,2.1,3,3.6,3,3.6s2.1,0,3.6,0c1.5,0,2.4,9.4,2.7,10.5c0.3,1.1,0.9,4.9-0.3,7
	c-1.2,2.1-8,12.2-8,12.2l-3.3,5.9l19.9,19l109.2,11.6l30.8-9.8l3.3-15.4c0,0,0-3.3-1.8-5.3c-1.8-2.1-6.8-13.1-2.1-14.5
	c4.7-1.5,18.4,8,18.4,8v-11.3c0,0-0.6-6.9,0.9-7.3c1.5-0.4,4.5,0,4.5,0s-5-9.6-6.5-12.3c-1.5-2.7-5-9.2-8.6-13.6
	c-3.6-4.5-5.6-11-5-13.6c0.6-2.7,5.3-7.7,5.3-7.7l2.1-2.7l7.4,2.4c0,0-5.3-7.1-6.5-9.2c-1.2-2.1-1.5-6.4-1.2-8.5
	c-1.9-0.8-3.4-2.5-4.8-3.4c-4.3-2.8-5.9-2.2-6.7-5c-0.8-2.8-5.2-3.2-8.4-6c-3.2-2.8-4.6-5.5-10.1-11.9c-5.5-6.3-8.9-7.9-12.5-8.7
	c-3.6-0.8-22.4-6.4-23.9-9.6c-1.6-3.2-12.2-12.3-15.7-14.6c-3.6-2.4-10.1-15.2-14.8-21.9c-4.7-6.7-14.7-20.5-19-24
	c-4.3-3.6-6.4-8.4-8-13.5c-1.6-5.1-7.4-13.3-7.4-13.3s-0.5,0.6-1.1,0.8C1355.9,254.7,1355.5,258.6,1356,259.1z M1412.3,343.3
	c1,1.3,6.4,6.5,7.3,7c0.9,0.4,6.2,9,7.6,9.9c1.3,0.9,9.3,3.7,9.9,3.9c0.6,0.1,13.2,5.9,13.2,5.9s-2.4-6.1-1.8-6.1
	c0.6,0,5,5.6,5.8,6.1c0.7,0.4,4.9,5,5.5,5.5c0.6,0.4,0,7.4,2.1,8c2.1,0.6,5.2,2.4,5.9,2.2c0.7-0.1,7.3,4.6,7.3,4.6l-3.9,3.6
	c0,0-2.1,0.1-2.1,1.3c0,1.2,1,4.5,1,4.5s-5.3-1.8-6.4-1.6c-1,0.1-6.7,0.7-7.7,1.6c-1,0.9-1.3,8.7-1,9.2c0.3,0.4,1.5,8.2,2.2,9.8
	c0.7,1.6,4.7,8.5,4.7,8.5s-7.9-6.4-8.6-6.4c-0.7,0-7.7-4-7.7-4s-6.7-4-6.5-5.6c0.1-1.6-2.5-8.8-2.5-8.8l-3.6-4.3c0,0,2.2-3,2.7-3.4
	c0.4-0.4,1.9-5,0.9-7.7c-1-2.7-7-13.2-7.9-15c-0.9-1.8-7.6-5.6-8.3-5.6c-0.7,0-3,3-3,3l-7.4-2.7l-2.4-0.6c0,0,0.8-6.4,1.2-7.4
	c0.4-1,0.9-4,1-4.4c0.1-0.4-2.7-8.8-3-10.5c-0.3-1.8-3.7-13.3-3.7-13.3S1411.3,342,1412.3,343.3z"/>
<linearGradient id="SVGID_5_" gradientUnits="userSpaceOnUse" x1="-606.0179" y1="467.8971" x2="-599.3304" y2="272.0619" gradientTransform="matrix(1 0 0 1 1800 0)">
	<stop  offset="0" style="stop-color:#1B1464;stop-opacity:0.8"/>
	<stop  offset="0.546" style="stop-color:#00E576"/>
</linearGradient>
<path style="fill:url(#SVGID_5_);" d="M1174.6,324.8c0.4,0.6,4,7,4,7.7c0,0.7-0.6,4,0,4c0.6,0,6.7,3.9,6.7,3.9s6.7-0.1,7.4,1.9
	c0.7,2.1,1.6,5.2,2.7,5.6c1,0.4,5,2.2,5.9,2.2c0.9,0,3.7,4.2,4.4,4.7c0.7,0.6,4.5,0.9,5.3,1c0.9,0.1,6.5,2.2,7.1,2.8
	c0.6,0.6,8.5,9,8.5,9s-13.9-20.9-14.1-22.4c-0.1-1.5-1.6-8.3-1.5-9.3c0-0.2-0.1-0.6-0.3-1c-1.6,0.4-2.9,0.5-5.1-0.6
	c-4-2-18.2-12.7-22.1-15.8c-3.3-2.6-11-5.3-13.5-6.1c1,2.3,2.8,6.1,3.2,6.6C1173.8,319.7,1174.1,324.2,1174.6,324.8z"/>
<linearGradient id="SVGID_6_" gradientUnits="userSpaceOnUse" x1="441.3846" y1="376.0147" x2="195.5043" y2="376.0147" gradientTransform="matrix(1 0 0 1 1800 0)">
	<stop  offset="0" style="stop-color:#1B1464"/>
	<stop  offset="0.747" style="stop-color:#00E576"/>
</linearGradient>
<path style="fill:url(#SVGID_6_);" d="M2206.3,406.5c-7.9-8.7-21-15-22.9-15.4c-2-0.4-10-9.9-10-9.9s-3.9-7.2-3.9-9.2
	c0-2-4-6.6-4-6.6s-15.2,0.3-17.1-1.7c-2-2-8.6-4.2-8.6-4.2l-9.5-0.4c0,0-11.6-18-14.7-23.6c-3.2-5.5-6.8-12.3-10-19.8
	c-3.2-7.5-8.7-27.4-15-33.3c-6.3-5.9-18.5-17.3-20.9-23.7c-2.4-6.3-5.2-8.8-5.2-8.8s-1.1,4-2.7,8.3c1.8,3.2,3.8,6.7,4.7,7.8
	c1.8,2.1,8.6,12.2,8.6,15.7c0,3.6,0,8.3,0,8.3s5.9,2.1,6.2,4.7c0.3,2.7-1.2,17.2,0,18.1c1.2,0.9-5.3,0-8.6-1.8
	c-3.3-1.8-3.9-3-4.5-4.2c-0.6-1.2-7.1-9.5-7.1-9.5s1.8,12.5,1.8,18.4c0,5.9,0.9,13.1,0,13.6c-0.9,0.6-4.2,3.6-4.2,3.6
	s12.8,7.1,13.6,7.4c0.9,0.3,9.2,4.2,11,6.8c1.8,2.7,4.7,11.6,4.7,13.6c0,2.1-0.9,8-3.3,8.3c-2.4,0.3-6.5,0.3-8.3,1.5
	c-1.8,1.2-1.5,4.4-0.6,4.4c0.9,0,3.6,6.5,0.6,7.1c-3,0.6-7.4,4.4-8.6,4.4c-1.2,0-4.5-1.8-5,0c-0.6,1.8-2.7,9.8-2.4,11.3
	c0.3,1.5,3.6,9.8,9.2,16c5.6,6.2,12.5,18.4,13.9,22.2c1.5,3.9,4.5,11,4.5,11s9.2,1.2,13.3,0c4.2-1.2,8,0.3,11.6,3
	c3.6,2.7,15.7,12.8,19.9,16.3c4.2,3.6,10.1,7.7,11.3,9.8c1.2,2.1,5.6,8.3,5.6,8.3s-0.6-5.6,0-6.5c0.6-0.9,4.4-2.7,6.8-1.8
	c2.4,0.9,5.3,1.5,8.9,5.3c3.6,3.9,10.4,5.9,10.7,6.8c0.3,0.9,3,11.3,3,11.3s4.7-3.9,5.3-6.2c0.6-2.4,11.9,0,13.6,0
	c1.8,0,6.2,3.3,10.7,3c4.4-0.3,5.9,4.7,6.8,5.3c0.9,0.6,7.4,0,7.4,0s5.1-2.4,7.3-5.1v-69.8C2230.3,426.9,2214.2,415.2,2206.3,406.5z
	 M2155.1,414.5c0,0-8.9,1.5-13.2-0.6c-4.3-2.1-11.1-9.9-11.1-9.9s-4.2-3.1-3.4-5c0.7-1.9,2.4-10.5,2.4-10.5l5.6,2.7
	c0,0,0.4-2.2,0.3-2.8c-0.2-0.6-0.2-4.7-0.3-6.8c-0.1-2.1-5.6-9.6-5.6-9.6l20.6,2.4c0,0,7.3,3.7,7.3,5c0,1.3,3,9,3,9l3.9,2.8
	c0,0,5.3,9.8,5.5,10.8c0.1,1,3.3,2.5,4.4,3.4c1.2,0.9,7.7,5.3,9.6,7c1.9,1.6,5,11.1,5,11.1s-23-11.9-24-11.8
	C2164,411.5,2155.1,414.5,2155.1,414.5z M2193.3,471.9c-2.4-1.2-5-4.9-6.7-5.5c-1.6-0.6-14.8-3.9-14.8-3.9s-3.1-2.7-5.2-5.9
	c-2.1-3.3-4.9-4.9-5.8-5.3c-0.9-0.4-2.7-2.5-2.7-2.5s5.8,0.4,5.7-4c0-0.4,0.7,2.7,5.3,4.3c4.6,1.6,9.2,2.8,12,5.3
	c2.8,2.5,6.4,5.2,9.2,7c2.8,1.8,6.4,4.7,6.8,5.2c0.4,0.4,4.6,4.6,4.6,4.6S2195.7,473.1,2193.3,471.9z"/>
<linearGradient id="SVGID_7_" gradientUnits="userSpaceOnUse" x1="-511.9034" y1="418.1475" x2="-489.36" y2="275.7685" gradientTransform="matrix(1 0 0 1 1800 0)">
	<stop  offset="0" style="stop-color:#1B1464;stop-opacity:0.8"/>
	<stop  offset="0.546" style="stop-color:#00E576"/>
</linearGradient>
<path style="fill:url(#SVGID_7_);" d="M1285,328.2c0,0,2.5-3.2,3.5-4.2c1-1,2.2-2.5,2.2-3.3s1.2-4.4,1.9-4.6
	c0.7-0.3,3.6-0.5,4.2-0.9c0.6-0.4,1.9-2.1,1.9-2.1s8.7,5.5,9.2,5.9c0.5,0.4,2.4,2.1,2.9,3.1c0.5,1,0.5,4,1.1,4.6
	c0.6,0.6,1.7,2.7,2.2,3.4c0.4,0.7,0.4,5.5,1.1,6.6c0.7,1.1,1.8,4.2,1.7,5.1c-0.1,1,0,5.9,0,5.9l-6.6-7.9c0,0-5.1-2.4-6.2-3.1
	c-1.1-0.7-2.8-3.5-3.5-4.3c-0.7-0.8-2.1-1.2-3-1.6c-0.9-0.4-3.1-3.7-3.2-4.1C1294.1,326.5,1286.8,327.5,1285,328.2z"/>
<linearGradient id="SVGID_8_" gradientUnits="userSpaceOnUse" x1="-500.9665" y1="389.8786" x2="-478.4231" y2="247.5" gradientTransform="matrix(1 0 0 1 1800 0)">
	<stop  offset="0" style="stop-color:#1B1464;stop-opacity:0.8"/>
	<stop  offset="0.546" style="stop-color:#00E576"/>
</linearGradient>
<path style="fill:url(#SVGID_8_);" d="M1289.9,312.4c0,0,12.5,6.6,13.4,7.2c1,0.6,4.1,7.6,4.6,8.4c0.5,0.8,4.1,7.5,4.4,7.7
	c0.3,0.2,5.2,4.6,5.5,4.9c0.3,0.3,0.8,10,0.8,10.4c0,0.4,1.2,3.2,2.3,5.7c1.1,2.6,2.8,11.1,2.8,11.5c0,0.4,0.7,5.1,0.7,5.1
	s-6.1-7.4-6.3-7.7c-0.2-0.3-3.5-5.4-3.5-5.4s-2.1-3.9-3.2-4.4c-1.1-0.5-4.2-0.4-4.7-0.3c-0.6,0.1-6.7,3.3-8.4,3.6
	c-1.7,0.3-5.9,3.2-6.7,4.8c-0.8,1.7-3.3,4.3-3.3,4.3l2.9-10.4c0,0,6.3-6.4,7.1-7.1c0.8-0.7,3.2-4,3.2-4l-3-6.2c0,0-2.9-5.8-3.5-6.3
	c-0.6-0.5-7.9-6.6-8.3-6.9c-0.4-0.3,0-3.8,0-3.8l4.1-1.3c0,0,3.5-6.8-0.3-9.9"/>
<linearGradient id="SVGID_9_" gradientUnits="userSpaceOnUse" x1="-601.3016" y1="448.0628" x2="-594.614" y2="252.2204" gradientTransform="matrix(1 0 0 1 1800 0)">
	<stop  offset="0" style="stop-color:#1B1464;stop-opacity:0.8"/>
	<stop  offset="0.546" style="stop-color:#00E576"/>
</linearGradient>
<path style="fill:url(#SVGID_9_);" d="M1162,323.4c0,0,34.7,28.5,36,29.4c1.3,0.9,12.2,10.2,12.5,11c0.3,0.7,1.2,7.4,1.2,8.3
	c0,0.9,1.2,8.9,1.2,9.8c0,0.9,1,2.8,1.6,3.5c0.6,0.7,10.4,13.3,12.2,16.4c1.8,3.1,7.1,15.1,7.4,15.7c0.3,0.6,6.2,13.1,6.2,13.1
	l-16.6-11.7c0,0-3.6-0.7-9.2-3.3c-5.6-2.5-9.9-5.8-11-6.7c-1-0.9-7.1-1.8-9-3.1c-1.9-1.3-4.4-5.6-4.4-6.4c0-0.7-3.3-11.9-3.9-13.1
	c-0.6-1.2-4.9-5.8-5.6-6.8c-0.7-1-8.3-5.6-8.6-10.7c-0.3-5-3.9-20.3-4-24.8c-0.1-4.4-0.6-5.5-1.6-7.4
	C1165.2,334.7,1162,323.4,1162,323.4z"/>
<linearGradient id="SVGID_10_" gradientUnits="userSpaceOnUse" x1="-671.0386" y1="613.2313" x2="-656.972" y2="292.6587" gradientTransform="matrix(1 0 0 1 1800 0)">
	<stop  offset="0" style="stop-color:#1B1464;stop-opacity:0.8"/>
	<stop  offset="0.546" style="stop-color:#00E576"/>
</linearGradient>
<path style="fill:url(#SVGID_10_);" d="M1149.1,360.6c0,0,0,7.1-1.6,9c-1.6,1.9-2.7,4.6-5.5,5.9c-2.8,1.3-6.8,5.2-6.8,5.2l-5.2,4
	c0,0,5.8-8.6,6.4-9.6c0.6-1,3-4.9,3.2-5.2s3-3.1,3.5-3.6C1143.4,366,1149.1,360.6,1149.1,360.6z"/>
<linearGradient id="SVGID_11_" gradientUnits="userSpaceOnUse" x1="1108.4779" y1="604.7421" x2="1108.4779" y2="596.0103">
	<stop  offset="0" style="stop-color:#FFD06B"/>
	<stop  offset="0.2473" style="stop-color:#F39A6C"/>
	<stop  offset="0.5215" style="stop-color:#A46E63"/>
	<stop  offset="0.7312" style="stop-color:#725269"/>
	<stop  offset="0.9731" style="stop-color:#1A2040"/>
</linearGradient>
<path style="fill:url(#SVGID_11_);" d="M1108.3,602.2c-0.1-1.9,0-3.2,0.1-3.8C1108.8,597.5,1108.6,599.1,1108.3,602.2z"/>
<linearGradient id="SVGID_12_" gradientUnits="userSpaceOnUse" x1="1206.4752" y1="616.2951" x2="1206.4752" y2="615.0754">
	<stop  offset="0" style="stop-color:#FFD06B"/>
	<stop  offset="0.2473" style="stop-color:#F39A6C"/>
	<stop  offset="0.5215" style="stop-color:#A46E63"/>
	<stop  offset="0.7312" style="stop-color:#725269"/>
	<stop  offset="0.9731" style="stop-color:#1A2040"/>
</linearGradient>
<path style="fill:url(#SVGID_12_);" d="M1206.4,615.9c0-0.3,0-0.4,0-0.5C1206.5,615.3,1206.5,615.5,1206.4,615.9z"/>
<linearGradient id="SVGID_13_" gradientUnits="userSpaceOnUse" x1="1219.6798" y1="611.3813" x2="1219.6798" y2="605.7779">
	<stop  offset="0" style="stop-color:#FFD06B"/>
	<stop  offset="0.2473" style="stop-color:#F39A6C"/>
	<stop  offset="0.5215" style="stop-color:#A46E63"/>
	<stop  offset="0.7312" style="stop-color:#725269"/>
	<stop  offset="0.9731" style="stop-color:#1A2040"/>
</linearGradient>
<path style="fill:url(#SVGID_13_);" d="M1219.5,609.8c0-1.3,0.1-2.1,0.3-2.5C1220,606.8,1219.9,607.8,1219.5,609.8z"/>
<linearGradient id="SVGID_14_" gradientUnits="userSpaceOnUse" x1="1228.9226" y1="615.9869" x2="1228.9226" y2="612.8374">
	<stop  offset="0" style="stop-color:#FFD06B"/>
	<stop  offset="0.2473" style="stop-color:#F39A6C"/>
	<stop  offset="0.5215" style="stop-color:#A46E63"/>
	<stop  offset="0.7312" style="stop-color:#725269"/>
	<stop  offset="0.9731" style="stop-color:#1A2040"/>
</linearGradient>
<path style="fill:url(#SVGID_14_);" d="M1228.8,615.1c0-0.5,0.1-0.9,0.1-1.2C1229.1,613.2,1229.1,613.8,1228.8,615.1z"/>
<linearGradient id="SVGID_15_" gradientUnits="userSpaceOnUse" x1="1301.9108" y1="622.453" x2="1301.9108" y2="614.2678">
	<stop  offset="0" style="stop-color:#FFD06B"/>
	<stop  offset="0.2473" style="stop-color:#F39A6C"/>
	<stop  offset="0.5215" style="stop-color:#A46E63"/>
	<stop  offset="0.7312" style="stop-color:#725269"/>
	<stop  offset="0.9731" style="stop-color:#1A2040"/>
</linearGradient>
<path style="fill:url(#SVGID_15_);" d="M1301.7,620.1c0.1-1.8,0.2-3.1,0.4-3.6C1302.3,615.7,1302.1,617.3,1301.7,620.1z"/>
<linearGradient id="SVGID_16_" gradientUnits="userSpaceOnUse" x1="1313.1969" y1="616.4383" x2="1313.1969" y2="616.2037">
	<stop  offset="0" style="stop-color:#FFD06B"/>
	<stop  offset="0.2473" style="stop-color:#F39A6C"/>
	<stop  offset="0.5215" style="stop-color:#A46E63"/>
	<stop  offset="0.7312" style="stop-color:#725269"/>
	<stop  offset="0.9731" style="stop-color:#1A2040"/>
</linearGradient>
<path style="fill:url(#SVGID_16_);" d="M1313.2,616.4C1313.2,616.2,1313.2,616.2,1313.2,616.4L1313.2,616.4z"/>
<linearGradient id="SVGID_17_" gradientUnits="userSpaceOnUse" x1="1505.5488" y1="615.7418" x2="1505.5488" y2="609.8963">
	<stop  offset="0" style="stop-color:#FFD06B"/>
	<stop  offset="0.2473" style="stop-color:#F39A6C"/>
	<stop  offset="0.5215" style="stop-color:#A46E63"/>
	<stop  offset="0.7312" style="stop-color:#725269"/>
	<stop  offset="0.9731" style="stop-color:#1A2040"/>
</linearGradient>
<path style="fill:url(#SVGID_17_);" d="M1505.8,614c-0.5-1.8-0.7-3-0.3-2.7C1505.8,611.7,1505.9,612.7,1505.8,614z"/>
<linearGradient id="SVGID_18_" gradientUnits="userSpaceOnUse" x1="1531.2098" y1="632.342" x2="1531.2098" y2="623.4045">
	<stop  offset="0" style="stop-color:#FFD06B"/>
	<stop  offset="0.2473" style="stop-color:#F39A6C"/>
	<stop  offset="0.5215" style="stop-color:#A46E63"/>
	<stop  offset="0.7312" style="stop-color:#725269"/>
	<stop  offset="0.9731" style="stop-color:#1A2040"/>
</linearGradient>
<path style="fill:url(#SVGID_18_);" d="M1531.1,625.9c0.4,0.7,0.6,2.2,0.6,3.9C1530.9,626.9,1530.5,624.8,1531.1,625.9z"/>
<linearGradient id="SVGID_19_" gradientUnits="userSpaceOnUse" x1="1505.5488" y1="616.3717" x2="1505.5488" y2="610.8925">
	<stop  offset="0" style="stop-color:#FFD06B"/>
	<stop  offset="0.2473" style="stop-color:#F39A6C"/>
	<stop  offset="0.5215" style="stop-color:#A46E63"/>
	<stop  offset="0.7312" style="stop-color:#725269"/>
	<stop  offset="0.9731" style="stop-color:#1A2040"/>
</linearGradient>
<path style="fill:url(#SVGID_19_);" d="M1505.8,614c-0.5-1.8-0.7-3-0.3-2.7C1505.8,611.7,1505.9,612.7,1505.8,614z"/>
<linearGradient id="SVGID_20_" gradientUnits="userSpaceOnUse" x1="1531.2098" y1="633.3051" x2="1531.2098" y2="624.9276">
	<stop  offset="0" style="stop-color:#FFD06B"/>
	<stop  offset="0.2473" style="stop-color:#F39A6C"/>
	<stop  offset="0.5215" style="stop-color:#A46E63"/>
	<stop  offset="0.7312" style="stop-color:#725269"/>
	<stop  offset="0.9731" style="stop-color:#1A2040"/>
</linearGradient>
<path style="fill:url(#SVGID_20_);" d="M1531.1,625.9c0.4,0.7,0.6,2.2,0.6,3.9C1530.9,626.9,1530.5,624.8,1531.1,625.9z"/>
<linearGradient id="SVGID_21_" gradientUnits="userSpaceOnUse" x1="1806.4399" y1="606.7913" x2="1806.4399" y2="605.9423">
	<stop  offset="0" style="stop-color:#FFD06B"/>
	<stop  offset="0.2473" style="stop-color:#F39A6C"/>
	<stop  offset="0.5215" style="stop-color:#A46E63"/>
	<stop  offset="0.7312" style="stop-color:#725269"/>
	<stop  offset="0.9731" style="stop-color:#1A2040"/>
</linearGradient>
<path style="fill:url(#SVGID_21_);" d="M1806.4,606c0,0.1,0,0.2,0,0.4C1806.4,606.2,1806.4,606.1,1806.4,606
	C1806.4,606,1806.4,606,1806.4,606z"/>
<linearGradient id="SVGID_22_" gradientUnits="userSpaceOnUse" x1="1858.255" y1="582.2656" x2="1858.255" y2="581.5709">
	<stop  offset="0" style="stop-color:#FFD06B"/>
	<stop  offset="0.2473" style="stop-color:#F39A6C"/>
	<stop  offset="0.5215" style="stop-color:#A46E63"/>
	<stop  offset="0.7312" style="stop-color:#725269"/>
	<stop  offset="0.9731" style="stop-color:#1A2040"/>
</linearGradient>
<path style="fill:url(#SVGID_22_);" d="M1858.3,582c0-0.2-0.1-0.3-0.1-0.3c0,0,0,0,0,0C1858.3,581.7,1858.3,581.8,1858.3,582z"/>
<linearGradient id="SVGID_23_" gradientUnits="userSpaceOnUse" x1="1888.7277" y1="568.0645" x2="1888.7277" y2="567.4666">
	<stop  offset="0" style="stop-color:#FFD06B"/>
	<stop  offset="0.2473" style="stop-color:#F39A6C"/>
	<stop  offset="0.5215" style="stop-color:#A46E63"/>
	<stop  offset="0.7312" style="stop-color:#725269"/>
	<stop  offset="0.9731" style="stop-color:#1A2040"/>
</linearGradient>
<path style="fill:url(#SVGID_23_);" d="M1888.8,567.8c-0.1-0.3-0.1-0.4,0-0.3C1888.8,567.6,1888.8,567.7,1888.8,567.8z"/>
<linearGradient id="SVGID_24_" gradientUnits="userSpaceOnUse" x1="1895.6001" y1="561.1709" x2="1895.6001" y2="560.6049">
	<stop  offset="0" style="stop-color:#FFD06B"/>
	<stop  offset="0.2473" style="stop-color:#F39A6C"/>
	<stop  offset="0.5215" style="stop-color:#A46E63"/>
	<stop  offset="0.7312" style="stop-color:#725269"/>
	<stop  offset="0.9731" style="stop-color:#1A2040"/>
</linearGradient>
<path style="fill:url(#SVGID_24_);" d="M1895.6,560.9c0-0.1,0-0.2-0.1-0.3c0,0,0,0,0,0.1C1895.6,560.8,1895.6,560.8,1895.6,560.9z"
	/>
<linearGradient id="SVGID_25_" gradientUnits="userSpaceOnUse" x1="2067.8252" y1="591.9725" x2="2067.8252" y2="586.2093">
	<stop  offset="0" style="stop-color:#FFD06B"/>
	<stop  offset="0.2473" style="stop-color:#F39A6C"/>
	<stop  offset="0.5215" style="stop-color:#A46E63"/>
	<stop  offset="0.7312" style="stop-color:#725269"/>
	<stop  offset="0.9731" style="stop-color:#1A2040"/>
</linearGradient>
<path style="fill:url(#SVGID_25_);" d="M2067.7,586.8c0.2,0.4,0.2,1.4,0.3,2.7C2067.7,587.4,2067.5,586.3,2067.7,586.8z"/>
<linearGradient id="SVGID_26_" gradientUnits="userSpaceOnUse" x1="2122.3113" y1="586.6942" x2="2122.3113" y2="584.499">
	<stop  offset="0" style="stop-color:#FFD06B"/>
	<stop  offset="0.2473" style="stop-color:#F39A6C"/>
	<stop  offset="0.5215" style="stop-color:#A46E63"/>
	<stop  offset="0.7312" style="stop-color:#725269"/>
	<stop  offset="0.9731" style="stop-color:#1A2040"/>
</linearGradient>
<path style="fill:url(#SVGID_26_);" d="M2122.4,585.8c-0.2-1-0.2-1.4-0.1-0.9C2122.4,585.1,2122.4,585.4,2122.4,585.8z"/>
<linearGradient id="SVGID_27_" gradientUnits="userSpaceOnUse" x1="2139.0686" y1="586.9905" x2="2139.0686" y2="585.9083">
	<stop  offset="0" style="stop-color:#FFD06B"/>
	<stop  offset="0.2473" style="stop-color:#F39A6C"/>
	<stop  offset="0.5215" style="stop-color:#A46E63"/>
	<stop  offset="0.7312" style="stop-color:#725269"/>
	<stop  offset="0.9731" style="stop-color:#1A2040"/>
</linearGradient>
<path style="fill:url(#SVGID_27_);" d="M2139.1,586.5c-0.1-0.4-0.1-0.6,0-0.5C2139.1,586.1,2139.1,586.3,2139.1,586.5z"/>
<linearGradient id="SVGID_28_" gradientUnits="userSpaceOnUse" x1="1206.4752" y1="616.5667" x2="1206.4752" y2="615.4233">
	<stop  offset="0" style="stop-color:#FFD06B"/>
	<stop  offset="0.2473" style="stop-color:#F39A6C"/>
	<stop  offset="0.5215" style="stop-color:#A46E63"/>
	<stop  offset="0.7312" style="stop-color:#725269"/>
	<stop  offset="0.9731" style="stop-color:#1A2040"/>
</linearGradient>
<path style="fill:url(#SVGID_28_);" d="M1206.4,615.9c0-0.3,0-0.4,0-0.5C1206.5,615.3,1206.5,615.5,1206.4,615.9z"/>
<linearGradient id="SVGID_29_" gradientUnits="userSpaceOnUse" x1="1219.6798" y1="612.629" x2="1219.6798" y2="607.3766">
	<stop  offset="0" style="stop-color:#FFD06B"/>
	<stop  offset="0.2473" style="stop-color:#F39A6C"/>
	<stop  offset="0.5215" style="stop-color:#A46E63"/>
	<stop  offset="0.7312" style="stop-color:#725269"/>
	<stop  offset="0.9731" style="stop-color:#1A2040"/>
</linearGradient>
<path style="fill:url(#SVGID_29_);" d="M1219.5,609.8c0-1.3,0.1-2.1,0.3-2.5C1220,606.8,1219.9,607.8,1219.5,609.8z"/>
<linearGradient id="SVGID_30_" gradientUnits="userSpaceOnUse" x1="1228.9226" y1="616.6882" x2="1228.9226" y2="613.736">
	<stop  offset="0" style="stop-color:#FFD06B"/>
	<stop  offset="0.2473" style="stop-color:#F39A6C"/>
	<stop  offset="0.5215" style="stop-color:#A46E63"/>
	<stop  offset="0.7312" style="stop-color:#725269"/>
	<stop  offset="0.9731" style="stop-color:#1A2040"/>
</linearGradient>
<path style="fill:url(#SVGID_30_);" d="M1228.8,615.1c0-0.5,0.1-0.9,0.1-1.2C1229.1,613.2,1229.1,613.8,1228.8,615.1z"/>
<linearGradient id="SVGID_31_" gradientUnits="userSpaceOnUse" x1="1301.9108" y1="624.2755" x2="1301.9108" y2="616.6031">
	<stop  offset="0" style="stop-color:#FFD06B"/>
	<stop  offset="0.2473" style="stop-color:#F39A6C"/>
	<stop  offset="0.5215" style="stop-color:#A46E63"/>
	<stop  offset="0.7312" style="stop-color:#725269"/>
	<stop  offset="0.9731" style="stop-color:#1A2040"/>
</linearGradient>
<path style="fill:url(#SVGID_31_);" d="M1301.7,620.1c0.1-1.8,0.2-3.1,0.4-3.6C1302.3,615.7,1302.1,617.3,1301.7,620.1z"/>
<linearGradient id="SVGID_32_" gradientUnits="userSpaceOnUse" x1="1313.1969" y1="616.4905" x2="1313.1969" y2="616.2706">
	<stop  offset="0" style="stop-color:#FFD06B"/>
	<stop  offset="0.2473" style="stop-color:#F39A6C"/>
	<stop  offset="0.5215" style="stop-color:#A46E63"/>
	<stop  offset="0.7312" style="stop-color:#725269"/>
	<stop  offset="0.9731" style="stop-color:#1A2040"/>
</linearGradient>
<path style="fill:url(#SVGID_32_);" d="M1313.2,616.4C1313.2,616.2,1313.2,616.2,1313.2,616.4L1313.2,616.4z"/>
<linearGradient id="SVGID_33_" gradientUnits="userSpaceOnUse" x1="1536.3401" y1="645.1705" x2="1536.3401" y2="644.0385">
	<stop  offset="0" style="stop-color:#FFD06B"/>
	<stop  offset="0.2473" style="stop-color:#F39A6C"/>
	<stop  offset="0.5215" style="stop-color:#A46E63"/>
	<stop  offset="0.7312" style="stop-color:#725269"/>
	<stop  offset="0.9731" style="stop-color:#1A2040"/>
</linearGradient>
<path style="fill:url(#SVGID_33_);" d="M1536.4,644c0,0.1-0.1,0.3-0.1,0.6c0-0.1,0-0.2,0.1-0.3C1536.4,644.1,1536.4,644,1536.4,644z
	"/>
<linearGradient id="SVGID_34_" gradientUnits="userSpaceOnUse" x1="1543.4631" y1="640.7922" x2="1543.4631" y2="639.1097">
	<stop  offset="0" style="stop-color:#FFD06B"/>
	<stop  offset="0.2473" style="stop-color:#F39A6C"/>
	<stop  offset="0.5215" style="stop-color:#A46E63"/>
	<stop  offset="0.7312" style="stop-color:#725269"/>
	<stop  offset="0.9731" style="stop-color:#1A2040"/>
</linearGradient>
<path style="fill:url(#SVGID_34_);" d="M1543.5,639.9c-0.1-0.4-0.1-0.7,0-0.8C1543.5,638.9,1543.5,639.2,1543.5,639.9z"/>
<linearGradient id="SVGID_35_" gradientUnits="userSpaceOnUse" x1="1582.6339" y1="648.0166" x2="1582.6339" y2="647.0558">
	<stop  offset="0" style="stop-color:#FFD06B"/>
	<stop  offset="0.2473" style="stop-color:#F39A6C"/>
	<stop  offset="0.5215" style="stop-color:#A46E63"/>
	<stop  offset="0.7312" style="stop-color:#725269"/>
	<stop  offset="0.9731" style="stop-color:#1A2040"/>
</linearGradient>
<path style="fill:url(#SVGID_35_);" d="M1582.6,647.5c0-0.2,0-0.3,0-0.4C1582.7,646.9,1582.7,647.1,1582.6,647.5z"/>
<linearGradient id="SVGID_36_" gradientUnits="userSpaceOnUse" x1="1652.0369" y1="711.1022" x2="1652.0369" y2="709.7299">
	<stop  offset="0" style="stop-color:#FFD06B"/>
	<stop  offset="0.2473" style="stop-color:#F39A6C"/>
	<stop  offset="0.5215" style="stop-color:#A46E63"/>
	<stop  offset="0.7312" style="stop-color:#725269"/>
	<stop  offset="0.9731" style="stop-color:#1A2040"/>
</linearGradient>
<path style="fill:url(#SVGID_36_);" d="M1652,710.3c0-0.3,0-0.5,0.1-0.6C1652.1,709.5,1652.1,709.8,1652,710.3z"/>
<linearGradient id="SVGID_37_" gradientUnits="userSpaceOnUse" x1="2020.7194" y1="767.6064" x2="2020.7194" y2="756.3928">
	<stop  offset="0" style="stop-color:#FFD06B"/>
	<stop  offset="0.2473" style="stop-color:#F39A6C"/>
	<stop  offset="0.5215" style="stop-color:#A46E63"/>
	<stop  offset="0.7312" style="stop-color:#725269"/>
	<stop  offset="0.9731" style="stop-color:#1A2040"/>
</linearGradient>
<path style="fill:url(#SVGID_37_);" d="M2020.2,761.5c0-2.3,0.2-4.2,0.8-5.2C2021.7,754.9,2021.1,757.6,2020.2,761.5z"/>
<linearGradient id="SVGID_38_" gradientUnits="userSpaceOnUse" x1="2055.0857" y1="752.4581" x2="2055.0857" y2="745.1275">
	<stop  offset="0" style="stop-color:#FFD06B"/>
	<stop  offset="0.2473" style="stop-color:#F39A6C"/>
	<stop  offset="0.5215" style="stop-color:#A46E63"/>
	<stop  offset="0.7312" style="stop-color:#725269"/>
	<stop  offset="0.9731" style="stop-color:#1A2040"/>
</linearGradient>
<path style="fill:url(#SVGID_38_);" d="M2054.8,748.4c-0.2-1.8-0.1-3.2,0.4-3.6C2055.7,744.5,2055.4,746,2054.8,748.4z"/>
<rect x="504" y="-179.3" style="fill:none;" width="1143.1" height="1143.1"/>
<polygon points="21.7,-142 0,-142 0,-173.4 3.3,-168.5 4,-167.6 "/>
<polygon style="fill:#00E576;" points="869.9,-140 732,-140 731.6,-139.5 679.7,-139.5 679.3,-140 623.4,-140 628.3,-147.2 
	651.3,-180.4 693.5,-241.2 709.9,-265 717.3,-275.7 746.7,-318 779.3,-270.9 783.4,-265 801,-239.6 "/>
<path style="fill:#FFFFFF;" d="M761-269.3c5.2,3.6,12.8,2.8,17.8-1.2c0.2-0.1,0.3-0.3,0.5-0.4L746.6-318l-29.3,42.3
	c1.1,1.5,2.3,3,3.9,4.3c5.1,4.4,12.9,5.3,18.8,2.1c1.8,4,6.1,6.8,10.5,6.8C754.9-262.5,759.2-265.3,761-269.3z"/>
<polygon style="fill:#1B1464;" points="869.9,-140 798.7,-140 778.9,-207.7 762.1,-265 760.9,-269.2 746.7,-318 779.3,-270.9 
	783.4,-265 801,-239.6 "/>
<polygon style="fill:#00E576;" points="568.4,-139.5 94.3,-139.5 94,-140 -1,-140 -1,-142 -5,-142 -5,-248.2 -1,-254 -1,-310.3 
	7.3,-322.2 139,-512.4 224.5,-635.9 402.6,-378.9 481.5,-265 481.5,-265 568,-140 568,-140 "/>
<path style="fill:#FFFFFF;" d="M255.2-498.4c14.6,4.3,31.2,6.4,44.2-1.4c4.7-2.8,8.5-6.8,11.5-11.4l-86.4-124.7L139-512.4
	c8.3,7.9,18.9,14.5,28.8,17c13.9,3.5,29.2,0.9,41.2-6.8c4.5,7.9,13,13.3,22.1,14C240.1-487.5,249.4-491.4,255.2-498.4z"/>
<polygon style="fill:#1B1464;" points="568.3,-139.5 341.4,-139.5 341.3,-140 314.8,-252.3 311.8,-265 224.5,-635.9 402.6,-378.9 
	481.5,-265 481.5,-265 568,-140 "/>
<polygon style="fill:#00E576;" points="763.6,-100 732,-100 731.6,-99.5 679.7,-99.5 679.3,-100 610.1,-100 609.8,-99.5 
	241.8,-99.5 242.1,-100 319.8,-212.3 328.7,-225 407.6,-338.9 429.4,-370.4 502.8,-476.4 574.2,-373.4 677,-225 693.5,-201.2 
	747.8,-122.8 "/>
<path style="fill:#FFFFFF;" d="M536.5-375.8c12.2,3.9,25.8,6.8,37.7,2.4l-71.4-103.1l-73.4,106c2.1,1.7,4.2,3.3,6.4,4.8
	c5.7,3.9,11.5,6.4,18.5,6.4c1.9,0,17.9-4.3,16.9-5.3c8.9,9.7,22.8,14.5,35.7,12.2C519.9-354.5,531.4-363.7,536.5-375.8z"/>
<polygon style="fill:#1B1464;" points="679.3,-100 630.8,-100 628.3,-107.2 624,-120 588.3,-225 537.1,-375.6 502.8,-476.4 
	574.2,-373.4 677,-225 693.5,-201.2 747.8,-122.8 763.6,-100 732,-100 731.6,-99.5 679.7,-99.5 "/>
<polygon style="fill:none;" points="818.5,-265 809,-251.2 801,-239.6 778.9,-207.7 772.5,-198.5 747.8,-162.8 743.3,-156.4 
	738.3,-149.1 733.3,-142 732,-140 731.6,-139.5 679.7,-139.5 679.3,-140 677.9,-142 676.3,-144.3 668,-156.4 651.3,-180.4 
	644.7,-190 624,-160 621.5,-156.4 611.5,-142 610.1,-140 609.8,-139.5 99.3,-139.5 99,-140 97.6,-142 87.7,-156.4 86,-156.4 
	86,-265 "/>
<polygon style="fill:#D3F0FD;" points="21.7,-142 0,-142 0,-173.4 3.3,-168.5 4,-167.6 "/>
<polygon style="fill:#00E576;" points="1980,-223.7 1980,-50 1417,-50 1417.4,-50.5 1417.8,-51.2 1458.9,-110.4 1460.3,-112.5 
	1504.3,-176 1579.3,-284.3 1602.4,-317.7 1758.7,-543.2 "/>
<path style="fill:#FFFFFF;" d="M1796.3-415.4c13.7,9.5,33.6,7.2,46.7-3.1c0.4-0.3,0.8-0.7,1.3-1.1l-85.7-123.7l-76.9,111.1
	c2.8,4.1,6.2,7.9,10.1,11.3c13.3,11.7,33.8,13.8,49.3,5.4c4.7,10.6,16,17.9,27.6,17.9C1780.3-397.5,1791.6-404.8,1796.3-415.4z"/>
<polygon style="fill:#1B1464;" points="1980,-223.7 1980,-50 1902.8,-50 1867.8,-170 1862.8,-186.9 1758.7,-543.2 "/>
<polygon style="fill:#00E576;" points="1275.5,-426 1119.3,-200.4 1275.5,-200.4 1431.7,-200.4 "/>
<path style="fill:#FFFFFF;" d="M1289.1-364.9c6.5,1.9,13.9,2.9,19.6-0.6c2.1-1.3,3.8-3,5.1-5l-38.4-55.5l-38,54.9
	c3.7,3.5,8.4,6.4,12.8,7.6c6.2,1.5,13,0.4,18.3-3c2,3.5,5.8,5.9,9.8,6.2C1282.4-360,1286.6-361.8,1289.1-364.9z"/>
<polygon style="fill:#1B1464;" points="1275.5,-426 1328.6,-200.4 1431.7,-200.4 "/>
<polygon style="fill:#00E576;" points="1341.7,-140 1009.3,-140 1088,-253.7 1096.6,-266 1126.9,-309.8 1175.5,-380 1209.6,-330.8 
	1224.6,-309.1 1254.4,-266 1296.8,-204.9 1299.9,-200.4 1340.9,-141.2 1341.3,-140.5 "/>
<path style="fill:#FFFFFF;" d="M1192.9-301.8c8.3,2.4,17.7,3.7,25.1-0.8c2.7-1.6,4.8-3.9,6.6-6.5l-49.1-70.9l-48.6,70.2
	c4.7,4.5,10.7,8.2,16.4,9.7c7.9,2,16.6,0.5,23.4-3.9c2.6,4.5,7.4,7.5,12.5,8C1184.4-295.6,1189.7-297.8,1192.9-301.8z"/>
<polygon style="fill:#1B1464;" points="1341.7,-140 1232,-140 1231.9,-140.5 1217.8,-200.4 1202.3,-266 1194,-301.5 1192.8,-306.6 
	1175.5,-380 1209.6,-330.8 1224.6,-309.1 1254.4,-266 1296.8,-204.9 1299.9,-200.4 1340.9,-141.2 1341.3,-140.5 "/>
<polygon style="fill:none;" points="1837.8,-276.9 1837.8,-140.5 1155.7,-140.5 1154.6,-142 1144,-157.4 1114.8,-199.5 1091.6,-233 
	1088,-238.2 1088,-266 1700.1,-266 1700.2,-266.1 1704.4,-272.2 1707.7,-276.9 "/>
<polygon style="fill:#00E576;" points="1544.1,-562 1252.7,-141.2 1544.1,-141.2 1835.6,-141.2 "/>
<path style="fill:#FFFFFF;" d="M1580.7-452.9c13.2,4.3,28,7.4,40.8,2.6L1544.1-562l-79.5,114.8c2.2,1.9,4.6,3.6,6.9,5.2
	c6.2,4.2,12.4,6.9,20,6.9c2.1,0,19.3-4.6,18.4-5.7c9.6,10.5,24.7,15.7,38.7,13.2C1562.6-429.9,1575.1-439.8,1580.7-452.9z"/>
<polygon style="fill:#1B1464;" points="1544.1,-562 1687.1,-141.2 1835.6,-141.2 "/>
<polygon style="fill:#00E576;" points="142.5,-139.5 99.3,-139.5 99,-140 4,-140 4,-142 0,-142 0,-248.2 4,-254 4.3,-254.5 
	33.7,-296.8 66.3,-249.6 86,-221.2 86,-221.2 142.2,-140 "/>
<path style="fill:#FFFFFF;" d="M48-248.1c5.2,3.6,12.8,2.8,17.8-1.2c0.2-0.1,0.3-0.3,0.5-0.4l-32.6-47.1L4.3-254.5
	c1.1,1.5,2.3,3,3.9,4.3c5.1,4.4,12.9,5.3,18.8,2.1c1.8,4,6.1,6.8,10.5,6.8C41.9-241.3,46.2-244,48-248.1z"/>
<polygon style="fill:#1B1464;" points="142.5,-139.5 99.3,-139.5 99,-140 79.5,-140 47.9,-247.9 33.7,-296.8 66.3,-249.6 86,-221.2 
	86,-221.2 142.2,-140 "/>
<linearGradient id="SVGID_39_" gradientUnits="userSpaceOnUse" x1="523.4395" y1="485.8211" x2="606.9963" y2="314.5042">
	<stop  offset="0" style="stop-color:#1B1464"/>
	<stop  offset="9.651232e-02" style="stop-color:#154268"/>
	<stop  offset="0.2138" style="stop-color:#0F736C"/>
	<stop  offset="0.3302" style="stop-color:#099C70"/>
	<stop  offset="0.4434" style="stop-color:#05BC72"/>
	<stop  offset="0.5525" style="stop-color:#02D374"/>
	<stop  offset="0.6558" style="stop-color:#01E076"/>
	<stop  offset="0.747" style="stop-color:#00E576"/>
</linearGradient>
<path style="fill:url(#SVGID_39_);" d="M497.1,282.2c0.6,0.8,2.8,6.7,3.2,7.7c0.4,1,1.4,6.3,1.4,6.3s5.1,10.3,3.2,10.9
	c-2,0.6-6.9-2.8-6.9-2.8l-3.8-3c0,0,1.4,9.7,2.2,11.9c0.8,2.2,1.2,6.5,1.6,8.9c0.4,2.4-0.2,7.3,0,9.1c0.2,1.8,0.8,6.1,0,7.1
	c-0.8,1-3.8,9.3-3.8,9.3s2,4.7,3.8,6.9c1.8,2.2,3.5,8.2,4.3,10.3c0.8,2.1,3.4,7.3,4.2,8.2c0.8,1,3,7.3,3,8.5c0,1.2-5.3-0.6-6.1-1.2
	c-0.8-0.6-7.9-4.7-8.7-6.3c-0.8-1.6-4-4.2-4-4.2s4.3,15.2,5.3,18c1,2.8,1.2,11.7,1.4,13.6c0.2,2,1,9.5,0.4,11.7
	c-0.6,2.2-4.3,4.5-4.3,4.5l-4,1.2l7.1,6.5l7.1,6.9c0,0,0.6,0.8,4.9,2.8c4.4,2,11.1,9.1,10.7,21.2c-0.4,12.1-5.7,20.6-5.7,20.6
	s9.1,11.1,16.6,10.9c7.5-0.2,17,6.3,17.2,7.7c0.2,1.4,40.5,0,40.5,0s37.6,23.9,38.5,24.2c0.9,0.3,32.9-16.8,32.9-16.8l-19.3-27.3
	c0,0-5-9.2,0.9-11.6c5.9-2.4,10.4-4.2,10.4-4.2s-11.9-12.2-12.2-13.9c-0.3-1.8-1.2-6.2-2.1-7.4c-0.9-1.2-12.5-16.3-13.1-17.5
	c-0.6-1.2-5.1-9.5-7.2-10.6c-5.1-2.6-11.2-6.1-12.5-8.3c-2.4-4-9.6-17.2-11.1-20.8c-1.6-3.6-8.5-7.6-8.5-7.6s-15.8-6.7-18.6-8.6
	c-2.8-1.9-15.4-9.6-15.4-9.6s-5.7-1.8-7.3-5.7c-1.6-4-13.8-23.1-17.3-30.2c-3.6-7.1-9.2-12.3-13.9-21.4c-4.7-9.1-9.7-20.4-12.9-26.7
	c-2.2-4.5-6.7-10.7-8.7-13.9c0,4.7,0,9.6,0,10.1C490.5,268.8,496.5,281.4,497.1,282.2z M535.6,363.9c2.1,2.5,4.9,6.4,4.9,6.4l1.7,1
	l3.5,1.3c0,0,3.7,5.7,4.1,6c0.4,0.3,2.3,1.1,3.2,1.1c0.9,0,8.2,2.6,8.6,2.8c0.4,0.2,4.6,5.9,5.3,6.8c0.7,0.9,2.7,3,3.5,3.6
	c0.8,0.6,2.8,2.4,2.8,4.3c0,1.9,1.1,4,1.8,4.8c0.7,0.9,5.9,4.4,6,5.9c0.1,1.6,2.1,5.6,2.1,5.6l-11.8-7.7c0,0-3.7-0.8-4.9-0.8
	c-1.3,0-3.4,1.6-3.7,1.6c-0.3,0-4.6-2.1-4.9-2.4c-0.3-0.3-3.6-4.5-4.6-5.6c-1.1-1.1-9.4-3.3-9.7-3.3c-0.3,0-6.4-0.8-6.4-0.8
	s-6.5-6.3-6.9-6.4c-0.4-0.1-1.8-5.6-1.8-5.6s0.6-20.7-1.2-27C527,355.5,533.6,361.4,535.6,363.9z"/>
<linearGradient id="SVGID_40_" gradientUnits="userSpaceOnUse" x1="810.6304" y1="220.8355" x2="809.0475" y2="538.8212">
	<stop  offset="0" style="stop-color:#1B1464"/>
	<stop  offset="0.747" style="stop-color:#00E576"/>
</linearGradient>
<path style="fill:url(#SVGID_40_);" d="M780.8,332.2l2.8,4.9c0,0,1.4,4.3,2,4.7c0.6,0.4,0,4.9,0,4.9l-1.6,1c0,0,3.9,3.6,1.8,4.7
	c-2,1.2-3.8,2.4-3.8,2.4s3.9,8.3,4.4,8.9c0.5,0.6,4.7,3.8,4.7,3.8s9.3,8.9,10.5,9.9c1.2,1,4.4,4,5.5,5.3c1.2,1.4,4,4.9,4,4.9
	s0.8-3,4.7-2.4c4,0.6,7.9,2.2,9.9,4.4c2,2.2,4.2,3.8,6.9,5.9c2.8,2.2,6.5,4.2,7.5,5.5c1,1.4,3,4,3,4s-5.3-18.2-7.7-22.7
	c-2.4-4.5,1.8-4.4-4.3-9.5c-6.1-5.1-6.5-8.1-7.5-9.3c-0.5-0.5-0.7-2.2-0.8-3.9c-3.6-3.2-8.1-8.2-10.9-11.5
	c-5.5-6.3-10.9-8.9-17.6-15.3c-5.6-5.3-14.8-13.3-17.5-15.8c0.4,1.1,0.8,2.2,0.9,2.8C778.1,321.8,780.8,332.2,780.8,332.2z"/>
<linearGradient id="SVGID_41_" gradientUnits="userSpaceOnUse" x1="317.0588" y1="470.2327" x2="317.0588" y2="247.2398">
	<stop  offset="0" style="stop-color:#1B1464;stop-opacity:0.8"/>
	<stop  offset="0.546" style="stop-color:#00E576"/>
</linearGradient>
<path style="fill:url(#SVGID_41_);" d="M265.3,240.5c0.9,0.9,2.4,8.6,2.4,10.7c0,2.1-1.3,7.7-1.3,7.7l-3.7,9.2c0,0,7.1,5.9,8.3,6.8
	c1.2,0.9,3,9.8,3,9.8s0.9,8.9,1.8,8.9c0.9,0,4.2,15.1,4.2,15.1l-2.4,2.7c0,0,1.2,6.8,2.4,8.3c1.2,1.5,1.2,4.4-1.8,6.2
	c-3,1.8-7.7,3.9-7.7,3.9h-6.2c0,0,11,7.7,13.6,13.6c2.7,5.9,6.8,18.4,6.2,19.9c-0.6,1.5-3.9,8.6-3.9,8.6h-4.7h-8.9
	c0,0,4.2,7.4,3.9,10.4c-0.3,3-2.1,6.5-2.1,6.5l3.6,5.6c0,0-4.7,8.3-9.2,12.2c-4.4,3.9-9.8,1.8-9.8,1.8l-5.9-11.3
	c0,0-5.9-0.9-5.6-2.4c0.3-1.5,0.6-6.5,0-9.2c-0.6-2.7-3-20.6-3-20.6s-6.2,16.7-8,19.4c-1.8,2.7-6.8,10.4-7.1,11.3
	c-0.3,0.9,3,14.5,3,14.5s4.2,2.7,4.2,4.7c0,2.1,3,3.6,3,3.6s2.1,0,3.6,0c1.5,0,2.4,9.4,2.7,10.5c0.3,1.1,0.9,4.9-0.3,7
	c-1.2,2.1-8,12.2-8,12.2l-3.3,5.9l19.9,19L357,484.6l30.8-9.8l3.3-15.4c0,0,0-3.3-1.8-5.3c-1.8-2.1-6.8-13.1-2.1-14.5
	c4.7-1.5,18.4,8,18.4,8v-11.3c0,0-0.6-6.9,0.9-7.3c1.5-0.4,4.5,0,4.5,0s-5-9.6-6.5-12.3c-1.5-2.7-5-9.2-8.6-13.6
	c-3.6-4.5-5.6-11-5-13.6c0.6-2.7,5.3-7.7,5.3-7.7l2.1-2.7l7.4,2.4c0,0-5.3-7.1-6.5-9.2c-1.2-2.1-1.5-6.4-1.2-8.5
	c-1.9-0.8-3.4-2.5-4.8-3.4c-4.3-2.8-5.9-2.2-6.7-5c-0.8-2.8-5.2-3.2-8.4-6c-3.2-2.8-4.6-5.5-10.1-11.9c-5.5-6.3-8.9-7.9-12.5-8.7
	c-3.6-0.8-22.4-6.4-23.9-9.6c-1.6-3.2-12.2-12.3-15.7-14.6c-3.6-2.4-10.1-15.2-14.8-21.9c-4.7-6.7-14.7-20.5-19-24
	c-4.3-3.6-6.4-8.4-8-13.5c-1.6-5.1-7.4-13.3-7.4-13.3s-0.5,0.6-1.1,0.8C265.2,236.1,264.8,240,265.3,240.5z M321.7,324.7
	c1,1.3,6.4,6.5,7.3,7c0.9,0.4,6.2,9,7.6,9.9c1.3,0.9,9.3,3.7,9.9,3.9c0.6,0.1,13.2,5.9,13.2,5.9s-2.4-6.1-1.8-6.1
	c0.6,0,5,5.6,5.8,6.1c0.7,0.4,4.9,5,5.5,5.5c0.6,0.4,0,7.4,2.1,8c2.1,0.6,5.2,2.4,5.9,2.2c0.7-0.1,7.3,4.6,7.3,4.6l-3.9,3.6
	c0,0-2.1,0.1-2.1,1.3c0,1.2,1,4.5,1,4.5s-5.3-1.8-6.4-1.6c-1,0.1-6.7,0.7-7.7,1.6c-1,0.9-1.3,8.7-1,9.2c0.3,0.4,1.5,8.2,2.2,9.8
	c0.7,1.6,4.7,8.5,4.7,8.5s-7.9-6.4-8.6-6.4c-0.7,0-7.7-4-7.7-4s-6.7-4-6.5-5.6c0.1-1.6-2.5-8.8-2.5-8.8l-3.6-4.3c0,0,2.2-3,2.7-3.4
	c0.4-0.4,1.9-5,0.9-7.7c-1-2.7-7-13.2-7.9-15c-0.9-1.8-7.6-5.6-8.3-5.6c-0.7,0-3,3-3,3l-7.4-2.7l-2.4-0.6c0,0,0.8-6.4,1.2-7.4
	c0.4-1,0.9-4,1-4.4c0.1-0.4-2.7-8.8-3-10.5c-0.3-1.8-3.7-13.3-3.7-13.3S320.6,323.4,321.7,324.7z"/>
<linearGradient id="SVGID_42_" gradientUnits="userSpaceOnUse" x1="103.3286" y1="449.2968" x2="110.016" y2="253.4616">
	<stop  offset="0" style="stop-color:#1B1464;stop-opacity:0.8"/>
	<stop  offset="0.546" style="stop-color:#00E576"/>
</linearGradient>
<path style="fill:url(#SVGID_42_);" d="M83.9,306.2c0.4,0.6,4,7,4,7.7c0,0.7-0.6,4,0,4c0.6,0,6.7,3.9,6.7,3.9s6.7-0.1,7.4,1.9
	c0.7,2.1,1.6,5.2,2.7,5.6c1,0.4,5,2.2,5.9,2.2c0.9,0,3.7,4.2,4.4,4.7c0.7,0.6,4.5,0.9,5.3,1c0.9,0.1,6.5,2.2,7.1,2.8
	c0.6,0.6,8.5,9,8.5,9s-13.9-20.9-14.1-22.4c-0.1-1.5-1.6-8.3-1.5-9.3c0-0.2-0.1-0.6-0.3-1c-1.6,0.4-2.9,0.5-5.1-0.6
	c-4-2-18.2-12.7-22.1-15.8c-3.3-2.6-11-5.3-13.5-6.1c1,2.3,2.8,6.1,3.2,6.6C83.2,301.1,83.5,305.6,83.9,306.2z"/>
<linearGradient id="SVGID_43_" gradientUnits="userSpaceOnUse" x1="1150.7311" y1="329.4144" x2="904.8508" y2="329.4144">
	<stop  offset="0" style="stop-color:#1B1464"/>
	<stop  offset="0.747" style="stop-color:#00E576"/>
</linearGradient>
<path style="fill:url(#SVGID_43_);" d="M1115.6,359.9c-7.9-8.7-21-15-22.9-15.4c-2-0.4-10-9.9-10-9.9s-3.9-7.2-3.9-9.2
	c0-2-4-6.6-4-6.6s-15.2,0.3-17.1-1.7c-2-2-8.6-4.2-8.6-4.2l-9.5-0.4c0,0-11.6-18-14.7-23.6c-3.2-5.5-6.8-12.3-10-19.8
	c-3.2-7.5-8.7-27.4-15-33.3s-18.5-17.3-20.9-23.7c-2.4-6.3-5.2-8.8-5.2-8.8s-1.1,4-2.7,8.3c1.8,3.2,3.8,6.7,4.7,7.8
	c1.8,2.1,8.6,12.2,8.6,15.7c0,3.6,0,8.3,0,8.3s5.9,2.1,6.2,4.7c0.3,2.7-1.2,17.2,0,18.1c1.2,0.9-5.3,0-8.6-1.8
	c-3.3-1.8-3.9-3-4.5-4.2c-0.6-1.2-7.1-9.5-7.1-9.5s1.8,12.5,1.8,18.4c0,5.9,0.9,13.1,0,13.6c-0.9,0.6-4.2,3.6-4.2,3.6
	s12.8,7.1,13.6,7.4c0.9,0.3,9.2,4.2,11,6.8c1.8,2.7,4.7,11.6,4.7,13.6c0,2.1-0.9,8-3.3,8.3c-2.4,0.3-6.5,0.3-8.3,1.5
	c-1.8,1.2-1.5,4.4-0.6,4.4c0.9,0,3.6,6.5,0.6,7.1c-3,0.6-7.4,4.4-8.6,4.4c-1.2,0-4.5-1.8-5,0c-0.6,1.8-2.7,9.8-2.4,11.3
	c0.3,1.5,3.6,9.8,9.2,16c5.6,6.2,12.5,18.4,13.9,22.2c1.5,3.9,4.5,11,4.5,11s9.2,1.2,13.3,0c4.2-1.2,8,0.3,11.6,3
	c3.6,2.7,15.7,12.8,19.9,16.3c4.2,3.6,10.1,7.7,11.3,9.8c1.2,2.1,5.6,8.3,5.6,8.3s-0.6-5.6,0-6.5c0.6-0.9,4.4-2.7,6.8-1.8
	c2.4,0.9,5.3,1.5,8.9,5.3c3.6,3.9,10.4,5.9,10.7,6.8c0.3,0.9,3,11.3,3,11.3s4.7-3.9,5.3-6.2c0.6-2.4,11.9,0,13.6,0
	c1.8,0,6.2,3.3,10.7,3c4.4-0.3,5.9,4.7,6.8,5.3c0.9,0.6,7.4,0,7.4,0s5.1-2.4,7.3-5.1v-69.8C1139.7,380.3,1123.5,368.6,1115.6,359.9z
	 M1064.4,367.9c0,0-8.9,1.5-13.2-0.6c-4.3-2.1-11.1-9.9-11.1-9.9s-4.2-3.1-3.4-5c0.7-1.9,2.4-10.5,2.4-10.5l5.6,2.7
	c0,0,0.4-2.2,0.3-2.8c-0.2-0.6-0.2-4.7-0.3-6.8c-0.1-2.1-5.6-9.6-5.6-9.6l20.6,2.4c0,0,7.3,3.7,7.3,5c0,1.3,3,9,3,9l3.9,2.8
	c0,0,5.3,9.8,5.5,10.8c0.1,1,3.3,2.5,4.4,3.4c1.2,0.9,7.7,5.3,9.6,7c1.9,1.6,5,11.1,5,11.1s-23-11.9-24-11.8
	C1073.3,364.9,1064.4,367.9,1064.4,367.9z M1102.7,425.3c-2.4-1.2-5-4.9-6.7-5.5c-1.6-0.6-14.8-3.9-14.8-3.9s-3.1-2.7-5.2-5.9
	c-2.1-3.3-4.9-4.9-5.8-5.3c-0.9-0.4-2.7-2.5-2.7-2.5s5.8,0.4,5.7-4c0-0.4,0.7,2.7,5.3,4.3c4.6,1.6,9.2,2.8,12,5.3
	c2.8,2.5,6.4,5.2,9.2,7c2.8,1.8,6.4,4.7,6.8,5.2c0.4,0.4,4.6,4.6,4.6,4.6S1105,426.5,1102.7,425.3z"/>
<linearGradient id="SVGID_44_" gradientUnits="userSpaceOnUse" x1="197.443" y1="399.5472" x2="219.9865" y2="257.1682">
	<stop  offset="0" style="stop-color:#1B1464;stop-opacity:0.8"/>
	<stop  offset="0.546" style="stop-color:#00E576"/>
</linearGradient>
<path style="fill:url(#SVGID_44_);" d="M194.3,309.6c0,0,2.5-3.2,3.5-4.2c1-1,2.2-2.5,2.2-3.3s1.2-4.4,1.9-4.6
	c0.7-0.3,3.6-0.5,4.2-0.9c0.6-0.4,1.9-2.1,1.9-2.1s8.7,5.5,9.2,5.9c0.5,0.4,2.4,2.1,2.9,3.1c0.5,1,0.5,4,1.1,4.6
	c0.6,0.6,1.7,2.7,2.2,3.4c0.4,0.7,0.4,5.5,1.1,6.6c0.7,1.1,1.8,4.2,1.7,5.1c-0.1,1,0,5.9,0,5.9l-6.6-7.9c0,0-5.1-2.4-6.2-3.1
	c-1.1-0.7-2.8-3.5-3.5-4.3c-0.7-0.8-2.1-1.2-3-1.6c-0.9-0.4-3.1-3.7-3.2-4.1C203.4,307.9,196.1,308.9,194.3,309.6z"/>
<linearGradient id="SVGID_45_" gradientUnits="userSpaceOnUse" x1="208.3799" y1="371.2784" x2="230.9234" y2="228.8997">
	<stop  offset="0" style="stop-color:#1B1464;stop-opacity:0.8"/>
	<stop  offset="0.546" style="stop-color:#00E576"/>
</linearGradient>
<path style="fill:url(#SVGID_45_);" d="M199.3,293.8c0,0,12.5,6.6,13.4,7.2c1,0.6,4.1,7.6,4.6,8.4c0.5,0.8,4.1,7.5,4.4,7.7
	c0.3,0.2,5.2,4.6,5.5,4.9c0.3,0.3,0.8,10,0.8,10.4c0,0.4,1.2,3.2,2.3,5.7c1.1,2.6,2.8,11.1,2.8,11.5c0,0.4,0.7,5.1,0.7,5.1
	s-6.1-7.4-6.3-7.7c-0.2-0.3-3.5-5.4-3.5-5.4s-2.1-3.9-3.2-4.4c-1.1-0.5-4.2-0.4-4.7-0.3c-0.6,0.1-6.7,3.3-8.4,3.6
	c-1.7,0.3-5.9,3.2-6.7,4.8c-0.8,1.7-3.3,4.3-3.3,4.3l2.9-10.4c0,0,6.3-6.4,7.1-7.1c0.8-0.7,3.2-4,3.2-4l-3-6.2c0,0-2.9-5.8-3.5-6.3
	c-0.6-0.5-7.9-6.6-8.3-6.9c-0.4-0.3,0-3.8,0-3.8l4.1-1.3c0,0,3.5-6.8-0.3-9.9"/>
<linearGradient id="SVGID_46_" gradientUnits="userSpaceOnUse" x1="108.0448" y1="429.4625" x2="114.7325" y2="233.6201">
	<stop  offset="0" style="stop-color:#1B1464;stop-opacity:0.8"/>
	<stop  offset="0.546" style="stop-color:#00E576"/>
</linearGradient>
<path style="fill:url(#SVGID_46_);" d="M71.3,304.8c0,0,34.7,28.5,36,29.4c1.3,0.9,12.2,10.2,12.5,11c0.3,0.7,1.2,7.4,1.2,8.3
	c0,0.9,1.2,8.9,1.2,9.8c0,0.9,1,2.8,1.6,3.5c0.6,0.7,10.4,13.3,12.2,16.4c1.8,3.1,7.1,15.1,7.4,15.7c0.3,0.6,6.2,13.1,6.2,13.1
	L133,400.2c0,0-3.6-0.7-9.2-3.3c-5.6-2.5-9.9-5.8-11-6.7c-1-0.9-7.1-1.8-9-3.1c-1.9-1.3-4.4-5.6-4.4-6.4c0-0.7-3.3-11.9-3.9-13.1
	c-0.6-1.2-4.9-5.8-5.6-6.8c-0.7-1-8.3-5.6-8.6-10.7c-0.3-5-3.9-20.3-4-24.8c-0.1-4.4-0.6-5.5-1.6-7.4
	C74.6,316.1,71.3,304.8,71.3,304.8z"/>
<linearGradient id="SVGID_47_" gradientUnits="userSpaceOnUse" x1="38.3078" y1="594.631" x2="52.3744" y2="274.0583">
	<stop  offset="0" style="stop-color:#1B1464;stop-opacity:0.8"/>
	<stop  offset="0.546" style="stop-color:#00E576"/>
</linearGradient>
<path style="fill:url(#SVGID_47_);" d="M58.4,342c0,0,0,7.1-1.6,9c-1.6,1.9-2.7,4.6-5.5,5.9c-2.8,1.3-6.8,5.2-6.8,5.2l-5.2,4
	c0,0,5.8-8.6,6.4-9.6c0.6-1,3-4.9,3.2-5.2c0.2-0.3,3-3.1,3.5-3.6C52.8,347.4,58.4,342,58.4,342z"/>
<linearGradient id="SVGID_48_" gradientUnits="userSpaceOnUse" x1="414.8988" y1="582.7718" x2="414.8988" y2="577.2924">
	<stop  offset="0" style="stop-color:#FFD06B"/>
	<stop  offset="0.2473" style="stop-color:#F39A6C"/>
	<stop  offset="0.5215" style="stop-color:#A46E63"/>
	<stop  offset="0.7312" style="stop-color:#725269"/>
	<stop  offset="0.9731" style="stop-color:#1A2040"/>
</linearGradient>
<path style="fill:url(#SVGID_48_);" d="M415.1,580.4c-0.5-1.8-0.7-3-0.3-2.7C415.2,578.1,415.3,579.1,415.1,580.4z"/>
<linearGradient id="SVGID_49_" gradientUnits="userSpaceOnUse" x1="440.5499" y1="599.6872" x2="440.5499" y2="591.3283">
	<stop  offset="0" style="stop-color:#FFD06B"/>
	<stop  offset="0.2473" style="stop-color:#F39A6C"/>
	<stop  offset="0.5215" style="stop-color:#A46E63"/>
	<stop  offset="0.7312" style="stop-color:#725269"/>
	<stop  offset="0.9731" style="stop-color:#1A2040"/>
</linearGradient>
<path style="fill:url(#SVGID_49_);" d="M440.4,592.3c0.4,0.7,0.6,2.2,0.6,3.9C440.3,593.3,439.8,591.3,440.4,592.3z"/>
<linearGradient id="SVGID_50_" gradientUnits="userSpaceOnUse" x1="715.79" y1="573.1912" x2="715.79" y2="572.3423">
	<stop  offset="0" style="stop-color:#FFD06B"/>
	<stop  offset="0.2473" style="stop-color:#F39A6C"/>
	<stop  offset="0.5215" style="stop-color:#A46E63"/>
	<stop  offset="0.7312" style="stop-color:#725269"/>
	<stop  offset="0.9731" style="stop-color:#1A2040"/>
</linearGradient>
<path style="fill:url(#SVGID_50_);" d="M715.8,572.8c0-0.2-0.1-0.4-0.1-0.4c0,0,0,0,0,0C715.8,572.5,715.8,572.6,715.8,572.8z"/>
<linearGradient id="SVGID_51_" gradientUnits="userSpaceOnUse" x1="767.605" y1="548.6657" x2="767.605" y2="547.9708">
	<stop  offset="0" style="stop-color:#FFD06B"/>
	<stop  offset="0.2473" style="stop-color:#F39A6C"/>
	<stop  offset="0.5215" style="stop-color:#A46E63"/>
	<stop  offset="0.7312" style="stop-color:#725269"/>
	<stop  offset="0.9731" style="stop-color:#1A2040"/>
</linearGradient>
<path style="fill:url(#SVGID_51_);" d="M767.6,548.4c0-0.2,0-0.3,0-0.3c0,0,0,0,0,0C767.6,548.1,767.6,548.2,767.6,548.4z"/>
<linearGradient id="SVGID_52_" gradientUnits="userSpaceOnUse" x1="798.0776" y1="534.4644" x2="798.0776" y2="533.8665">
	<stop  offset="0" style="stop-color:#FFD06B"/>
	<stop  offset="0.2473" style="stop-color:#F39A6C"/>
	<stop  offset="0.5215" style="stop-color:#A46E63"/>
	<stop  offset="0.7312" style="stop-color:#725269"/>
	<stop  offset="0.9731" style="stop-color:#1A2040"/>
</linearGradient>
<path style="fill:url(#SVGID_52_);" d="M798.1,534.2c0-0.3-0.1-0.4,0-0.3C798.1,534,798.1,534.1,798.1,534.2z"/>
<linearGradient id="SVGID_53_" gradientUnits="userSpaceOnUse" x1="804.95" y1="527.5708" x2="804.95" y2="527.0049">
	<stop  offset="0" style="stop-color:#FFD06B"/>
	<stop  offset="0.2473" style="stop-color:#F39A6C"/>
	<stop  offset="0.5215" style="stop-color:#A46E63"/>
	<stop  offset="0.7312" style="stop-color:#725269"/>
	<stop  offset="0.9731" style="stop-color:#1A2040"/>
</linearGradient>
<path style="fill:url(#SVGID_53_);" d="M805,527.3c0-0.1,0-0.2-0.1-0.3c0,0,0,0,0,0.1C805,527.2,805,527.3,805,527.3z"/>
<linearGradient id="SVGID_54_" gradientUnits="userSpaceOnUse" x1="842.1025" y1="583.3302" x2="842.1025" y2="582.0842">
	<stop  offset="0" style="stop-color:#FFD06B"/>
	<stop  offset="0.2473" style="stop-color:#F39A6C"/>
	<stop  offset="0.5215" style="stop-color:#A46E63"/>
	<stop  offset="0.7312" style="stop-color:#725269"/>
	<stop  offset="0.9731" style="stop-color:#1A2040"/>
</linearGradient>
<path style="fill:url(#SVGID_54_);" d="M842,582.8c0-0.3,0-0.5,0.1-0.6C842.2,582.1,842.2,582.3,842,582.8z"/>
<linearGradient id="SVGID_55_" gradientUnits="userSpaceOnUse" x1="1031.6614" y1="525.0942" x2="1031.6614" y2="522.8989">
	<stop  offset="0" style="stop-color:#FFD06B"/>
	<stop  offset="0.2473" style="stop-color:#F39A6C"/>
	<stop  offset="0.5215" style="stop-color:#A46E63"/>
	<stop  offset="0.7312" style="stop-color:#725269"/>
	<stop  offset="0.9731" style="stop-color:#1A2040"/>
</linearGradient>
<path style="fill:url(#SVGID_55_);" d="M1031.8,524.2c-0.2-1-0.2-1.4-0.1-0.9C1031.7,523.5,1031.7,523.8,1031.8,524.2z"/>
<linearGradient id="SVGID_56_" gradientUnits="userSpaceOnUse" x1="1048.417" y1="525.409" x2="1048.417" y2="524.3069">
	<stop  offset="0" style="stop-color:#FFD06B"/>
	<stop  offset="0.2473" style="stop-color:#F39A6C"/>
	<stop  offset="0.5215" style="stop-color:#A46E63"/>
	<stop  offset="0.7312" style="stop-color:#725269"/>
	<stop  offset="0.9731" style="stop-color:#1A2040"/>
</linearGradient>
<path style="fill:url(#SVGID_56_);" d="M1048.4,524.9c-0.1-0.5-0.1-0.6,0-0.5C1048.4,524.5,1048.4,524.7,1048.4,524.9z"/>
<linearGradient id="SVGID_57_" gradientUnits="userSpaceOnUse" x1="842.1025" y1="584.8978" x2="842.1025" y2="582.8382">
	<stop  offset="0" style="stop-color:#FFD06B"/>
	<stop  offset="0.2473" style="stop-color:#F39A6C"/>
	<stop  offset="0.5215" style="stop-color:#A46E63"/>
	<stop  offset="0.7312" style="stop-color:#725269"/>
	<stop  offset="0.9731" style="stop-color:#1A2040"/>
</linearGradient>
<path style="fill:url(#SVGID_57_);" d="M842,582.8c0-0.3,0-0.5,0.1-0.6C842.2,582.1,842.2,582.3,842,582.8z"/>
<rect x="-5.5" y="-179.3" style="fill:none;" width="1143.1" height="1143.1"/>
</svg>
