
<svg version="1.1" id="Ñëîé_1" xmlns="http://www.w3.org/2000/svg" xmlns:xlink="http://www.w3.org/1999/xlink" x="0px" y="0px"
	 viewBox="0 0 600 450" style="enable-background:new 0 0 600 450;" xml:space="preserve">
<link xmlns="http://www.w3.org/1999/xhtml" rel="stylesheet" href="https://cdnjs.cloudflare.com/ajax/libs/animate.css/3.7.0/animate.min.css" type="text/css"/>
<style>
#right_turn{animation-duration:5s;}
#Minus{animation-duration:2s;}
#uturn{animation-duration:3s;}
#thumb{animation-duration:1.5s;}
</style>
<g id="Platform" class="animated infinite pulse">
	<g>
		<path d="M278.5,361.7c-14.1,0-28.2,0.4-42.3,1.9c-5.3,0.6-10.5,1.8-15.8,2.3c-10.6,1-21.1,2.9-31.7,3.8c-8.6,0.7-17.2,1.1-25.8,2
			c-8,0.8-16.9,0.6-24.9-0.7c-5.9-1-11.8-1.6-17.6-3.2c-6.5-1.8-13.5-3.1-20.3-3.1c-9.6,0.1-19,0.1-28.2,3.3c-3.2,1.1-7.2,3-9.7,5.4
			c-5.6,5.5-6.4,19.1-0.8,24.8c9.5,9.5,29.7,13.3,42.9,13.5c14.5,0.2,28.7-0.9,43.2-1.5c13.5-0.6,27-1.4,40.6-1.4
			c27.7,0.1,55.4,0,83-1.8c26-1.7,52-1.1,78-1.1c26.7,0,53.2,0.2,79.7,3.6c11.5,1.5,23.3,2,34.9,3.1c10.4,0.9,20.4,0,30.7-0.9
			c8.7-0.7,17.3-2.9,25.2-6.5c6.2-2.9,17.4-11.9,19.3-18.8c5.4-19.4-75.7-18.9-88.1-18.8c-13.9,0-28,0.5-41.9,0
			c-5.9-0.2-11.6-1.3-17.3-2.5c-5.7-1.2-11.4-0.9-17.2-1.4c-24.1-2.1-48.2-1.8-72.3-1.8C294.2,361.7,286.4,361.7,278.5,361.7z"/>
	</g>
	<g>
		<path style="fill:#1B1464;" d="M282.4,355.3c-14.1,0-28.2,0.4-42.3,1.9c-5.3,0.6-10.5,1.8-15.8,2.3c-10.6,1-21.1,2.9-31.7,3.8
			c-8.6,0.7-17.2,1.1-25.8,2c-8,0.8-16.9,0.6-24.9-0.7c-5.9-1-11.8-1.6-17.6-3.2c-6.5-1.8-13.5-3.1-20.3-3.1
			c-9.6,0.1-19,0.1-28.2,3.3c-3.2,1.1-7.2,3-9.7,5.4c-5.6,5.5-6.4,19.1-0.8,24.8c9.5,9.5,29.7,13.3,42.9,13.5
			c14.5,0.2,28.7-0.9,43.2-1.5c13.5-0.6,27-1.4,40.6-1.4c27.7,0.1,55.4,0,83-1.8c26-1.7,52-1.1,78-1.1c26.7,0,53.2,0.2,79.7,3.6
			c11.5,1.5,23.3,2,34.9,3.1c10.4,0.9,20.4,0,30.7-0.9c8.7-0.7,17.3-2.9,25.2-6.5c6.2-2.9,17.4-11.9,19.3-18.8
			c5.4-19.4-75.7-18.9-88.1-18.8c-13.9,0-28,0.5-41.9,0c-5.9-0.2-11.6-1.3-17.3-2.5c-5.7-1.2-11.4-0.9-17.2-1.4
			c-24.1-2.1-48.2-1.8-72.3-1.8C298.1,355.3,290.2,355.3,282.4,355.3z"/>
	</g>
</g>
<g id="SecondMan">
	<g>
		<polygon style="fill:#263343;" points="425.8,384.3 426.2,387.7 419.9,392 416,389 419,385.2 425.4,380.9 		"/>
		<g>
			<polygon style="fill:#FFFFFF;" points="426,383.2 421.1,339.8 427,291.2 425.7,280.8 399.3,279.8 398.3,296.6 402.8,339.8
				419.4,385.4 			"/>
		</g>
		<g>
			<polygon style="fill:#FFFFFF;" points="379.9,284.7 379.8,328.5 388.7,384.9 395,384.8 398.5,332.7 406.7,280.5 			"/>
			<polygon style="fill:#263343;" points="395,387.5 388.2,391 384.7,387.6 388.1,384.1 395,384.1 			"/>
		</g>
		<g>
			<path d="M429.7,299.6c-0.1-1.9-0.2-3.5-0.2-4c-0.1-5.1-0.6-10.2-1.2-15.2c-0.6-4.5-1.3-15.8-2.1-20.3c-0.6-3.7-2.9-13-4.5-16.4
				c-4-8.6-2.8-9.4-20.4-11.9c-7.7-1.1-9.5,3.7-15.8,9.2c-0.6,0.5-0.6,3.8-0.7,4.7c-0.3,1.5-0.5,3-0.8,4.5c-0.2,1.2-0.5,2.4-0.8,3.5
				l0,0c0,0-5.3,24.1-8.8,29.2s-10.7,12.3,1.4,16.6c2.1,0.7,4.3,1.4,6.5,1.7c0,0,9.9-1.1,15-1.1c4.7,0,9.4,0.5,14,1.3
				c3.1,0.5,6.2,1.3,9,2.7c2.6,1.4,4.5,3.4,7.2,4.8c0.3,0.1,0.5,0.3,0.8,0.2C429.8,309,429.9,303.6,429.7,299.6z"/>
		</g>
		<g>
			<path style="fill:#F7C1A3;" d="M401.4,234.1c0.9,0.4,3,0.6,5.2-0.3c0.4-0.2,0.7-0.6,0.7-1.1c0-1.3-0.1-2.7-0.3-4
				c1.6-0.6,3.5-1.4,3.8-3.2c0.1-0.5,0-1.1-0.1-1.6c-0.4-2.2-0.8-4.5-1.2-6.7c-0.1-0.8-0.3-1.6-0.7-2.2c-0.7-1.2-2.2-1.7-3.5-1.9
				c-3.5-0.6-7.2,0.1-9.9,2.4c-0.7,0.6-1.4,1.3-1.7,2.2c-0.5,1.4-0.1,2.8,0.2,4.2c0.3,1.3,0.7,2.6,1,3.9c0.4,1.5,0.9,3.2,2.4,3.7
				c0.8,0.3,1.6,0.2,2.3,0.6C400.9,231,400.8,232.8,401.4,234.1z"/>
			<path d="M381.4,211.8c-0.3-0.6-0.7-1.1-1.1-1.6c-0.9-1.1-2-2-2.7-3.2s-1-2.9-0.1-4c0.6-0.7,1.4-1.1,2.3-1.3
				c2.9-0.8,6-0.9,8.9-0.2c2.8,0.7,5.2,1.9,8,0.8c2.6-1,4.5-0.6,7.2,0.4c3,1.1,6.9,1.3,9.6,2.8c1.1,0.6,2,1.6,2.7,2.7
				c2.4,3.7,2.4,8.8,0,12.6c-0.5,0.8-1.2,1.6-1.8,2.3c-1.4,1.5-3.1,3.4-5,3.9c0-1.7,1.5-7.1,0.2-8.5c-2.1-2.2-6.8-1.5-9.4-0.9
				c-2.8,0.6-5.3,2.6-8.2,3c-2,0.3-4.6-0.7-6.3-1.7C383.7,217.6,382.7,213.9,381.4,211.8z"/>
		</g>
		<polygon style="fill:#4EC5A2;" points="416,235 427,244.6 439.3,270.3 423.8,288.8 421.1,278.5 		"/>
	</g>
	<g>
		<polygon style="fill:#F7C1A3;" points="344.9,242.4 339.4,238.9 340.8,236.5 345.1,238 345.2,236.6 349.5,240.2 348.4,242.9 		"/>
		<polygon points="396,232.5 367.5,244.1 349.5,240.2 347.8,243.6 364.2,255.7 386.8,253 		"/>
	</g>
</g>
<g id="SecondGirl">
	<g>
		<g>
			<polygon points="306.7,387.2 306.5,390.2 312.3,393.4 315.5,390.6 312.6,387.5 306.8,384.2 			"/>
			<polygon points="301.9,296.8 301.5,305.8 311.5,345.6 306.4,386.2 312.3,387.7 328.5,339 328.8,324.3 324.8,294.1 			"/>
		</g>
		<g>
			<polygon points="346.4,295.9 350.9,333.7 349,383.3 343.6,383.9 335.3,339.2 322.9,295 			"/>
			<polygon points="343.8,386.2 350.1,388.5 352.7,385.2 349.4,382.6 343.5,383.2 			"/>
		</g>
	</g>
	<g>
		<path style="fill:#EDEDED;" d="M348.6,289.6c-5.6-11.5-7.9-24.1-10.9-36.5c-0.9-3.7-1.8-7.4-3.8-10.6c-2.3-3.6-5.6-5.3-9.1-5.9
			c-4.6-0.8-9.7,0-14.2,0.4c-2.8,8.6-4.6,3.7-7.8,12.2c-0.7,1.8-2.6,16.9-3.3,18.7l0,0c0,0-7.4,23.3-5.1,41.7c0,0.2,0,0.4,0.1,0.5
			c0.5,0.1,0.9,0.2,1.4,0.3c6.4,1.3,13,2,19.5,1.9c5.8-0.1,11.6-0.8,17.3-2.2c7.7-1.9,16.9-1.1,23.2-6.2
			C354.1,300.2,350.5,293.4,348.6,289.6z"/>
	</g>
	<g>
		<polygon style="fill:#DDDDDD;" points="282.1,239.6 288.4,205.1 293.8,206.2 294.1,232.2 		"/>
	</g>
	<polygon style="fill:#DDDDDD;" points="282.1,239.6 313.6,260.2 309.1,239.1 289.8,230.3 	"/>
	<g>
		<path style="fill:#BE6753;" d="M322.9,222c-4.1-6.2-14.6-5.8-14.8,2.7c0,2.6,0.2,5.2,1.4,7.5c1.1,2.3,3.2,4.2,5.8,4.6l0,0
			c0.1,0.7,0.2,1.3,0.2,2c0,0.1,0,0.3,0.1,0.4c0.1,0.1,0.3,0.1,0.5,0.1c0.8-0.1,1.6-0.2,2.3-0.3c0.4,0,0.8-0.1,1.1-0.3
			c0.7-0.5,0.8-1.5,0.6-2.3c0-0.2-0.1-0.4-0.2-0.6C324.1,232.9,325.6,226,322.9,222z"/>
		<g>
			<path d="M306.1,214.7c-1.8,0.4-2.7,2.7-3.9,4.2c-1.1,1.3-2.5,2.1-3.6,3.2c-1.1,1.2-2,3-1.4,4.6c-1.7-0.2-3.5-0.3-5,0.6
				c-1.5,0.9-2.2,3.4-0.9,4.7c1.1,1.2,3.1,0.8,4.2,1.9c1.8,1.8,0.5,6.2,2.9,6.9c0.6,0.2,1.2,0,1.7,0.2c0.7,0.2,1.2,0.9,1.6,1.5
				c2.2,2.6,6.1,3.4,9,1.8c1.5-1.6,2.3-4.1,2.2-6.4c-0.2-2.8-1.9-3.2-3-5.5c-1.3-2.5-1.5-5.6-0.7-8.2c0.5-1.7,1.6-3.5,3.2-4.2
				c0.6-0.3,0.6,0.3,1.2-0.5c0.2-0.3,0.3-1.3,0.3-1.8C311.4,217.1,308.6,214.2,306.1,214.7z"/>
			<path d="M325.9,210.7c1-0.1,2-0.5,3-0.5c1.5,0.1,2,1.4,2.8,2.4c0.9,1.1,2.2,2.6,3.4,3.3c0.9,0.5,1.9,0.6,2.9,0.8
				c1,0.3,2,0.8,2.4,1.8s0.1,2.1,0.3,3c0.4,1.5,1,2.1,1.1,3.7c0.1,0.8,0.1,1.7-0.2,2.5c-0.5,1-1.5,1.4-2.5,1.6c-1,0.2-2,0.3-2.8,1
				c-1.7,1.4-0.6,3.3-0.4,5.2c0.2,2.9-2.2,5.5-4.8,5.5c-2.2,0-4.2-1.8-5-4c-0.4-1.1-0.4-2.3-0.8-3.4c-0.4-1.1-1.6-2.3-0.9-3.5
				c0.2-0.3,0.4-0.5,0.5-0.8s0.1-0.5,0.1-0.8c-0.1-1-0.7-1.8-1.5-2.3c-0.6-0.3-1.2-0.5-1.7-1c-0.5-0.6-0.6-1.4-0.9-2.2
				c-0.6-1.8-2.3-3.2-4-3.3c-1.2-0.1-2.1,0-3.3-0.3c-0.2-0.1-2.8-1-2.7-0.6c-0.2-0.7,0-1.4,0.2-2.1c0.3-1.1,0.7-2.2,1.4-3.1
				c2.2-2.8,3.9,1,6-0.4c0.5-0.3,0.7-1,1.1-1.5c0.7-0.9,2-1.2,3.1-1.1C323.7,210.5,324.8,210.8,325.9,210.7z"/>
		</g>
	</g>
	<g>
		<g>
			<path style="fill:#DDDDDD;" d="M333.9,256c0.6,2.6,2.8,5.1,4.7,7.9c2.2,3.2,4.5,6.4,6.7,9.6l-7.3,23.2l4.6,1.6l13.2-23.1
				c0-9.2-8.3-14-10.4-19.1c-1.1-2.7-9.8-11-11.4-13.5c-2.4-3.6,0.9,2.5-2,5.4C329.5,250.4,333.5,253.9,333.9,256z"/>
		</g>
		<polygon style="fill:#DDDDDD;" points="341.3,299.6 340.4,300.9 338.2,300.4 336.3,301.6 335.9,300.4 339.1,297.1 341.6,297.9
			"/>
	</g>
	<polygon style="fill:#BE6753;" points="289.7,203.3 292,199.4 293.2,202.2 294.6,201.3 295.1,202.8 293.4,206.1 289.7,205.4 	"/>
</g>
<g id="FirstGirl">
	<g>
		<polygon style="fill:#263343;" points="236,381.1 242,384.5 241.5,387.3 230.7,385.8 231.3,381.7 		"/>
		<polygon style="fill:#263343;" points="208.7,384.3 204.5,384.2 203.4,387.8 203.5,387.8 203.5,387.8 210.5,391.8 213.8,392.1
			214.2,388.4 213.3,387.7 		"/>
		<path style="fill:#CAD2D9;" d="M221.6,317.3c0.7-0.1,2.5,24.1,2.5,24.1L211,385.3l-7.5-1.5l4.6-43.8c0,0-16-18.4-11.4-32.1
			C203.7,311.2,221.6,317.3,221.6,317.3z"/>
		<path style="fill:#CAD2D9;" d="M240.4,317.5L242,339l-4.2,42.9l-7.8-0.4c0,0-1.9-40.6-2.6-41.4c-0.8-0.8-7.4-22.1-7.4-22.1
			L240.4,317.5z"/>
		<g>
			<path style="fill:#1B1464;" d="M230.2,327.3c-24.6-0.5-26.4-12.9-31.9-14.2c-5.4-1.4-2.6-7.8-2.6-7.8s1-2.9,1.5-4.4
				c3.2-10.8,12.7-24.8,12.7-24.8c4.7-6.4,9.4-12,13.5-15.5c12.1-10.1,25-10.6,25-10.6c18.6,5.8,12.1,14.6,12.3,16.9
				c-6.1,5.6-10.6,14-13.8,23.1c-1.5,4.8-3.4,13.1-2.1,23.1c0.4,3.2,0.9,6,1.3,8.4C246.2,324.7,243.1,327.5,230.2,327.3z"/>
			<path style="fill:#FFFFFF;" d="M248.4,252c0,0,4.1-2.3,6.7,1.7c3.1,4.8-14.5,26.4-14.1,72.7c-4.6,0.9-16.5,3.2-28.8-2.6
				C215.1,310,227.1,268.5,248.4,252z"/>
		</g>
		<polygon style="fill:#F5CEB0;" points="265.6,320.1 270.4,324.5 272.4,322.6 269.8,318.8 271.1,318.3 266.5,315 264.2,316.7 		"/>
		<path d="M260.6,258.5l1.7,3.9l-1.6,28.7c0,0,8.5,24.6,8.3,24.6s-5.7,1.8-5.7,1.8l-12.4-24.8v-15.2L260.6,258.5z"/>
		<g>
			<path d="M257.6,237.4c2.1,1.6,3.9,5.1,3.2,7.8c-0.3,1.3-1.3,2.2-1.6,3.6c-0.6,2.8-5.5,4.9-3.4,8.1c1.1,1.7,3.1,2.4,5,3
				c0.2,0.1,0.5,0.1,0.7,0.1c0.4-0.1,0.6-0.5,0.7-0.8c0.1-0.4,0-0.8,0-1.2c-0.4-4.1,2.3-8.2,3.4-12.1c1-3.9,1-8.3-1.7-11.5
				c-2.3,0.2-3.2-0.2-4.7,1.5L257.6,237.4z"/>
			<path style="fill:#F7C1A3;" d="M252.7,253.7c2.7,0.2,5.4-1.3,7.1-3.4c1.7-2.1,2.6-4.8,3.2-7.4c1.9-8.9-9-11.7-14.7-6.3
				C243.3,241.3,244.8,253.1,252.7,253.7z"/>
			<path d="M239.1,252.1c1.4-0.1,2.9-0.3,4.2-1.2c2.1-1.5,3.3-4.9,4.6-7.1c1.4-2.3,2.9-4.7,5.4-5.6c1.6-0.6,3.1-0.2,4.6,0.4
				c1,0.4,0.9,0.8,2,0.6c0.9-0.1,2-1.2,2.4-1.9c0.8-1.2,0.8-2.7,0.4-4c-0.6-2.1-1.9-3.4-3.8-4.3c-6.7-3-13.5-1.1-18.2,4.7
				c-2.3,2.8-3.1,6.6-5.3,9.3c-1.4,1.6-3.1,2.4-4.5,4.2c-3.5,4.7-9.2,10.2-11.2,15.7c-0.1,0.2-0.1,0.4-0.1,0.6
				c0.2,0.4,0.8,0.3,1.2,0.1c2.3-1.2,4.6-2.3,6.9-3.5c0.9-0.5,1.8-0.9,2.6-1.6c1.9-1.7,2.5-4.7,4.8-5.8
				C236.5,252.2,237.8,252.2,239.1,252.1z"/>
		</g>
		<g>
			<polygon points="229.7,263.7 211.1,259.4 206.1,234.7 212.3,235.2 217.1,251.3 241.2,252 242.5,253.9 			"/>
		</g>
	</g>
	<path style="fill:#F5CEB0;" d="M211.3,235.1l-0.6-6.5l-4.6-3.5l-0.3,1.9l1.6,1.6c0,0,0.4,1.9,1.6,2.8c-0.1,1.1-1,3.4-1,3.4
		L211.3,235.1z"/>
</g>
<g id="uturn" class="animated infinite shake">
	<path style="opacity:0.82;fill:#00E576;enable-background:new    ;" d="M522,256.7l-56.6-56.6c-4.8-4.8-12.5-4.8-17.2,0l-56.6,56.6
		c-4.8,4.8-4.8,12.5,0,17.2l56.6,56.6c4.8,4.8,12.5,4.8,17.2,0l56.6-56.6C526.8,269.2,526.8,261.5,522,256.7z"/>
	<path style="fill:#33435A;" d="M483.3,270.1V250c0-14.6-11.8-26.4-26.4-26.4s-26.4,11.8-26.4,26.4v46.3h12.9V250
		c0-7.4,6-13.5,13.5-13.5c7.4,0,13.5,6,13.5,13.5v20.1h-13.9l20.3,26.2l20.3-26.2H483.3z"/>
</g>
<g id="Minus" class="animated infinite shake">
	<path style="fill:#EEEEEE;" d="M311.1,279.8c-9.3-9.3-21.7-14.5-34.9-14.5c-13.2,0-25.6,5.1-34.9,14.5
		c-9.3,9.3-14.5,21.7-14.5,34.9s5.1,25.6,14.5,34.9c9.3,9.3,21.7,14.5,34.9,14.5c13.2,0,25.6-5.1,34.9-14.5
		c9.3-9.3,14.5-21.7,14.5-34.9S320.4,289.1,311.1,279.8z"/>
	<ellipse style="fill:#1B1464;" cx="276.2" cy="314.8" rx="45.9" ry="45.9"/>
	<rect x="241.1" y="307.5" style="fill:#FFFFFF;" width="70.1" height="14.4"/>
</g>
<g id="FirstMan">
	<g>
		<g>
			<polygon points="170.8,308.6 172,337.4 168.4,386.4 162.9,386.8 156.3,342.3 147.2,304.6 			"/>
			<polygon style="fill:#263343;" points="163.1,389.1 169.3,391.6 172,388.5 168.8,385.7 162.9,386.1 			"/>
		</g>
		<g>
			<polygon points="132.2,298.4 131,320.1 134.6,384.9 140,385.2 148.2,342.7 155.4,296.1 			"/>
			<polygon style="fill:#263343;" points="139.9,387.5 133.8,390.2 131,387.1 134.1,384.3 140,384.6 			"/>
		</g>
		<g>
			<path style="fill:#EDEDED;" d="M163.9,234.1l-17-1.8c0,0-9.5,1-15.9,23.5c-3.6,12.5-4.7,32.3-4.9,47.3c0.4,2.1,2.7,11.5,12.6,10
				c17-2.7,26-5.5,33.4-4.1c6.3,1.4,5.8-7.3,5.1-13.9l-2.5-20.5L163.9,234.1z"/>
		</g>
		<g>
			<path style="fill:#BE6753;" d="M160.7,212.9c-4.3-0.9-8.7-1.8-13-0.9c-0.9,0.2-2,0.5-2.5,1.3c-0.2,0.3-0.3,0.7-0.4,1
				c-1.1,4-2.5,10,0.2,13.7c0.5,0.7,1.2,1.3,1.9,1.7c1,0.6,2.1,1,3.2,1.2c-0.2,1-0.6,2-1,2.9c1,1.5,5.6,1.7,6.4,0.2
				c0-1.2,0.1-2.5,0.1-3.7c0.6-0.2,1.1-0.5,1.6-0.8c2-1.3,3.3-3.2,4-5.4c0.8-2.4,2-4.7,2.7-7.1c0.3-0.9,0.5-1.9,0-2.7
				c-0.5-0.9-1.6-1.1-2.5-1.4C161.2,213.1,160.9,213,160.7,212.9z"/>
			<path d="M146.4,215.2c2.1-1.4,5.3-2,7.3-1.8c6,0.4,8.2,4.9,8.6,10.4c1.7-2.1,4.8-4.8,5-7.5c0.2-2.2-0.2-5.3-1.4-7.2
				c-1.2-1.8-4.1-2.8-5.9-3.8c-1.7-1-3.3-2-5-2.9c-0.3-0.2-0.7-0.4-1.1-0.5c-0.5-0.1-0.9,0-1.4,0.2c-4,1-7.9,2-11.9,3.1
				c-0.8,0.2-1.6,0.5-1.9,1.2c-0.2,0.4-0.1,0.9,0,1.4c0.4,2.1,1.3,4.1,1.5,6.2c0.2,1.2,1,7.4,3.1,6.7c0.6-1,0.7-2.3,1.2-3.4
				C144.8,216.5,145.5,215.8,146.4,215.2z"/>
		</g>
		<polygon style="fill:#DDDDDD;" points="146.9,232.3 140.6,234.2 117.6,258.3 116.2,266.3 127.2,284.4 130.2,277.8 125.6,264.4
			132.9,259.2 142.8,237 		"/>
	</g>
	<polygon style="fill:#BE6753;" points="187.5,188.9 189.1,181.2 186,178.4 183.7,181.2 183,184.3 181.1,184.7 182,190.1 	"/>
	<polygon style="fill:#DDDDDD;" points="163.7,234.2 177.7,224.2 182,190.1 187.5,188.9 187.3,224.4 183.4,232.5 166.9,247.5 	"/>
</g>
<g id="right_turn" class="animated infinite shake">
	<circle style="fill:#1B1464;" cx="115.1" cy="274.3" r="36.8"/>
	<path style="fill:#FFFFFF;" d="M134.3,267.6l-17.6-13.7v9h-4.9c-8.8,0-15.9,7.1-15.9,15.9v16h9.4v-16c0-3.6,2.9-6.5,6.5-6.5h4.9v9
		L134.3,267.6z"/>
</g>
<g id="stop" class="animated infinite shake">
	<path style="opacity:0.76;fill:#00E576;enable-background:new    ;" d="M220.5,190.7L166.1,93c-2.5-4.4-8.8-4.5-11.4-0.2
		l-57.5,95.9c-2.6,4.4,0.5,9.9,5.5,10l111.8,1.8C219.7,200.6,222.9,195.2,220.5,190.7z"/>
	<g>
		<path style="fill:#FFFFFF;" d="M156.2,167l-3.6-43.1l16.6,0.4l-4.9,42.9L156.2,167z M152.9,173l14.5,0.2l-0.2,14.3l-14.5-0.2
			L152.9,173z"/>
	</g>
</g>
<g id="thumbsup" >
	<g>
		<polygon style="opacity:0.76;fill:#00E576;enable-background:new    ;" points="345.7,47.4 280.6,48 234.9,94.6 235.6,159.7
			282.1,205.4 347.3,204.7 392.9,158.2 392.3,93 		"/>
		<polygon  style="fill:#1B1464;" points="387.1,95.2 343.7,52.6 282.8,53.2 240.1,96.7 240.8,157.5 284.2,200.2 345.1,199.6
			387.7,156.1 		"/>
	</g>
	<g class="animated infinite swing" id="thumb">
		<g>
			<g>
				<path  style="fill:#FFFFFF;" d="M347.7,124.2c1,1,1.7,2.5,1.7,4.1c0,2.6-1.6,4.7-3.8,5.3c1,0.9,1.6,2.3,1.6,3.8v0.2
					c0,2.3-1.4,4.2-3.3,4.8c1.1,1,1.8,2.4,1.8,4v0.5c0,2.9-2.1,5.2-4.7,5.2h-26.1c0,0-7,0-8.3-1.7c-0.8-1.1-2.4-2-3.4-2.5
					c-0.6-0.3-0.9-0.5-0.9-0.5h-8v-27.7c0,0,7.1-0.5,11.4-2.7c0.8-0.4,1.5-0.9,2-1.4c3.5-3.5,8.7-13.3,9.5-18.4
					c0.7-5.1-0.6-8.6,0-11.2s9.3-4.5,11.9,9.3c1.1,6,0.8,10.9,0,14.4c-0.2,0.8-0.4,1.5-0.6,2.2h17.1c1.1,0,2.2,0.4,3.1,1
					c1.6,1.1,2.7,3.1,2.7,5.4C351.3,120.9,349.8,123.2,347.7,124.2z"/>
			</g>
			<path style="opacity:0.5;fill:#EEEEEE;enable-background:new    ;" d="M305.5,117l-2.4,30.9c-0.6-0.3-0.9-0.5-0.9-0.5h-8v-27.7
				C294.1,119.7,301.2,119.3,305.5,117z"/>
			<g>
				<path style="fill:#184984;" d="M301,117.2v32.2c0,1.5-1.2,2.7-2.7,2.7h-21.6c-1.7,0-2.9-1.5-2.7-3.2l2.7-15.6l2.9-16.6
					c0.2-1.3,1.3-2.2,2.7-2.2h16C299.8,114.5,301,115.7,301,117.2z"/>
			</g>
			<path style="opacity:0.3;fill:#184984;enable-background:new    ;" d="M275.2,142.5l-1.1,6.5c-0.3,1.6,1,3.2,2.7,3.2h21.6
				c1.5,0,2.7-1.2,2.7-2.7v-6.9h-25.9V142.5z"/>
			<circle style="opacity:0.3;fill:#184984;enable-background:new    ;" cx="283.6" cy="144.1" r="3"/>
			<circle style="fill:#00598D;" cx="282.8" cy="143.8" r="3"/>
			<path style="opacity:0.3;fill:#398496;enable-background:new    ;" d="M283.9,141.1c0.4,0.4,0.6,1,0.6,1.6c0,1.4-1.1,2.5-2.5,2.5
				c-0.9,0-1.8-0.5-2.2-1.3l0,0c0,1.6,1.3,3,3,3s3-1.3,3-3C285.7,142.6,285,141.5,283.9,141.1z"/>
			<path style="opacity:0.5;fill:#EEEEEE;enable-background:new    ;" d="M351.3,118.3c0-2.3-1.1-4.3-2.7-5.4l0,0l0,0
				c-0.1-0.1-0.2-0.1-0.3-0.2l0,0c-0.1-0.1-0.2-0.1-0.3-0.2h-0.1c-0.1,0-0.2-0.1-0.3-0.1c0,0,0,0-0.1,0s-0.2-0.1-0.3-0.1h-0.1
				c-0.1,0-0.2,0-0.2-0.1h-0.1c-0.1,0-0.2-0.1-0.3-0.1h-0.1c-0.1,0-0.2,0-0.3,0H346c-0.1,0-0.2,0-0.4,0h-5.2h-11.9
				c0.1-0.2,0.1-0.4,0.2-0.6c0-0.1,0.1-0.2,0.1-0.3c0-0.1,0.1-0.2,0.1-0.3c0-0.1,0.1-0.2,0.1-0.3c0-0.2,0.1-0.4,0.1-0.6l0,0
				c0.8-3.6,1.1-8.5,0-14.4c-2.2-11.6-8.7-12.1-11.1-10.4c2.3,1.2,4.7,4.2,5.9,10.4c1.4,7.3,0.6,13-0.5,16.6v2.6h19.1
				c2.1,0,3.8,1.6,3.8,3.7c0,0,0,0,0,0.1c0,2.7-1.5,5-3.7,5.9c1,1,1.7,2.5,1.7,4.1c0,2.6-1.6,4.7-3.8,5.3c1,0.9,1.6,2.3,1.6,3.8v0.2
				c0,2.3-1.4,4.2-3.3,4.8c1.1,1,1.8,2.4,1.8,4v0.5c0,2.9-2.1,5.2-4.7,5.2h5.2c2.6,0,4.7-2.3,4.7-5.2v-0.5c0-1.6-0.7-3.1-1.8-4
				c1.9-0.6,3.3-2.5,3.3-4.8v-0.2c0-1.5-0.6-2.9-1.6-3.8c2.2-0.6,3.8-2.8,3.8-5.3c0-1.6-0.7-3.1-1.7-4.1
				C349.8,123.2,351.3,120.9,351.3,118.3z"/>
			<path style="fill:#FFFFFF;" d="M282.6,141.7c0.3,0.3,0.2,0.8-0.3,1.2c-0.4,0.4-1,0.5-1.2,0.2c-0.3-0.3-0.2-0.8,0.3-1.2
				C281.8,141.5,282.3,141.4,282.6,141.7z"/>
		</g>
	</g>
</g>
</svg>
