<?xml version="1.0" encoding="utf-8"?>
<!-- Generator: Adobe Illustrator 23.0.0, SVG Export Plug-In . SVG Version: 6.00 Build 0)  -->
<svg version="1.1" id="Ñëîé_1" xmlns="http://www.w3.org/2000/svg" xmlns:xlink="http://www.w3.org/1999/xlink" x="0px" y="0px"
	 viewBox="0 0 600 450" style="enable-background:new 0 0 600 450;" xml:space="preserve">
<style type="text/css">
	.st0{opacity:0.5;fill:#242993;enable-background:new    ;}
	.st1{fill:#42FFFF;}
	.st2{fill:url(#SVGID_1_);}
	.st3{fill:url(#SVGID_2_);}
	.st4{fill:#242993;}
	.st5{fill:#4553C7;}
	.st6{fill:url(#SVGID_3_);}
	.st7{fill:url(#SVGID_4_);}
	.st8{fill:url(#SVGID_5_);}
	.st9{opacity:0.4;fill:#42FFFF;enable-background:new    ;}
	.st10{fill:url(#SVGID_6_);}
	.st11{fill:url(#SVGID_7_);}
	.st12{fill:url(#SVGID_8_);}
	.st13{fill:url(#SVGID_9_);}
	.st14{opacity:0.51;}
	.st15{fill:url(#SVGID_10_);}
	.st16{fill:url(#SVGID_11_);}
	.st17{fill:#2859CB;}
	.st18{fill:#ADC8FF;}
	.st19{fill:#91AFFF;}
	.st20{fill:#00E576;}
	.st21{fill:url(#SVGID_12_);}
	.st22{opacity:0.11;}
	.st23{clip-path:url(#SVGID_14_);}
	.st24{fill:url(#SVGID_15_);}
	.st25{fill:url(#SVGID_16_);}
	.st26{opacity:0.42;fill:url(#SVGID_17_);enable-background:new    ;}
	.st27{opacity:0.42;fill:url(#SVGID_18_);enable-background:new    ;}
	.st28{fill:url(#SVGID_19_);}
	.st29{fill:url(#SVGID_20_);}
	.st30{opacity:0.6;fill:#242993;enable-background:new    ;}
	.st31{opacity:0.96;fill:url(#SVGID_21_);enable-background:new    ;}
	.st32{opacity:0.8;fill:#4553C7;enable-background:new    ;}
	.st33{fill:#88FFF3;}
	.st34{fill:url(#XMLID_18_);}
	.st35{fill:url(#XMLID_19_);}
	.st36{fill:url(#XMLID_20_);}
	.st37{fill:url(#XMLID_21_);}
	.st38{opacity:0.68;fill:url(#XMLID_22_);}
	.st39{fill:url(#XMLID_38_);}
	.st40{fill:url(#XMLID_39_);}
	.st41{fill:#58595B;}
	.st42{fill:#6D6E70;}
	.st43{opacity:0.76;}
	.st44{fill:url(#XMLID_40_);}
	.st45{fill:url(#XMLID_41_);}
	.st46{fill:url(#XMLID_42_);}
	.st47{fill:url(#XMLID_48_);}
	.st48{fill:url(#XMLID_76_);}
	.st49{fill:#3D3B96;}
	.st50{fill:url(#XMLID_77_);}
	.st51{fill:#72F2AF;}
	.st52{fill:#B7AA9A;}
	.st53{fill:#23216D;}
	.st54{fill:#1B1464;}
	.st55{fill:url(#XMLID_78_);}
	.st56{fill:#C4BAAB;}
	.st57{fill:url(#XMLID_79_);}
	.st58{fill:url(#XMLID_80_);}
	.st59{fill:url(#XMLID_81_);}
	.st60{opacity:0.5;enable-background:new    ;}
	.st61{fill:url(#XMLID_82_);}
	.st62{fill:#FFFFFF;}
	.st63{font-family:'Roboto-Bold';}
	.st64{font-size:27.136px;}
	.st65{font-size:36.6932px;}
	.st66{font-size:26.8649px;}
	.st67{font-size:35.4521px;}
	.st68{fill:#263343;}
	.st69{fill:#EDEDED;}
	.st70{fill:#BE6753;}
	.st71{fill:#DDDDDD;}
	.st72{opacity:0.76;fill:#00E576;}
	.st73{fill:#F7C1A3;}
	.st74{fill:#4EC5A2;}
	.st75{fill:#CAD2D9;}
	.st76{fill:#F5CEB0;}
	.st77{opacity:0.82;fill:#00E576;}
	.st78{fill:#33435A;}
	.st79{fill:#EEEEEE;}
	.st80{fill:url(#SVGID_22_);}
	.st81{opacity:0.5;fill:#EEEEEE;}
	.st82{fill:#184984;}
	.st83{opacity:0.3;fill:#184984;}
	.st84{fill:#00598D;}
	.st85{opacity:0.3;fill:#398496;}
</style>
<g id="smartphone_1_">
	
		<linearGradient id="XMLID_18_" gradientUnits="userSpaceOnUse" x1="-382.2526" y1="181.1924" x2="-699.4164" y2="380.9304" gradientTransform="matrix(1 0 0 1 792.6737 0)">
		<stop  offset="5.376350e-02" style="stop-color:#641DAB"/>
		<stop  offset="0.6631" style="stop-color:#6D73FF"/>
		<stop  offset="0.7526" style="stop-color:#6D6FFB"/>
		<stop  offset="0.8449" style="stop-color:#6B62EF"/>
		<stop  offset="0.9383" style="stop-color:#6A4EDB"/>
		<stop  offset="1" style="stop-color:#683CC9"/>
	</linearGradient>
	<path id="XMLID_75_" class="st34" d="M587.7,184L15.4,293.9l0,9.1c0,6.9,0,12.3,10.1,18.7l173,99.9c4.5,2.6,12.5,2.3,17.7-0.7
		l356.7-205.9c2.7-1.6,14.8-8,14.8-18C587.7,191.4,587.7,184,587.7,184z"/>
	
		<linearGradient id="XMLID_19_" gradientUnits="userSpaceOnUse" x1="-576.6387" y1="412.5536" x2="-593.9808" y2="412.5536" gradientTransform="matrix(1 0 0 1 792.6737 0)">
		<stop  offset="0.5591" style="stop-color:#00ADDB"/>
		<stop  offset="0.9122" style="stop-color:#00ADDB"/>
	</linearGradient>
	<path id="XMLID_74_" class="st35" d="M216.2,401.8l-17.7,0.7v19.1c4.5,2.6,12.5,2.3,17.7-0.7V401.8z"/>
	
		<linearGradient id="XMLID_20_" gradientUnits="userSpaceOnUse" x1="-585.3658" y1="401.9102" x2="-585.3658" y2="423.0603" gradientTransform="matrix(1 0 0 1 792.6737 0)">
		<stop  offset="0" style="stop-color:#5596FF"/>
		<stop  offset="0.3187" style="stop-color:#5694FE"/>
		<stop  offset="0.4985" style="stop-color:#578BF9"/>
		<stop  offset="0.6438" style="stop-color:#5A7EF0"/>
		<stop  offset="0.7705" style="stop-color:#5E6AE5"/>
		<stop  offset="0.8842" style="stop-color:#6451D5"/>
		<stop  offset="0.957" style="stop-color:#683CC9"/>
	</linearGradient>
	<path id="XMLID_73_" class="st36" d="M216.2,401.8l-17.7,0.7v19.1c4.5,2.6,12.5,2.3,17.7-0.7V401.8z"/>
	<linearGradient id="XMLID_21_" gradientUnits="userSpaceOnUse" x1="216.1555" y1="302.4453" x2="587.6574" y2="302.4453">
		<stop  offset="0" style="stop-color:#1B1464"/>
		<stop  offset="1" style="stop-color:#000000"/>
	</linearGradient>
	<path id="XMLID_72_" class="st37" d="M587.7,184L216.2,401.8v19.1l356.7-205.9c2.7-1.6,14.8-8,14.8-18
		C587.7,191.4,587.7,184,587.7,184z"/>
	
		<linearGradient id="XMLID_22_" gradientUnits="userSpaceOnUse" x1="-728.0762" y1="348.9123" x2="-718.8228" y2="364.7016" gradientTransform="matrix(-1 0 0 1 -615.9509 0)">
		<stop  offset="0" style="stop-color:#632ADA"/>
		<stop  offset="3.042061e-02" style="stop-color:#6537E0"/>
		<stop  offset="0.1067" style="stop-color:#6851EE"/>
		<stop  offset="0.1848" style="stop-color:#6B64F7"/>
		<stop  offset="0.2652" style="stop-color:#6C6FFD"/>
		<stop  offset="0.3513" style="stop-color:#6D73FF"/>
		<stop  offset="0.4824" style="stop-color:#6D6FFC"/>
		<stop  offset="0.6177" style="stop-color:#6C62F4"/>
		<stop  offset="0.7549" style="stop-color:#6B4EE7"/>
		<stop  offset="0.8926" style="stop-color:#6931D4"/>
		<stop  offset="0.957" style="stop-color:#6821C9"/>
	</linearGradient>
	<path id="XMLID_71_" class="st38" d="M15.6,293.7l182.9,108.8v19.1L30.4,324.5c-2.7-1.5-14.8-8-14.8-18
		C15.6,301,15.6,293.7,15.6,293.7z"/>
	<g id="XMLID_66_">
		<g id="XMLID_69_">
			
				<linearGradient id="XMLID_38_" gradientUnits="userSpaceOnUse" x1="-268.6566" y1="280.7287" x2="-268.6422" y2="275.9961" gradientTransform="matrix(0.866 -0.5 0 1.1547 752.1362 -216.4916)">
				<stop  offset="0" style="stop-color:#5937D1"/>
				<stop  offset="0.5071" style="stop-color:#5935D0"/>
				<stop  offset="0.6898" style="stop-color:#572ECE"/>
				<stop  offset="0.82" style="stop-color:#5423CB"/>
				<stop  offset="0.9245" style="stop-color:#5012C5"/>
				<stop  offset="1" style="stop-color:#4B00C0"/>
			</linearGradient>
			<path id="XMLID_70_" class="st39" d="M556.1,219.7l-72.3,42.4c0,0-1-0.6-1.6-0.9c-0.6-0.3-1-0.9-1-1.7l0,0c0-0.7,0.4-1.3,1-1.7
				l71.9-41.5c0.6-0.4,1.4-0.3,1.9,0c0.6,0.3,1.5,0.9,1.5,0.9C557.6,218,556.7,219.4,556.1,219.7z"/>
		</g>
		<g id="XMLID_67_">
			
				<linearGradient id="XMLID_39_" gradientUnits="userSpaceOnUse" x1="-267.2073" y1="281.6241" x2="-267.1947" y2="277.5083" gradientTransform="matrix(0.866 -0.5 0 1.1547 752.1362 -216.4916)">
				<stop  offset="0.69" style="stop-color:#5D53E9"/>
				<stop  offset="0.7643" style="stop-color:#5C58EB"/>
				<stop  offset="0.8517" style="stop-color:#5A66F0"/>
				<stop  offset="0.9453" style="stop-color:#577EF9"/>
				<stop  offset="1" style="stop-color:#558FFF"/>
			</linearGradient>
			<path id="XMLID_68_" class="st40" d="M557.7,220.6l-71.9,41.5c-1.3,0.7-2.9-0.2-2.9-1.7l0,0c0-0.7,0.4-1.3,1-1.7l71.9-41.5
				c1.3-0.7,2.9,0.2,2.9,1.7l0,0C558.6,219.6,558.2,220.2,557.7,220.6z"/>
		</g>
	</g>
	<g id="XMLID_59_">
		<path id="XMLID_65_" class="st41" d="M134.5,375.6c0,1,0.7,2.2,1.5,2.7c0.9,0.5,1.5,0.1,1.5-0.9c0-1-0.7-2.2-1.5-2.7
			C135.2,374.3,134.5,374.7,134.5,375.6z"/>
		<path id="XMLID_64_" class="st41" d="M69.4,337.8c0,2.6,1.8,5.7,4,7c2.2,1.3,4,0.2,4-2.3s-1.8-5.7-4-7
			C71.2,334.2,69.4,335.2,69.4,337.8z"/>
		<path id="XMLID_63_" class="st42" d="M70.4,341.4c0.7,1.4,1.8,2.7,3.1,3.4c2.2,1.3,4,0.2,4-2.3c0-1.4-0.6-3-1.4-4.4L70.4,341.4z"
			/>
		<g id="XMLID_60_">
			<path id="XMLID_62_" class="st41" d="M97.1,358.7l19.8,11.4c1.2,0.7,2.1-0.1,1.7-1.7l-1.4-6.2c-0.2-1-0.9-2-1.7-2.5l-17-9.8
				c-0.8-0.5-1.5-0.3-1.7,0.5l-1.4,4.6C95,356.1,95.9,358,97.1,358.7z"/>
			<path id="XMLID_61_" class="st42" d="M96.9,358.6l20,11.6c1.2,0.7,2.1-0.1,1.7-1.7l-1.4-6.2c-0.2-1-0.9-2-1.7-2.5l-10.4-6
				L96.9,358.6z"/>
		</g>
	</g>
	<g id="XMLID_56_" class="st43">
		<path id="XMLID_58_" class="st20" d="M198.5,402.5l-180-103.9c-4.5-2.6-4-7.2,1.3-10.2l367.2-212c5.2-3,13.2-3.4,17.7-0.7
			l180,103.9c4.5,2.6,4,7.2-1.3,10.2l-367.2,212C210.9,404.8,203,405.1,198.5,402.5z"/>
		<path id="XMLID_57_" class="st20" d="M206.1,401.9c3.1,0,6.2-0.8,8.5-2.1l367.2-212c1.7-1,2.8-2.2,2.8-3.2c0-0.8-1.1-1.6-1.6-1.9
			l-180-103.9c-1.5-0.9-3.7-1.4-6.2-1.4c-3.1,0-6.2,0.8-8.5,2.1l-367.2,212c-1.7,1-2.8,2.2-2.8,3.2c0,0.8,1.1,1.6,1.6,1.9l180,103.9
			C201.5,401.4,203.7,401.9,206.1,401.9z"/>
	</g>
</g>
<polygon id="XMLID_55_" class="st0" points="307.2,197 380.7,240.1 326.8,273.3 253.3,230.2 "/>
<linearGradient id="XMLID_40_" gradientUnits="userSpaceOnUse" x1="281.868" y1="172.4348" x2="374.9414" y2="172.4348">
	<stop  offset="0" style="stop-color:#6370FF"/>
	<stop  offset="1" style="stop-color:#948AFF"/>
</linearGradient>
<polygon id="XMLID_54_" class="st44" points="374.9,237.5 301.5,195 281.9,107.4 355.3,149.8 "/>
<linearGradient id="XMLID_41_" gradientUnits="userSpaceOnUse" x1="281.8367" y1="126.7957" x2="361.4041" y2="126.7957">
	<stop  offset="0" style="stop-color:#97D9FF"/>
	<stop  offset="1" style="stop-color:#E6DBFF"/>
</linearGradient>
<polygon id="XMLID_53_" class="st45" points="355.3,149.8 281.8,107.4 287.9,103.8 361.4,146.2 "/>
<linearGradient id="XMLID_42_" gradientUnits="userSpaceOnUse" x1="253.3446" y1="186.3623" x2="355.3013" y2="186.3623">
	<stop  offset="1.100000e-07" style="stop-color:#89B2FF"/>
	<stop  offset="1" style="stop-color:#D4BDFF"/>
</linearGradient>
<polygon id="XMLID_52_" class="st46" points="326.8,265.3 253.3,222.9 281.8,107.4 355.3,149.8 "/>
<linearGradient id="XMLID_48_" gradientUnits="userSpaceOnUse" x1="326.8092" y1="206.5885" x2="362.2619" y2="206.5885">
	<stop  offset="1.100000e-07" style="stop-color:#89B2FF"/>
	<stop  offset="1" style="stop-color:#D4A6FF"/>
</linearGradient>
<polygon id="XMLID_51_" class="st47" points="326.8,265.3 335,260.5 362.3,149.8 361.8,147.9 355.3,149.8 "/>
<linearGradient id="XMLID_76_" gradientUnits="userSpaceOnUse" x1="430.847" y1="451.8579" x2="459.7272" y2="451.8579" gradientTransform="matrix(0.8935 -0.449 0.449 0.8935 -232.5755 -11.9792)">
	<stop  offset="1.100000e-07" style="stop-color:#89B2FF"/>
	<stop  offset="1" style="stop-color:#D4A6FF"/>
</linearGradient>
<polygon id="XMLID_50_" class="st48" points="374.9,237.5 381.1,233.9 361.4,146.2 355.3,149.8 "/>
<polygon id="XMLID_49_" class="st49" points="341.7,156.7 277.9,119.8 284.4,117.9 348.2,154.7 "/>
<linearGradient id="XMLID_77_" gradientUnits="userSpaceOnUse" x1="254.1788" y1="186.2691" x2="341.6762" y2="186.2691">
	<stop  offset="0" style="stop-color:#C0D6FF"/>
	<stop  offset="0.2978" style="stop-color:#C5DBFF"/>
	<stop  offset="0.6488" style="stop-color:#D3E9FF"/>
	<stop  offset="1" style="stop-color:#E9FFFF"/>
</linearGradient>
<polygon id="XMLID_47_" class="st50" points="318,252.7 254.2,215.9 277.9,119.8 341.7,156.7 "/>
<polygon id="XMLID_46_" class="st51" points="254.2,215.9 256.3,217.1 280,121.1 277.9,119.8 "/>
<polygon id="XMLID_45_" class="st52" points="318,252.7 325.1,248.5 348.2,154.7 341.7,156.7 "/>
<polygon id="XMLID_44_" class="st53" points="333.2,190.9 339.8,188.9 348.2,154.7 341.7,156.7 "/>
<polygon id="XMLID_43_" class="st20" points="341.2,158.7 341.7,156.7 278,119.8 269.4,154.1 271.3,155.2 279.4,123 "/>
<polygon id="XMLID_37_" class="st54" points="341.2,158.7 279.4,123 271.3,155.2 333.2,190.9 "/>
<polygon id="XMLID_36_" class="st0" points="187.8,354.2 114.3,311.7 211.4,255.2 284.8,297.6 "/>
<linearGradient id="XMLID_78_" gradientUnits="userSpaceOnUse" x1="-143.0631" y1="111.3874" x2="-69.1822" y2="111.3874" gradientTransform="matrix(1.5 0.2887 -0.866 0.5 455.23 262.9218)">
	<stop  offset="0" style="stop-color:#97D9FF"/>
	<stop  offset="1" style="stop-color:#E6DBFF"/>
</linearGradient>
<polygon id="XMLID_35_" class="st55" points="187.8,337.4 114.3,295 211.4,238.5 284.8,280.9 "/>
<polygon id="XMLID_34_" class="st52" points="191.7,326 191.7,317.4 269.5,272.1 269.5,280.7 "/>
<polygon id="XMLID_33_" class="st56" points="191.7,326 191.7,317.4 132.8,283.4 132.8,292 "/>
<linearGradient id="XMLID_79_" gradientUnits="userSpaceOnUse" x1="132.756" y1="277.7162" x2="269.5024" y2="277.7162">
	<stop  offset="0" style="stop-color:#C0D6FF"/>
	<stop  offset="0.2978" style="stop-color:#C5DBFF"/>
	<stop  offset="0.6488" style="stop-color:#D3E9FF"/>
	<stop  offset="1" style="stop-color:#E9FFFF"/>
</linearGradient>
<polygon id="XMLID_32_" class="st57" points="191.7,317.4 132.8,283.4 210.6,238 269.5,272.1 "/>
<polygon id="XMLID_31_" class="st51" points="132.8,283.4 134.9,284.6 212.7,239.3 210.6,238 "/>
<linearGradient id="XMLID_80_" gradientUnits="userSpaceOnUse" x1="-71.3657" y1="185.3998" x2="-59.9613" y2="92.7701" gradientTransform="matrix(1.5 0.2887 -0.866 0.5 455.23 262.9218)">
	<stop  offset="1.100000e-07" style="stop-color:#89B2FF"/>
	<stop  offset="1" style="stop-color:#D4A6FF"/>
</linearGradient>
<polygon id="XMLID_30_" class="st58" points="187.8,346.1 187.8,337.4 284.8,280.9 284.8,289.5 "/>
<linearGradient id="XMLID_81_" gradientUnits="userSpaceOnUse" x1="-104.2572" y1="191.1071" x2="-100.1093" y2="157.4171" gradientTransform="matrix(1.5 0.2887 -0.866 0.5 455.23 262.9218)">
	<stop  offset="0" style="stop-color:#C2BAFF"/>
	<stop  offset="1" style="stop-color:#98B4FF"/>
</linearGradient>
<polygon id="XMLID_29_" class="st59" points="187.8,346.1 187.8,337.4 114.3,295 114.3,303.6 "/>
<polygon id="XMLID_28_" class="st54" points="269.5,272.1 210.6,238 181.9,254.7 240.8,288.8 "/>
<g id="XMLID_16_">
	<g>
		<path id="XMLID_103_" d="M162.8,282.3l2.9-1.7l4.7,0c8,0,12.2-0.2,14.7-1.6c1.7-1,2.1-2.2,0-3.5c-1.6-0.9-3.8-1.2-5.6-1.3l2.2-2.7
			c2.5,0.1,5.6,0.8,8.1,2.2c4.1,2.4,3.7,5.3-0.1,7.4c-3.4,2-8.4,2.3-13.7,2.3l-3.3-0.1l-0.1,0l6.9,4l-3.9,2.3L162.8,282.3z"/>
		<path id="XMLID_100_" d="M183.2,290c0.5,0.3,0.9,0.6,1.8,1.1c1.4,0.7,3.1,1.2,4.8,1.3c2.1,0.2,4.2-0.2,6.1-0.9l-0.1-0.1
			c-1.8,0.1-3.5-0.3-5.1-1.2c-3.1-1.8-3.3-4.7,0.7-7c4-2.3,10.2-2.6,14.2-0.3c4.7,2.7,2.8,6.3-1.9,9.1c-4.3,2.5-8.6,3.6-12.6,3.6
			c-3.5,0-6.9-0.8-9.8-2.4c-0.8-0.4-1.5-0.8-1.9-1.1L183.2,290z M196,285.6c-1.8,1-2.4,2.4-0.7,3.4c1.1,0.7,2.6,0.8,3.7,0.6
			c0.4-0.1,0.8-0.2,1.4-0.6c2.2-1.3,3.6-2.9,1.7-4C200.7,284.1,198.1,284.3,196,285.6z"/>
	</g>
</g>
<polygon id="XMLID_15_" class="st20" points="184.1,256 212.7,239.3 210.6,238 181.9,254.7 "/>
<polygon id="XMLID_14_" class="st20" points="269.5,272.1 267.4,273.3 208.4,239.3 210.6,238 "/>
<g id="XMLID_9_" class="st60">
	<polygon id="XMLID_13_" class="st4" points="472.1,188.6 398.6,146.1 391.2,150.4 464.7,192.8 	"/>
	<polygon id="XMLID_12_" class="st4" points="464.7,185.6 391.2,143.2 391.2,30.8 464.7,73.2 	"/>
	<polygon id="XMLID_11_" class="st4" points="472.1,68.9 398.6,26.5 391.2,30.8 464.7,73.2 	"/>
	<polygon id="XMLID_10_" class="st4" points="464.7,185.6 472.1,181.3 472.1,68.9 464.7,73.2 	"/>
</g>
<linearGradient id="XMLID_82_" gradientUnits="userSpaceOnUse" x1="390.2483" y1="107.4198" x2="449.4975" y2="107.4198">
	<stop  offset="0" style="stop-color:#C0D6FF"/>
	<stop  offset="0.2978" style="stop-color:#C5DBFF"/>
	<stop  offset="0.6488" style="stop-color:#D3E9FF"/>
	<stop  offset="1" style="stop-color:#E9FFFF"/>
</linearGradient>
<polygon id="XMLID_8_" class="st61" points="449.5,169.7 390.6,135.6 390.2,45.2 449.2,79.2 "/>
<polygon id="XMLID_7_" class="st51" points="392.6,136.8 390.6,135.6 390.2,45.2 392.2,46.3 "/>
<polygon id="XMLID_6_" class="st52" points="449.5,169.7 456.4,165.7 456,75.2 449.2,79.2 "/>
<polygon id="XMLID_5_" class="st54" points="449.2,79.2 390.2,45.2 390.2,78.4 449.3,112.5 "/>
<polygon id="XMLID_4_" class="st49" points="449.2,79.2 390.2,45.2 397.1,41.2 456,75.2 "/>
<polygon id="XMLID_3_" class="st53" points="449.2,79.2 449.3,112.5 456.2,108.6 456,75.2 "/>
<polygon id="XMLID_2_" class="st20" points="390.4,78.5 390.2,45.2 392.2,46.3 392.3,79.6 "/>
<polygon id="XMLID_1_" class="st20" points="449.2,81.6 449.2,79.2 390.2,45.2 391.7,48.3 "/>
<text transform="matrix(0.9864 0.5203 -0.3 0.9539 281.5056 153.981)" class="st62 st63 st64">Jan</text>
<text transform="matrix(0.9864 0.5203 -0.3 0.9539 269.5099 201.8532)" class="st63 st65">30</text>
<text transform="matrix(0.9964 0.5603 -0.3031 0.953 394.7469 75.8491)" class="st62 st63 st66">Jan</text>
<text transform="matrix(0.9864 0.5203 -0.3 0.9539 398.7224 125.2426)" class="st63 st67">31</text>
<path class="st62" d="M218.4,249.8l3.1,3.2l-8,8.7c-0.7,0.8-1.6,1.3-2.6,1.5c-1,0.2-2,0-3.1-0.4c-1.1-0.5-2.1-1.2-3.1-2.2
	c-1.6-1.7-2.5-3.3-2.8-4.9c-0.3-1.6,0.2-3,1.3-4.3l3.1,3.2c-0.6,0.6-0.8,1.2-0.8,1.8c0,0.6,0.4,1.3,1.1,2c0.6,0.6,1.2,0.9,1.9,1
	c0.7,0,1.3-0.3,1.9-0.9L218.4,249.8z"/>
<path class="st62" d="M223.6,271.8c0-0.4,0.1-0.8,0.2-1.2c-1.3,0.2-2.7-0.2-4.1-1.1c-1.3-0.9-2.2-1.9-2.7-3.1
	c-0.5-1.2-0.5-2.3,0.1-3.2c0.7-1.2,1.7-1.7,3.2-1.6c1.4,0.1,3.1,0.8,5.1,2.1l1.6,1.1l0.4-0.6c0.3-0.5,0.4-1,0.2-1.5
	c-0.1-0.5-0.6-1-1.2-1.5c-0.6-0.4-1.1-0.6-1.6-0.6c-0.5,0-0.8,0.2-1.1,0.6l-3.6-2.4c0.4-0.6,1-1.1,1.8-1.3c0.8-0.2,1.7-0.2,2.8,0.1
	c1.1,0.3,2.1,0.8,3.2,1.5c1.6,1.1,2.8,2.3,3.3,3.7c0.6,1.3,0.5,2.6-0.2,3.8l-2.8,4.7c-0.6,1-0.9,1.9-0.9,2.7l-0.1,0.2L223.6,271.8z
	 M221.8,267.7c0.5,0.4,1.1,0.6,1.6,0.7c0.6,0.1,1,0.1,1.4-0.1l1.1-1.9l-1.3-0.9c-1.8-1.2-3-1.3-3.8-0.4l-0.1,0.2
	c-0.2,0.4-0.2,0.8-0.1,1.2C220.9,267,221.3,267.4,221.8,267.7z"/>
<path class="st62" d="M240.5,265.9l-0.8,1.3c1.6-0.2,3.1,0.3,4.6,1.5c1.3,1.1,2.1,2.2,2.3,3.4c0.2,1.2-0.2,2.4-1.1,3.7l-4.8,6.7
	l-3.4-2.7l4.7-6.6c0.4-0.6,0.6-1.1,0.4-1.6c-0.1-0.5-0.5-1.1-1.3-1.6c-0.9-0.8-1.9-1-2.8-0.7l-5.2,7.3l-3.4-2.7l7.4-10.3
	L240.5,265.9z"/>
</svg>
