<?xml version="1.0" encoding="utf-8"?>
<!-- Generator: Adobe Illustrator 23.0.0, SVG Export Plug-In . SVG Version: 6.00 Build 0)  -->
<svg version="1.1" id="Layer_1" xmlns="http://www.w3.org/2000/svg" xmlns:xlink="http://www.w3.org/1999/xlink" x="0px" y="0px"
	 viewBox="0 0 1920 1080" style="enable-background:new 0 0 1920 1080;" xml:space="preserve">
<path style="fill:#1B1464;stroke:#000000;stroke-miterlimit:10;" d="M1919.5,51.5c-224.6-88.3-479.7,139.8-528,183
	c-109,97.4-246.5,280.3-265,305c-87.5,116.4-109.6,164.4-178,190c-139.1,52.1-272.5-61.8-308-17c-25.6,32.4,12.5,131.8,86,187
	c128.4,96.5,249.1-32,553-20c227.7,9,307.6,80.4,544,46c81.9-11.9,147.4-31.4,205-80c101-85.2,119.1-210.3,126-258
	C2180.7,406.3,2116.4,128.9,1919.5,51.5z"/>
</svg>
