<?xml version="1.0" encoding="utf-8"?>
<!-- Generator: Adobe Illustrator 23.0.0, SVG Export Plug-In . SVG Version: 6.00 Build 0)  -->
<svg version="1.1" id="Layer_1" xmlns="http://www.w3.org/2000/svg" xmlns:xlink="http://www.w3.org/1999/xlink" x="0px" y="0px"
	 viewBox="0 0 1920 1080" style="enable-background:new 0 0 1920 1080;" xml:space="preserve">
<style type="text/css">
	.st0{fill:#1B1464;}
</style>
<path class="st0" d="M35.8,164.1C99.9,71.7,208.4,42.9,237.9,32.9c166.5-56.6,275.8,33.2,417.4,9.4c14.2-2.4,55.1-10.3,83.1,12.6
	c14.4,11.8,25.3,31.7,25.9,51.8c1.6,50.4-61.7,67.2-118.8,138.2c-45,56-84.5,143.6-58.3,175c28.4,34.2,110.5-26.9,157.3,8.5
	c50.6,38.3,36.6,172.2-17.5,257.2C618.4,856.3,262.6,949.1,64.7,756.4C-79.8,615.8-101,361.5,35.8,164.1z"/>
</svg>
